{"glyphs":{"0":{"ha":608,"x_min":76,"x_max":532,"o":"m 407 892 q 391 935 407 919 q 347 951 375 951 l 261 951 q 217 935 233 951 q 201 892 201 919 l 201 171 q 217 127 201 143 q 261 111 233 111 l 347 111 q 391 127 375 111 q 407 171 407 143 l 407 892 m 532 171 q 517 99 532 133 q 478 40 503 65 q 419 1 453 15 q 347 -14 386 -14 l 261 -14 q 189 1 222 -14 q 131 40 156 15 q 91 99 106 65 q 76 171 76 133 l 76 892 q 91 964 76 931 q 131 1022 106 997 q 189 1062 156 1047 q 261 1076 222 1076 l 347 1076 q 419 1062 386 1076 q 478 1022 453 1047 q 517 964 503 997 q 532 892 532 931 l 532 171 z "},"1":{"ha":388,"x_min":90,"x_max":297,"o":"m 297 0 l 172 0 l 172 938 l 90 938 l 90 1063 l 297 1063 l 297 0 z "},"2":{"ha":540,"x_min":42,"x_max":519,"o":"m 519 125 l 519 0 l 42 0 l 42 69 q 49 200 42 143 q 74 305 57 257 q 122 394 92 353 q 197 479 151 436 q 274 551 239 518 q 337 621 310 583 q 379 706 364 658 q 394 821 394 753 l 394 878 q 374 932 394 911 q 319 953 353 953 l 242 953 q 188 932 208 953 q 167 878 167 911 l 42 878 q 58 956 42 919 q 101 1020 74 993 q 164 1063 128 1047 q 242 1078 200 1078 l 319 1078 q 398 1063 361 1078 q 462 1020 435 1047 q 504 956 489 993 q 519 878 519 919 l 519 821 q 500 688 519 749 q 448 575 481 626 q 374 480 415 524 q 292 397 333 436 q 221 321 246 356 q 183 255 196 286 q 169 192 171 224 q 167 125 167 161 l 519 125 z "},"3":{"ha":599,"x_min":58,"x_max":522,"o":"m 247 631 l 322 631 q 351 644 339 631 q 372 677 364 658 q 383 715 379 696 q 388 746 388 735 l 388 911 q 367 944 388 935 q 322 953 346 953 l 244 953 q 202 944 221 953 q 183 911 183 935 l 183 883 l 58 883 l 58 911 q 110 1036 58 994 q 244 1078 161 1078 l 324 1078 q 460 1036 407 1078 q 513 911 513 994 l 513 746 q 509 699 513 724 q 497 652 506 675 q 472 611 488 629 q 433 582 457 593 q 476 553 458 572 q 503 511 493 535 q 518 463 514 488 q 522 415 522 438 l 522 160 q 469 35 522 76 q 333 -7 417 -7 l 254 -7 q 119 35 171 -7 q 68 160 68 76 l 68 392 l 193 392 l 193 160 q 207 127 193 136 q 254 118 221 118 l 332 118 q 381 127 365 118 q 397 160 397 136 l 397 415 q 392 442 397 426 q 376 472 386 458 q 353 496 367 486 q 322 506 339 506 l 247 506 l 247 631 z "},"4":{"ha":636,"x_min":0,"x_max":594,"o":"m 522 1063 l 522 311 l 594 311 l 594 186 l 522 186 l 522 -8 l 397 -8 l 397 186 l 0 186 l 297 1063 l 522 1063 m 397 311 l 397 938 l 383 938 l 167 311 l 397 311 z "},"5":{"ha":565,"x_min":54,"x_max":510,"o":"m 383 432 q 372 494 383 469 q 324 519 361 519 l 85 519 l 85 1061 l 510 1061 l 510 938 l 210 938 l 210 644 l 324 644 q 465 588 422 644 q 508 432 508 531 l 508 160 q 456 35 508 76 q 319 -7 403 -7 l 240 -7 q 106 35 157 -7 q 54 160 54 76 l 54 392 l 179 392 l 179 160 q 193 127 179 136 q 240 118 207 118 l 318 118 q 367 127 351 118 q 383 160 383 136 l 383 432 z "},"6":{"ha":601,"x_min":76,"x_max":532,"o":"m 201 172 q 217 128 201 144 q 261 113 233 113 l 347 113 q 391 128 375 113 q 407 172 407 144 l 407 418 q 391 462 407 446 q 347 478 375 478 l 261 478 q 217 463 233 478 q 201 419 201 447 l 201 172 m 532 788 l 407 788 l 407 893 q 391 937 407 921 q 347 953 375 953 l 261 953 q 217 937 233 953 q 201 893 201 921 l 201 589 q 221 596 211 592 q 261 603 239 603 l 347 603 q 419 588 386 603 q 478 549 453 574 q 517 490 503 524 q 532 418 532 456 l 532 172 q 517 101 532 135 q 478 42 503 67 q 419 2 453 17 q 347 -12 386 -12 l 261 -12 q 189 2 222 -12 q 131 42 156 17 q 91 101 106 67 q 76 172 76 135 l 76 893 q 91 965 76 932 q 131 1024 106 999 q 189 1063 156 1049 q 261 1078 222 1078 l 347 1078 q 419 1063 386 1078 q 478 1024 453 1049 q 517 965 503 999 q 532 893 532 932 l 532 788 z "},"7":{"ha":479,"x_min":0,"x_max":458,"o":"m 42 0 l 301 944 l 0 944 l 0 1069 l 458 1069 l 167 0 l 42 0 z "},"8":{"ha":597,"x_min":69,"x_max":528,"o":"m 403 414 q 386 481 403 451 q 342 511 369 511 l 256 511 q 211 481 228 511 q 194 414 194 451 l 194 172 q 210 128 194 144 q 254 113 226 113 l 343 113 q 387 128 371 113 q 403 172 403 144 l 403 414 m 204 744 q 219 678 204 707 q 263 650 235 650 l 335 650 q 378 678 363 650 q 393 744 393 707 l 393 892 q 377 935 393 919 q 333 951 361 951 l 264 951 q 220 935 236 951 q 204 892 204 919 l 204 744 m 79 892 q 94 963 79 929 q 133 1022 108 997 q 192 1062 158 1047 q 264 1076 225 1076 l 333 1076 q 406 1062 372 1076 q 464 1022 439 1047 q 503 963 489 997 q 518 892 518 929 l 518 744 q 495 644 518 686 q 425 581 472 601 q 502 517 476 561 q 528 414 528 472 l 528 172 q 513 101 528 135 q 474 42 499 67 q 415 2 449 17 q 343 -12 382 -12 l 254 -12 q 182 2 215 -12 q 124 42 149 17 q 84 101 99 67 q 69 172 69 135 l 69 414 q 95 517 69 472 q 172 581 121 561 q 102 644 125 601 q 79 744 79 686 l 79 892 z "},"9":{"ha":601,"x_min":69,"x_max":525,"o":"m 400 894 q 384 938 400 922 q 340 954 368 954 l 254 954 q 210 938 226 954 q 194 894 194 922 l 194 649 q 210 605 194 621 q 254 589 226 589 l 340 589 q 384 604 368 589 q 400 647 400 619 l 400 894 m 69 279 l 194 279 l 194 174 q 210 130 194 146 q 254 114 226 114 l 340 114 q 384 130 368 114 q 400 174 400 146 l 400 478 q 381 471 390 475 q 340 464 363 464 l 254 464 q 182 478 215 464 q 124 518 149 493 q 84 577 99 543 q 69 649 69 611 l 69 894 q 84 966 69 932 q 124 1025 99 1000 q 182 1065 149 1050 q 254 1079 215 1079 l 340 1079 q 413 1065 379 1079 q 471 1025 446 1050 q 510 966 496 1000 q 525 894 525 932 l 525 174 q 510 101 525 135 q 471 43 496 68 q 413 3 446 18 q 340 -11 379 -11 l 254 -11 q 182 3 215 -11 q 124 43 149 18 q 84 101 99 68 q 69 174 69 135 l 69 279 z "}," ":{"ha":278,"x_min":0,"x_max":0,"o":""},"Ý":{"ha":635,"x_min":14,"x_max":621,"o":"m 336 449 q 333 438 335 444 q 322 431 331 431 l 318 431 q 312 434 314 431 q 307 440 310 438 q 304 449 304 444 l 142 1111 l 14 1111 l 199 353 q 219 320 201 335 q 258 306 236 306 l 258 0 l 382 0 l 382 306 q 421 321 404 306 q 442 353 438 336 l 621 1111 l 496 1111 l 336 449 m 361 1158 l 240 1158 l 381 1340 l 501 1340 l 361 1158 z "},"ý":{"ha":521,"x_min":14,"x_max":507,"o":"m 278 129 q 274 118 276 125 q 264 111 272 111 l 260 111 q 253 115 256 111 q 249 121 251 118 q 246 129 246 125 l 142 776 l 14 776 l 140 33 q 160 1 143 15 q 200 -14 178 -14 l 254 -14 l 222 -217 l 342 -217 l 507 776 l 382 776 l 278 129 m 300 881 l 179 881 l 319 1063 l 440 1063 l 300 881 z "},"Þ":{"ha":617,"x_min":97,"x_max":575,"o":"m 222 764 l 222 378 l 375 378 q 429 399 408 378 q 450 453 450 419 l 450 697 q 429 747 450 729 q 375 764 408 764 l 222 764 m 97 1099 l 222 1099 l 222 889 l 375 889 q 453 874 417 889 q 517 835 490 860 q 560 774 544 810 q 575 697 575 739 l 575 453 q 560 375 575 411 q 517 312 544 339 q 453 269 490 285 q 375 253 417 253 l 222 253 l 222 0 l 97 0 l 97 1099 z "},"þ":{"ha":608,"x_min":76,"x_max":532,"o":"m 76 -200 l 76 1061 l 201 1061 l 201 693 q 272 743 236 721 q 337 777 303 763 q 399 792 371 792 q 493 753 454 792 q 532 658 532 714 l 532 171 q 517 99 532 133 q 478 40 503 65 q 419 1 453 15 q 347 -14 386 -14 l 261 -14 q 201 -3 231 -14 l 201 -200 l 76 -200 m 347 111 q 391 127 375 111 q 407 171 407 143 l 407 603 q 402 649 407 632 q 389 665 397 665 q 347 651 378 665 q 285 617 317 636 q 201 567 247 594 l 201 171 q 217 127 201 143 q 261 111 233 111 l 347 111 z "},"Š":{"ha":603,"x_min":63,"x_max":540,"o":"m 540 293 q 526 415 540 361 q 488 510 513 468 q 431 585 464 553 q 357 640 397 617 q 290 682 321 663 q 235 724 258 701 q 200 776 213 747 q 188 843 188 804 l 188 919 q 208 974 188 953 q 263 994 229 994 l 340 994 q 394 974 374 994 q 415 919 415 953 l 540 919 q 525 998 540 961 q 483 1062 510 1035 q 419 1104 456 1089 q 340 1119 382 1119 l 263 1119 q 185 1104 221 1119 q 122 1062 149 1089 q 78 998 94 1035 q 63 919 63 961 l 63 843 q 104 688 63 754 q 219 576 146 621 q 297 528 261 551 q 359 473 333 504 q 400 399 385 442 q 415 293 415 356 l 415 186 q 394 132 415 153 q 340 111 374 111 l 263 111 q 208 132 229 111 q 188 186 188 153 l 188 392 l 63 392 l 63 186 q 78 108 63 144 q 122 45 94 72 q 185 2 149 18 q 263 -14 221 -14 l 340 -14 q 419 2 382 -14 q 483 45 456 18 q 525 108 510 72 q 540 186 540 144 l 540 293 m 286 1244 l 290 1244 l 383 1353 l 494 1353 l 322 1147 l 254 1147 l 82 1353 l 193 1353 l 286 1244 z "},"Ž":{"ha":556,"x_min":21,"x_max":535,"o":"m 21 0 l 369 986 l 21 986 l 21 1111 l 535 1111 l 188 125 l 535 125 l 535 0 l 21 0 m 265 1244 l 269 1244 l 363 1353 l 474 1353 l 301 1147 l 233 1147 l 61 1353 l 172 1353 l 265 1244 z "},"ž":{"ha":519,"x_min":35,"x_max":485,"o":"m 485 124 l 158 124 l 481 658 l 481 783 l 38 783 l 38 658 l 356 658 l 35 125 l 35 0 l 485 0 l 485 124 m 254 939 l 258 939 l 351 1047 l 463 1047 l 290 842 l 222 842 l 50 1047 l 161 1047 l 254 939 z "},"½":{"ha":833,"x_min":104,"x_max":750,"o":"m 600 453 q 622 488 600 488 l 635 488 q 649 483 643 488 q 656 465 656 478 l 656 436 q 637 349 656 392 q 578 265 618 307 q 544 228 560 246 q 519 192 529 211 q 504 146 510 172 q 499 81 499 119 l 499 0 l 750 0 l 750 94 l 594 94 q 608 153 596 132 q 650 206 621 174 q 721 307 692 253 q 750 436 750 361 l 750 465 q 741 511 750 490 q 717 548 732 532 q 680 573 701 564 q 635 582 658 582 l 622 582 q 576 572 597 582 q 540 544 556 561 q 515 503 524 526 q 506 453 506 479 l 506 436 l 600 436 l 600 453 m 256 500 l 158 500 l 158 979 l 104 979 l 104 1063 l 256 1063 l 256 500 m 292 0 l 194 0 l 544 1108 l 642 1108 l 292 0 z "},"¦":{"ha":278,"x_min":83,"x_max":194,"o":"m 194 639 l 83 639 l 83 1181 l 194 1181 l 194 639 m 194 -69 l 83 -69 l 83 472 l 194 472 l 194 -69 z "},"š":{"ha":567,"x_min":56,"x_max":511,"o":"m 181 579 q 205 545 181 568 q 258 499 229 522 q 335 442 293 472 q 424 371 385 408 q 484 299 457 339 q 511 218 511 258 l 511 171 q 497 99 511 133 q 457 40 482 65 q 399 1 432 15 q 326 -14 365 -14 l 240 -14 q 168 1 201 -14 q 110 40 135 15 q 70 99 85 65 q 56 171 56 133 l 56 294 l 181 294 l 181 171 q 197 127 181 143 q 240 111 213 111 l 326 111 q 370 127 354 111 q 386 171 386 143 l 386 218 q 363 267 386 242 q 313 314 340 293 q 239 361 279 339 q 147 429 188 393 q 84 499 113 460 q 56 579 56 538 l 56 607 q 70 679 56 646 q 110 738 85 713 q 168 777 135 763 q 240 792 201 792 l 326 792 q 399 777 365 792 q 457 738 432 763 q 497 679 482 713 q 511 607 511 646 l 511 579 l 386 579 l 386 607 q 370 651 386 635 q 326 667 354 667 l 240 667 q 197 651 213 667 q 181 607 181 635 l 181 579 m 275 925 l 279 925 l 372 1033 l 483 1033 l 311 828 l 243 828 l 71 1033 l 182 1033 l 275 925 z "},"!":{"ha":433,"x_min":153,"x_max":278,"o":"m 278 0 l 153 0 l 153 147 l 278 147 l 278 0 m 278 286 l 153 286 l 153 1106 l 278 1106 l 278 286 z "},"#":{"ha":814,"x_min":90,"x_max":806,"o":"m 632 607 l 593 478 l 757 478 l 757 354 l 554 354 l 486 139 l 375 139 l 443 354 l 290 354 l 222 139 l 111 139 l 178 354 l 90 354 l 90 478 l 218 478 l 260 607 l 139 607 l 139 731 l 297 731 l 361 931 l 472 931 l 410 731 l 561 731 l 625 931 l 736 931 l 674 731 l 806 731 l 806 607 l 632 607 m 329 478 l 482 478 l 524 607 l 369 607 l 329 478 z "},"$":{"ha":567,"x_min":56,"x_max":511,"o":"m 233 0 l 233 138 q 163 153 196 139 q 107 193 131 168 q 69 251 83 218 q 56 322 56 285 l 56 446 l 181 446 l 181 322 q 195 281 181 296 q 233 263 210 265 l 233 515 q 192 543 221 522 q 133 593 163 564 q 79 658 103 622 q 56 731 56 693 l 56 758 q 69 828 56 796 q 107 886 83 861 q 163 926 131 911 q 233 943 196 942 l 233 1069 l 331 1069 l 331 943 q 401 927 368 942 q 458 888 433 913 q 497 829 483 863 q 511 758 511 796 l 511 731 l 386 731 l 386 758 q 371 801 386 785 q 331 818 356 817 l 331 594 l 333 594 q 335 593 335 594 q 424 522 385 560 q 484 450 457 490 q 511 369 511 410 l 511 322 q 497 251 511 285 q 458 193 483 218 q 401 153 433 168 q 331 138 368 138 l 331 0 l 233 0 m 386 322 l 386 369 q 370 410 386 389 q 331 450 354 431 l 331 263 q 371 280 356 264 q 386 322 386 296 m 181 731 q 195 705 181 721 q 233 669 210 689 l 233 818 q 195 799 210 815 q 181 758 181 783 l 181 731 z "},"%":{"ha":1047,"x_min":83,"x_max":964,"o":"m 349 689 q 337 642 349 661 q 310 622 325 622 l 240 622 q 213 642 225 622 q 201 689 201 661 l 201 896 q 213 943 201 924 q 240 963 225 963 l 310 963 q 337 943 325 963 q 349 896 349 924 l 349 689 m 467 896 q 454 968 467 935 q 421 1026 442 1001 q 372 1066 400 1051 q 310 1081 343 1081 l 240 1081 q 178 1066 207 1081 q 129 1026 150 1051 q 96 968 108 1001 q 83 896 83 935 l 83 689 q 96 617 83 651 q 129 558 108 583 q 178 519 150 533 q 240 504 207 504 l 310 504 q 372 519 343 504 q 421 558 400 533 q 454 617 442 583 q 467 689 467 651 l 467 896 m 417 0 l 292 0 l 642 1108 l 767 1108 l 417 0 m 846 172 q 834 125 846 144 q 807 106 822 106 l 738 106 q 710 125 722 106 q 699 172 699 144 l 699 379 q 710 426 699 407 q 738 446 722 446 l 807 446 q 834 426 822 446 q 846 379 846 407 l 846 172 m 964 379 q 951 451 964 418 q 918 510 939 485 q 869 549 897 535 q 807 564 840 564 l 738 564 q 676 549 704 564 q 626 510 647 535 q 593 451 606 485 q 581 379 581 418 l 581 172 q 593 101 581 135 q 626 42 606 67 q 676 2 647 17 q 738 -12 704 -12 l 807 -12 q 869 2 840 -12 q 918 42 897 17 q 951 101 939 67 q 964 172 964 135 l 964 379 z "},"&":{"ha":769,"x_min":69,"x_max":700,"o":"m 344 471 l 297 471 q 269 463 286 471 q 235 440 251 454 q 206 408 218 426 q 194 367 194 389 l 194 174 q 214 129 194 140 q 267 118 233 118 l 344 118 q 383 129 368 118 q 399 174 399 140 l 399 644 l 524 644 l 524 594 l 700 594 l 700 469 l 524 469 l 524 160 q 476 35 524 76 q 344 -7 428 -7 l 265 -7 q 126 35 182 -7 q 69 160 69 76 l 69 367 q 102 467 69 421 q 186 533 135 514 q 109 599 139 554 q 79 697 79 643 l 79 897 q 131 1023 79 981 q 267 1065 183 1065 l 344 1065 q 476 1023 428 1065 q 524 897 524 981 l 524 788 l 399 788 l 399 897 q 388 931 399 921 q 344 940 378 940 l 267 940 q 219 931 233 940 q 204 897 204 921 l 204 697 q 215 657 204 675 q 240 625 225 639 q 270 603 254 611 q 297 596 286 596 l 344 596 l 344 471 z "},"(":{"ha":465,"x_min":56,"x_max":410,"o":"m 410 1169 q 239 873 301 1035 q 176 528 176 711 q 239 183 176 344 q 410 -114 301 21 l 274 -114 q 115 169 174 14 q 56 528 56 325 q 115 887 56 731 q 274 1169 174 1043 l 410 1169 z "},"+":{"ha":597,"x_min":56,"x_max":542,"o":"m 56 421 l 56 557 l 229 557 l 229 715 l 367 715 l 367 557 l 542 557 l 542 421 l 367 421 l 367 229 l 229 229 l 229 421 l 56 421 z "},",":{"ha":342,"x_min":119,"x_max":244,"o":"m 244 -217 l 119 -217 l 119 215 l 244 215 l 244 -217 z "},"-":{"ha":444,"x_min":56,"x_max":389,"o":"m 56 426 l 56 550 l 389 550 l 389 426 l 56 426 z "},"/":{"ha":486,"x_min":-14,"x_max":500,"o":"m 97 -83 l -14 -83 l 389 1194 l 500 1194 l 97 -83 z "},":":{"ha":276,"x_min":69,"x_max":207,"o":"m 138 0 q 90 20 110 0 q 69 68 69 40 q 90 117 69 96 q 138 138 110 138 q 186 117 165 138 q 207 68 207 96 q 186 20 207 40 q 138 0 165 0 m 138 556 q 90 576 110 556 q 69 624 69 596 q 90 672 69 651 q 138 693 110 693 q 186 672 165 693 q 207 624 207 651 q 186 576 207 596 q 138 556 165 556 z "},"<":{"ha":483,"x_min":42,"x_max":414,"o":"m 301 913 l 403 868 l 178 576 l 414 274 l 314 228 l 42 576 l 301 913 z "},"=":{"ha":597,"x_min":56,"x_max":542,"o":"m 56 550 l 56 675 l 542 675 l 542 550 l 56 550 m 56 299 l 56 424 l 542 424 l 542 299 l 56 299 z "},"?":{"ha":594,"x_min":56,"x_max":539,"o":"m 189 271 l 189 525 q 240 665 189 617 q 378 714 290 714 q 403 734 393 714 q 414 778 414 754 l 414 935 q 398 978 414 963 q 354 994 382 994 l 240 994 q 197 978 213 994 q 181 935 181 963 l 181 790 l 56 790 l 56 935 q 70 1007 56 974 q 110 1065 85 1040 q 168 1105 135 1090 q 240 1119 201 1119 l 354 1119 q 426 1105 393 1119 q 485 1065 460 1090 q 524 1007 510 1040 q 539 935 539 974 l 539 778 q 529 718 539 751 q 500 656 519 685 q 450 608 481 628 q 378 589 419 589 q 355 587 367 589 q 334 578 343 585 q 319 560 325 572 q 314 525 314 547 l 314 271 l 189 271 m 314 0 l 189 0 l 189 147 l 314 147 l 314 0 z "},"@":{"ha":985,"x_min":56,"x_max":929,"o":"m 385 228 q 388 220 385 221 q 393 219 390 219 q 455 235 421 219 q 519 271 489 251 q 590 322 556 294 l 590 521 q 574 569 590 558 q 531 581 558 581 l 444 581 q 401 565 417 581 q 385 521 385 549 l 385 228 m 260 521 q 274 592 260 558 q 314 651 289 626 q 372 691 339 676 q 444 706 406 706 l 531 706 q 603 691 569 706 q 661 651 636 676 q 701 592 686 626 q 715 521 715 558 l 715 240 l 758 240 q 788 250 771 240 q 804 279 804 260 l 804 575 q 790 644 804 611 q 750 701 775 676 q 692 741 725 726 q 624 756 660 756 l 361 756 q 292 741 325 756 q 235 701 260 726 q 195 644 210 676 q 181 575 181 611 l 181 217 q 195 148 181 181 q 235 90 210 115 q 292 51 260 65 q 361 36 325 36 l 538 36 l 538 -89 l 361 -89 q 243 -65 299 -89 q 146 0 188 -42 q 80 97 104 42 q 56 217 56 153 l 56 575 q 79 694 56 639 q 144 792 103 750 q 242 857 186 833 q 361 881 297 881 l 624 881 q 742 857 686 881 q 839 792 797 833 q 905 694 881 750 q 929 575 929 639 l 929 279 q 916 216 929 246 q 881 164 903 186 q 828 128 858 142 q 764 115 797 115 l 590 115 l 590 194 q 519 144 556 167 q 455 110 489 125 q 393 94 421 94 q 299 133 338 94 q 260 228 260 172 l 260 521 z "},"A":{"ha":633,"x_min":14,"x_max":619,"o":"m 494 0 l 444 269 l 188 269 l 139 0 l 14 0 l 193 1072 q 213 1104 196 1089 q 253 1119 231 1119 l 376 1119 q 416 1105 399 1119 q 436 1072 433 1090 l 619 0 l 494 0 m 331 976 q 328 986 331 982 q 317 994 322 994 l 313 994 q 302 988 304 994 q 299 976 300 981 l 206 394 l 426 394 l 331 976 z "},"B":{"ha":650,"x_min":97,"x_max":581,"o":"m 456 414 q 440 474 456 442 q 396 518 424 506 l 222 518 l 222 125 l 413 125 q 444 136 433 125 q 456 167 456 147 l 456 414 m 397 643 q 435 687 425 656 q 444 742 444 718 l 444 944 q 434 974 444 961 q 404 988 424 988 l 222 988 l 222 643 l 397 643 m 404 1111 q 469 1098 439 1111 q 522 1062 499 1085 q 558 1009 544 1039 q 571 944 571 979 l 571 744 q 541 646 571 690 q 464 581 511 601 q 548 517 515 561 q 581 414 581 472 l 581 167 q 567 102 581 132 q 531 49 554 72 q 478 13 508 26 q 414 0 449 0 l 97 0 l 97 1111 l 404 1111 z "},"C":{"ha":629,"x_min":76,"x_max":560,"o":"m 435 406 l 560 406 l 560 186 q 544 108 560 144 q 502 45 529 72 q 438 2 475 18 q 360 -14 401 -14 l 276 -14 q 199 2 235 -14 q 135 45 163 18 q 92 108 108 72 q 76 186 76 144 l 76 919 q 92 998 76 961 q 135 1062 108 1035 q 199 1104 163 1089 q 276 1119 235 1119 l 360 1119 q 438 1104 401 1119 q 502 1062 475 1089 q 544 998 529 1035 q 560 919 560 961 l 560 744 l 435 744 l 435 919 q 414 974 435 953 q 360 994 393 994 l 276 994 q 222 974 243 994 q 201 919 201 953 l 201 186 q 222 132 201 153 q 276 111 243 111 l 360 111 q 402 117 388 111 q 423 132 417 122 q 431 156 429 142 q 432 186 432 169 l 432 406 l 435 406 z "},"D":{"ha":657,"x_min":97,"x_max":581,"o":"m 222 986 l 222 125 l 381 125 q 435 146 414 125 q 456 200 456 167 l 456 919 q 435 969 456 951 q 381 986 414 986 l 222 986 m 97 1111 l 381 1111 q 459 1097 422 1111 q 523 1057 496 1082 q 565 997 550 1032 q 581 919 581 961 l 581 200 q 565 122 581 158 q 523 59 550 86 q 459 16 496 32 q 381 0 422 0 l 97 0 l 97 1111 z "},"E":{"ha":525,"x_min":97,"x_max":497,"o":"m 222 986 l 222 675 l 460 675 l 460 550 l 222 550 l 222 125 l 497 125 l 497 0 l 97 0 l 97 1111 l 497 1111 l 497 986 l 222 986 z "},"F":{"ha":513,"x_min":97,"x_max":499,"o":"m 499 1111 l 499 972 l 222 972 l 222 675 l 460 675 l 460 550 l 222 550 l 222 0 l 97 0 l 97 1111 l 499 1111 z "},"G":{"ha":624,"x_min":76,"x_max":554,"o":"m 354 111 q 397 121 382 111 q 419 143 411 131 q 428 168 426 156 q 429 186 429 181 l 429 447 l 288 447 l 288 572 l 554 572 l 554 186 q 539 108 554 144 q 497 45 524 72 q 433 2 469 18 q 354 -14 396 -14 l 276 -14 q 199 2 235 -14 q 135 45 163 18 q 92 108 108 72 q 76 186 76 144 l 76 919 q 92 998 76 961 q 135 1062 108 1035 q 199 1104 163 1089 q 276 1119 235 1119 l 354 1119 q 433 1104 396 1119 q 497 1062 469 1089 q 539 998 524 1035 q 554 919 554 961 l 554 744 l 429 744 l 429 919 q 408 974 429 953 q 354 994 388 994 l 276 994 q 222 974 243 994 q 201 919 201 953 l 201 186 q 222 132 201 153 q 276 111 243 111 l 354 111 z "},"H":{"ha":674,"x_min":97,"x_max":576,"o":"m 576 1111 l 576 0 l 451 0 l 451 551 l 222 551 l 222 0 l 97 0 l 97 1111 l 222 1111 l 222 675 l 451 675 l 451 1111 l 576 1111 z "},"I":{"ha":333,"x_min":104,"x_max":229,"o":"m 229 0 l 104 0 l 104 1111 l 229 1111 l 229 0 z "},"J":{"ha":596,"x_min":42,"x_max":519,"o":"m 519 1111 l 519 186 q 504 108 519 144 q 462 45 489 72 q 398 2 435 18 q 319 -14 361 -14 l 242 -14 q 164 2 200 -14 q 101 45 128 18 q 58 108 74 72 q 42 186 42 144 l 42 406 l 167 406 l 167 186 q 188 132 167 153 q 242 111 208 111 l 319 111 q 374 132 353 111 q 394 186 394 153 l 394 1111 l 519 1111 z "},"K":{"ha":703,"x_min":97,"x_max":689,"o":"m 221 0 l 97 0 l 97 1111 l 221 1111 l 221 675 l 297 675 l 558 1111 l 689 1111 l 401 619 l 401 607 l 689 0 l 558 0 l 297 551 l 221 551 l 221 0 z "},"L":{"ha":469,"x_min":71,"x_max":469,"o":"m 194 125 l 469 125 l 469 0 l 71 0 l 71 1111 l 194 1111 l 194 125 z "},"M":{"ha":964,"x_min":83,"x_max":881,"o":"m 839 1111 l 881 0 l 756 0 l 715 986 l 701 986 l 544 14 l 419 14 l 264 986 l 250 986 l 208 0 l 83 0 l 126 1111 l 375 1111 l 482 306 l 592 1111 l 839 1111 z "},"N":{"ha":743,"x_min":97,"x_max":646,"o":"m 426 0 l 229 986 l 222 986 l 222 0 l 97 0 l 97 1111 l 319 1111 l 514 125 l 521 125 l 521 1111 l 646 1111 l 646 0 l 426 0 z "},"O":{"ha":636,"x_min":76,"x_max":560,"o":"m 435 919 q 414 974 435 953 q 360 994 393 994 l 276 994 q 222 974 243 994 q 201 919 201 953 l 201 186 q 222 132 201 153 q 276 111 243 111 l 360 111 q 414 132 393 111 q 435 186 435 153 l 435 919 m 560 186 q 544 108 560 144 q 502 45 529 72 q 438 2 475 18 q 360 -14 401 -14 l 276 -14 q 199 2 235 -14 q 135 45 163 18 q 92 108 108 72 q 76 186 76 144 l 76 919 q 92 998 76 961 q 135 1062 108 1035 q 199 1104 163 1089 q 276 1119 235 1119 l 360 1119 q 438 1104 401 1119 q 502 1062 475 1089 q 544 998 529 1035 q 560 919 560 961 l 560 186 z "},"P":{"ha":617,"x_min":97,"x_max":575,"o":"m 222 986 l 222 600 l 375 600 q 429 621 408 600 q 450 675 450 642 l 450 919 q 429 969 450 951 q 375 986 408 986 l 222 986 m 97 1111 l 375 1111 q 453 1097 417 1111 q 517 1057 490 1082 q 560 997 544 1032 q 575 919 575 961 l 575 675 q 560 597 575 633 q 517 534 544 561 q 453 491 490 507 q 375 475 417 475 l 222 475 l 222 0 l 97 0 l 97 1111 z "},"Q":{"ha":636,"x_min":76,"x_max":560,"o":"m 560 186 q 546 113 560 147 q 508 51 532 78 q 451 8 485 25 q 381 -12 418 -8 l 381 -208 l 256 -208 l 256 -12 q 185 8 218 -8 q 128 51 151 25 q 90 113 104 78 q 76 186 76 147 l 76 919 q 92 998 76 961 q 135 1062 108 1035 q 199 1104 163 1089 q 276 1119 235 1119 l 360 1119 q 438 1104 401 1119 q 502 1062 475 1089 q 544 998 529 1035 q 560 919 560 961 l 560 186 m 435 919 q 414 974 435 953 q 360 994 393 994 l 276 994 q 222 974 243 994 q 201 919 201 953 l 201 186 q 222 132 201 153 q 276 111 243 111 l 360 111 q 414 132 393 111 q 435 186 435 153 l 435 919 z "},"R":{"ha":636,"x_min":97,"x_max":581,"o":"m 456 0 l 456 414 q 440 481 456 457 q 396 518 424 506 l 222 518 l 222 0 l 97 0 l 97 1111 l 404 1111 q 469 1098 439 1111 q 522 1062 499 1085 q 558 1009 544 1039 q 571 944 571 979 l 571 744 q 541 646 571 690 q 464 581 511 601 q 548 517 515 561 q 581 414 581 472 l 581 0 l 456 0 m 397 643 q 435 679 425 656 q 444 742 444 703 l 444 944 q 431 976 444 964 q 399 988 418 988 l 222 988 l 222 643 l 397 643 z "},"S":{"ha":603,"x_min":63,"x_max":540,"o":"m 540 186 q 525 108 540 144 q 483 45 510 72 q 419 2 456 18 q 340 -14 382 -14 l 263 -14 q 185 2 221 -14 q 122 45 149 18 q 78 108 94 72 q 63 186 63 144 l 63 392 l 188 392 l 188 186 q 208 132 188 153 q 263 111 229 111 l 340 111 q 394 132 374 111 q 415 186 415 153 l 415 293 q 400 399 415 356 q 359 473 385 442 q 297 528 333 504 q 219 576 261 551 q 104 688 146 621 q 63 843 63 754 l 63 919 q 78 998 63 961 q 122 1062 94 1035 q 185 1104 149 1089 q 263 1119 221 1119 l 340 1119 q 419 1104 382 1119 q 483 1062 456 1089 q 525 998 510 1035 q 540 919 540 961 l 415 919 q 394 974 415 953 q 340 994 374 994 l 263 994 q 208 974 229 994 q 188 919 188 953 l 188 843 q 200 776 188 804 q 235 724 213 747 q 290 682 258 701 q 357 640 321 663 q 431 585 397 617 q 488 510 464 553 q 526 415 513 468 q 540 293 540 361 l 540 186 z "},"T":{"ha":514,"x_min":0,"x_max":514,"o":"m 319 986 l 319 0 l 194 0 l 194 986 l 0 986 l 0 1111 l 514 1111 l 514 986 l 319 986 z "},"U":{"ha":650,"x_min":83,"x_max":567,"o":"m 442 1111 l 567 1111 l 567 186 q 551 108 567 144 q 509 45 536 72 q 445 2 482 18 q 367 -14 408 -14 l 283 -14 q 206 2 242 -14 q 142 45 169 18 q 99 108 115 72 q 83 186 83 144 l 83 1111 l 208 1111 l 208 186 q 229 132 208 153 q 283 111 250 111 l 367 111 q 421 132 400 111 q 442 186 442 153 l 442 1111 z "},"V":{"ha":635,"x_min":14,"x_max":621,"o":"m 496 1111 l 621 1111 l 442 33 q 422 1 439 17 q 382 -14 404 -14 l 258 -14 q 219 1 236 -14 q 199 33 201 15 l 14 1111 l 142 1111 l 304 129 q 307 121 304 125 q 312 115 310 118 q 318 111 314 111 l 322 111 q 333 118 331 111 q 336 129 335 125 l 496 1111 z "},"W":{"ha":1053,"x_min":83,"x_max":969,"o":"m 969 1111 l 969 186 q 954 108 969 144 q 912 45 939 72 q 848 2 885 18 q 769 -14 811 -14 l 719 -14 q 597 27 649 -14 q 526 132 544 68 q 456 27 508 68 q 333 -14 404 -14 l 283 -14 q 206 2 242 -14 q 142 45 169 18 q 99 108 115 72 q 83 186 83 144 l 83 1111 l 208 1111 l 208 186 q 229 132 208 153 q 283 111 250 111 l 333 111 q 387 126 363 111 q 428 162 411 140 q 455 208 446 183 q 464 256 464 233 l 464 1111 l 589 1111 l 589 256 q 598 208 589 233 q 624 162 607 183 q 666 126 642 140 q 719 111 690 111 l 769 111 q 824 132 803 111 q 844 186 844 153 l 844 1111 l 969 1111 z "},"X":{"ha":611,"x_min":28,"x_max":583,"o":"m 406 1111 l 532 1111 l 368 632 l 583 0 l 457 0 l 306 499 l 154 0 l 28 0 l 242 632 l 81 1111 l 207 1111 l 306 765 l 406 1111 z "},"Y":{"ha":635,"x_min":14,"x_max":621,"o":"m 496 1111 l 621 1111 l 442 353 q 421 321 438 336 q 382 306 404 306 l 382 0 l 258 0 l 258 306 q 219 320 236 306 q 199 353 201 335 l 14 1111 l 142 1111 l 304 449 q 307 440 304 444 q 312 434 310 438 q 318 431 314 431 l 322 431 q 333 438 331 431 q 336 449 335 444 l 496 1111 z "},"Z":{"ha":556,"x_min":21,"x_max":535,"o":"m 21 0 l 369 986 l 21 986 l 21 1111 l 535 1111 l 188 125 l 535 125 l 535 0 l 21 0 z "},"[":{"ha":390,"x_min":83,"x_max":390,"o":"m 390 1208 l 390 1083 l 208 1083 l 208 28 l 390 28 l 390 -97 l 83 -97 l 83 1208 l 390 1208 z "},"\\":{"ha":415,"x_min":0,"x_max":415,"o":"m 415 0 l 290 0 l 0 1111 l 124 1111 l 415 0 z "},"]":{"ha":390,"x_min":0,"x_max":307,"o":"m 307 1208 l 307 -97 l 0 -97 l 0 28 l 182 28 l 182 1083 l 0 1083 l 0 1208 l 307 1208 z "},"_":{"ha":542,"x_min":0,"x_max":542,"o":"m 0 -143 l 0 -19 l 542 -19 l 542 -143 l 0 -143 z "},"`":{"ha":457,"x_min":42,"x_max":303,"o":"m 42 1063 l 163 1063 l 303 881 l 182 881 l 42 1063 z "},"a":{"ha":574,"x_min":42,"x_max":497,"o":"m 42 243 q 52 329 42 296 q 81 385 63 363 q 124 420 99 407 q 179 444 150 433 l 372 503 l 372 607 q 365 641 372 629 q 345 658 357 653 q 317 665 333 664 q 285 667 301 667 q 224 656 251 667 q 197 607 197 646 l 197 579 l 72 579 l 72 607 q 91 689 72 654 q 140 747 110 724 q 208 781 171 769 q 285 792 246 792 q 362 781 324 792 q 430 747 400 769 q 478 689 460 724 q 497 607 497 654 l 497 0 l 372 0 l 372 86 q 301 36 338 58 q 237 1 271 17 q 175 -14 203 -14 q 81 25 119 -14 q 42 119 42 64 l 42 243 m 167 175 q 172 129 167 146 q 185 113 176 113 q 226 128 196 113 q 289 163 257 143 q 372 211 326 185 l 372 385 l 208 333 q 173 294 179 321 q 167 222 167 268 l 167 175 z "},"b":{"ha":615,"x_min":83,"x_max":539,"o":"m 539 171 q 524 99 539 133 q 485 40 510 65 q 426 1 460 15 q 354 -14 393 -14 l 268 -14 q 196 1 229 -14 q 138 40 163 15 q 98 99 113 65 q 83 171 83 133 l 83 1063 l 208 1063 l 208 692 q 281 742 244 719 q 345 776 311 761 q 407 792 379 792 q 501 753 463 792 q 539 658 539 714 l 539 171 m 415 603 q 410 649 415 632 q 397 665 406 665 q 356 651 386 665 q 293 617 325 636 q 210 567 256 594 l 210 171 q 225 127 210 143 q 268 111 240 111 l 354 111 q 398 127 382 111 q 414 171 414 143 l 415 603 z "},"c":{"ha":560,"x_min":69,"x_max":525,"o":"m 400 271 l 525 271 l 525 171 q 510 99 525 133 q 471 40 496 65 q 413 1 446 15 q 340 -14 379 -14 l 254 -14 q 182 1 215 -14 q 124 40 149 15 q 84 99 99 65 q 69 171 69 133 l 69 607 q 84 679 69 646 q 124 738 99 713 q 182 777 149 763 q 254 792 215 792 l 340 792 q 413 777 379 792 q 471 738 446 763 q 510 679 496 713 q 525 607 525 646 l 525 503 l 400 503 l 400 607 q 384 651 400 635 q 340 667 368 667 l 254 667 q 210 651 226 667 q 194 607 194 635 l 194 171 q 210 127 194 143 q 254 111 226 111 l 340 111 q 384 127 368 111 q 400 171 400 143 l 400 271 z "},"d":{"ha":615,"x_min":76,"x_max":532,"o":"m 347 793 q 407 782 376 793 l 407 1061 l 532 1061 l 532 0 l 407 0 l 407 86 q 335 36 371 58 q 270 1 304 17 q 208 -14 236 -14 q 115 25 153 -14 q 76 119 76 64 l 76 608 q 91 680 76 646 q 131 739 106 714 q 189 778 156 764 q 261 793 222 793 l 347 793 m 261 668 q 217 652 233 668 q 201 608 201 636 l 201 175 q 206 129 201 146 q 219 113 211 113 q 261 128 231 113 q 324 163 292 143 q 407 211 361 185 l 407 607 q 391 651 407 635 q 347 667 375 667 l 261 668 z "},"e":{"ha":574,"x_min":69,"x_max":525,"o":"m 400 496 l 400 607 q 384 651 400 635 q 340 667 368 667 l 254 667 q 210 651 226 667 q 194 607 194 635 l 194 496 l 400 496 m 340 111 q 384 127 368 111 q 400 171 400 143 l 400 271 l 525 271 l 525 171 q 510 99 525 132 q 471 40 496 65 q 413 1 446 15 q 340 -14 379 -14 l 254 -14 q 182 1 215 -14 q 124 40 149 15 q 84 99 99 65 q 69 171 69 132 l 69 607 q 84 679 69 646 q 124 738 99 713 q 182 777 149 763 q 254 792 215 792 l 340 792 q 413 777 379 792 q 471 738 446 763 q 510 679 496 713 q 525 607 525 646 l 525 371 l 194 371 l 194 171 q 210 127 194 143 q 254 111 226 111 l 340 111 z "},"f":{"ha":361,"x_min":7,"x_max":361,"o":"m 361 938 l 278 938 q 233 922 250 938 q 217 878 217 906 l 217 783 l 336 783 l 336 660 l 217 660 l 217 -31 q 202 -102 217 -68 q 163 -161 188 -136 q 103 -201 138 -186 q 29 -215 69 -215 l 29 -90 q 74 -74 57 -90 q 90 -31 90 -58 l 90 660 l 7 660 l 7 783 l 90 783 l 90 878 q 105 949 90 915 q 144 1008 119 983 q 203 1048 169 1033 q 275 1063 236 1063 l 361 1063 l 361 938 z "},"g":{"ha":594,"x_min":69,"x_max":525,"o":"m 194 196 q 203 188 194 188 q 265 206 231 188 q 329 246 299 224 q 400 303 365 271 l 400 608 q 384 652 400 636 q 340 668 368 668 l 254 668 q 210 652 226 668 q 194 608 194 636 l 194 196 m 401 168 q 329 115 365 139 q 265 79 299 96 q 203 63 231 63 q 108 101 147 63 q 69 196 69 140 l 69 608 q 84 680 69 646 q 124 739 99 714 q 182 778 149 764 q 254 793 215 793 l 340 793 q 413 778 379 793 q 471 739 446 764 q 510 680 496 714 q 525 608 525 646 l 525 -47 q 511 -119 525 -86 q 472 -177 497 -153 q 414 -215 447 -201 q 342 -229 381 -229 l 256 -229 q 183 -215 217 -229 q 125 -175 150 -200 q 85 -117 100 -150 q 71 -44 71 -83 l 71 -14 l 196 -14 l 196 -44 q 212 -88 196 -72 q 256 -104 228 -104 l 342 -104 q 385 -88 369 -104 q 401 -44 401 -72 l 401 168 z "},"h":{"ha":615,"x_min":83,"x_max":539,"o":"m 414 601 q 409 647 414 631 q 396 664 404 664 q 354 649 385 664 q 292 615 324 635 q 208 565 254 593 l 208 0 l 83 0 l 83 1063 l 208 1063 l 208 692 q 279 742 243 719 q 344 776 310 761 q 406 790 378 790 q 500 751 461 790 q 539 657 539 713 l 539 0 l 414 0 l 414 601 z "},"i":{"ha":382,"x_min":90,"x_max":361,"o":"m 361 -14 l 275 -14 q 203 1 236 -14 q 144 40 169 15 q 105 99 119 65 q 90 171 90 133 l 90 778 l 217 778 l 217 171 q 233 127 217 143 q 278 111 250 111 l 361 111 l 361 -14 m 215 915 l 90 915 l 90 1063 l 215 1063 l 215 915 z "},"j":{"ha":363,"x_min":0,"x_max":271,"o":"m 271 915 l 144 915 l 144 1063 l 271 1063 l 271 915 m 0 -217 l 86 -217 q 158 -202 125 -217 q 217 -162 192 -187 q 256 -103 242 -137 q 271 -32 271 -69 l 271 778 l 144 778 l 144 -32 q 128 -76 144 -60 q 83 -92 111 -92 l 0 -92 l 0 -217 z "},"k":{"ha":586,"x_min":83,"x_max":621,"o":"m 207 0 l 83 0 l 83 1063 l 207 1063 l 207 481 l 242 481 l 419 778 l 558 778 l 353 425 l 353 413 l 621 0 l 475 0 l 242 357 l 207 357 l 207 0 z "},"l":{"ha":382,"x_min":90,"x_max":361,"o":"m 361 -14 l 275 -14 q 203 1 236 -14 q 144 40 169 15 q 105 99 119 65 q 90 171 90 133 l 90 1061 l 217 1061 l 217 171 q 233 127 217 143 q 278 111 250 111 l 361 111 l 361 -14 z "},"m":{"ha":944,"x_min":83,"x_max":868,"o":"m 538 692 q 608 742 572 719 q 673 776 639 761 q 735 792 707 792 q 787 781 763 792 q 829 752 811 771 q 858 709 847 733 q 868 657 868 685 l 868 0 l 744 0 l 744 601 q 725 658 744 658 q 683 644 714 658 q 621 613 653 631 q 538 565 583 592 l 538 0 l 414 0 l 414 596 q 409 642 414 625 q 396 658 404 658 q 354 644 385 658 q 292 610 324 629 q 208 560 254 588 l 208 0 l 83 0 l 83 778 l 208 778 l 208 686 q 279 739 243 715 q 344 775 310 758 q 406 792 378 792 q 485 761 450 792 q 533 689 521 731 l 538 692 z "},"n":{"ha":615,"x_min":83,"x_max":539,"o":"m 414 601 q 409 647 414 631 q 396 664 404 664 q 354 649 385 664 q 292 615 324 635 q 208 565 254 593 l 208 0 l 83 0 l 83 778 l 208 778 l 208 692 q 279 742 243 719 q 344 776 310 761 q 406 792 378 792 q 458 781 433 792 q 500 752 482 771 q 528 709 518 733 q 539 657 539 685 l 539 0 l 414 0 l 414 601 z "},"o":{"ha":594,"x_min":69,"x_max":525,"o":"m 400 171 l 400 607 q 384 651 400 635 q 340 667 368 667 l 254 667 q 210 651 226 667 q 194 607 194 635 l 194 171 q 210 127 194 143 q 254 111 226 111 l 340 111 q 384 121 368 111 q 400 171 400 131 m 525 171 q 510 99 525 133 q 471 40 496 65 q 413 1 446 15 q 340 -14 379 -14 l 254 -14 q 182 1 215 -14 q 124 40 149 15 q 84 99 99 65 q 69 171 69 133 l 69 607 q 84 679 69 646 q 124 738 99 713 q 182 777 149 763 q 254 792 215 792 l 340 792 q 413 777 379 792 q 471 738 446 763 q 510 679 496 713 q 525 607 525 646 l 525 171 z "},"p":{"ha":608,"x_min":76,"x_max":532,"o":"m 76 -214 l 76 778 l 201 778 l 201 693 q 272 743 236 721 q 337 777 303 763 q 399 792 371 792 q 493 753 454 792 q 532 658 532 714 l 532 171 q 517 99 532 133 q 478 40 503 65 q 419 1 453 15 q 347 -14 386 -14 l 261 -14 q 201 -3 231 -14 l 201 -214 l 76 -214 m 347 111 q 391 127 375 111 q 407 171 407 143 l 407 603 q 402 649 407 632 q 389 665 397 665 q 347 651 378 665 q 285 617 317 636 q 201 567 247 594 l 201 171 q 217 127 201 143 q 261 111 233 111 l 347 111 z "},"q":{"ha":601,"x_min":69,"x_max":525,"o":"m 194 121 q 203 113 194 113 q 265 131 231 113 q 329 171 299 149 q 400 228 365 196 l 400 608 q 384 652 400 636 q 340 668 368 668 l 254 668 q 210 652 226 668 q 194 608 194 636 l 194 121 m 525 -214 l 400 -214 l 400 88 q 329 38 365 60 q 265 3 299 18 q 203 -12 231 -12 q 108 26 147 -12 q 69 121 69 65 l 69 608 q 84 680 69 646 q 124 739 99 714 q 182 778 149 764 q 254 793 215 793 l 340 793 q 413 778 379 793 q 471 739 446 764 q 510 680 496 714 q 525 608 525 646 l 525 -214 z "},"r":{"ha":560,"x_min":83,"x_max":539,"o":"m 414 601 q 409 647 414 631 q 396 664 404 664 q 354 649 385 664 q 292 615 324 635 q 208 565 254 593 l 208 0 l 83 0 l 83 778 l 208 778 l 208 692 q 279 742 243 719 q 344 776 310 761 q 406 790 378 790 q 500 751 461 790 q 539 657 539 713 l 539 518 l 414 518 l 414 601 z "},"s":{"ha":567,"x_min":56,"x_max":511,"o":"m 181 579 q 205 545 181 568 q 258 499 229 522 q 335 442 293 472 q 424 371 385 408 q 484 299 457 339 q 511 218 511 258 l 511 171 q 497 99 511 133 q 457 40 482 65 q 399 1 432 15 q 326 -14 365 -14 l 240 -14 q 168 1 201 -14 q 110 40 135 15 q 70 99 85 65 q 56 171 56 133 l 56 294 l 181 294 l 181 171 q 197 127 181 143 q 240 111 213 111 l 326 111 q 370 127 354 111 q 386 171 386 143 l 386 218 q 363 267 386 242 q 313 314 340 293 q 239 361 279 339 q 147 429 188 393 q 84 499 113 460 q 56 579 56 538 l 56 607 q 70 679 56 646 q 110 738 85 713 q 168 777 135 763 q 240 792 201 792 l 326 792 q 399 777 365 792 q 457 738 432 763 q 497 679 482 713 q 511 607 511 646 l 511 579 l 386 579 l 386 607 q 370 651 386 635 q 326 667 354 667 l 240 667 q 197 651 213 667 q 181 607 181 635 l 181 579 z "},"t":{"ha":413,"x_min":0,"x_max":413,"o":"m 382 -14 l 296 -14 q 224 1 257 -14 q 165 40 190 15 q 126 99 140 65 q 111 171 111 133 l 111 654 l 0 654 l 0 778 l 111 778 l 111 978 l 238 978 l 238 778 l 413 778 l 413 654 l 238 654 l 238 171 q 254 127 238 143 q 299 111 271 111 l 378 111 l 382 -14 z "},"u":{"ha":615,"x_min":76,"x_max":532,"o":"m 532 778 l 532 0 l 407 0 l 407 86 q 336 36 372 58 q 272 1 306 17 q 210 -14 238 -14 q 115 25 154 -14 q 76 119 76 64 l 76 778 l 201 778 l 201 175 q 206 129 201 146 q 219 113 211 113 q 261 128 231 113 q 324 163 292 143 q 407 211 361 185 l 407 778 l 532 778 z "},"v":{"ha":535,"x_min":21,"x_max":514,"o":"m 389 776 l 514 776 l 390 33 q 370 1 388 17 q 331 -14 353 -14 l 207 -14 q 167 1 185 -14 q 147 33 150 15 l 21 776 l 149 776 l 253 129 q 256 121 253 125 q 260 115 258 118 q 267 111 263 111 l 271 111 q 281 118 279 111 q 285 129 283 125 l 389 776 z "},"w":{"ha":967,"x_min":76,"x_max":890,"o":"m 890 778 l 890 186 q 877 108 890 144 q 840 45 864 72 q 781 2 815 18 q 706 -14 747 -14 l 661 -14 q 550 22 599 -14 q 483 122 501 58 q 417 22 465 58 q 306 -14 368 -14 l 261 -14 q 185 2 219 -14 q 127 45 151 18 q 90 108 103 72 q 76 186 76 144 l 76 778 l 201 778 l 201 186 q 215 132 201 153 q 261 111 228 111 l 306 111 q 388 148 356 111 q 421 256 421 185 l 421 778 l 546 778 l 546 256 q 578 148 546 185 q 661 111 611 111 l 706 111 q 752 132 739 111 q 765 186 765 153 l 765 778 l 890 778 z "},"x":{"ha":526,"x_min":14,"x_max":513,"o":"m 501 778 l 331 410 l 513 0 l 388 0 l 268 285 l 139 0 l 14 0 l 206 410 l 46 778 l 171 778 l 268 533 l 376 778 l 501 778 z "},"y":{"ha":521,"x_min":14,"x_max":507,"o":"m 382 776 l 507 776 l 342 -217 l 222 -217 l 254 -14 l 200 -14 q 160 1 178 -14 q 140 33 143 15 l 14 776 l 142 776 l 246 129 q 249 121 246 125 q 253 115 251 118 q 260 111 256 111 l 264 111 q 274 118 272 111 q 278 129 276 125 l 382 776 z "},"z":{"ha":519,"x_min":35,"x_max":485,"o":"m 485 0 l 35 0 l 35 125 l 356 658 l 38 658 l 38 783 l 481 783 l 481 658 l 158 124 l 485 124 l 485 0 z "},"{":{"ha":346,"x_min":28,"x_max":290,"o":"m 290 1069 q 269 1056 278 1067 q 261 1010 261 1046 l 261 749 q 254 663 261 697 q 234 607 247 628 q 201 577 221 586 q 153 567 181 568 l 153 544 q 201 535 181 543 q 235 506 222 526 q 255 450 249 485 q 261 363 261 415 l 261 101 q 269 53 261 63 q 290 42 278 44 l 290 -83 q 234 -68 261 -81 q 185 -33 207 -56 q 149 22 163 -11 q 136 101 136 56 l 136 363 q 128 436 136 408 q 105 478 119 464 q 70 498 90 493 q 28 503 50 503 l 28 608 q 70 613 50 608 q 105 633 90 618 q 128 675 119 647 q 136 749 136 703 l 136 1010 q 149 1089 136 1056 q 185 1144 163 1122 q 234 1179 207 1167 q 290 1194 261 1192 l 290 1069 z "},"|":{"ha":292,"x_min":83,"x_max":208,"o":"m 208 -69 l 83 -69 l 83 1181 l 208 1181 l 208 -69 z "},"†":{"ha":440,"x_min":-14,"x_max":472,"o":"m -14 788 l -14 911 l 167 911 l 167 1104 l 290 1104 l 290 911 l 472 911 l 472 788 l 290 788 l 290 7 l 167 7 l 167 788 l -14 788 z "},"°":{"ha":447,"x_min":56,"x_max":392,"o":"m 294 892 q 277 934 294 917 q 235 951 260 951 l 213 951 q 170 934 188 951 q 153 892 153 917 l 153 858 q 170 816 153 833 q 213 799 188 799 l 235 799 q 277 816 260 799 q 294 858 294 833 l 294 892 m 392 858 q 379 798 392 826 q 345 748 367 769 q 295 714 324 726 q 235 701 267 701 l 213 701 q 152 714 181 701 q 102 748 124 726 q 68 798 81 769 q 56 858 56 826 l 56 892 q 68 952 56 924 q 102 1002 81 981 q 152 1036 124 1024 q 213 1049 181 1049 l 235 1049 q 295 1036 267 1049 q 345 1002 324 1024 q 379 952 367 981 q 392 892 392 924 l 392 858 z "},"¢":{"ha":560,"x_min":69,"x_max":525,"o":"m 358 0 l 233 0 l 233 136 q 169 156 199 140 q 117 196 139 171 q 82 253 94 221 q 69 319 69 285 l 69 756 q 82 823 69 792 q 117 878 94 854 q 169 919 139 903 q 233 939 199 935 l 233 1063 l 358 1063 l 358 939 q 424 920 394 936 q 477 880 454 904 q 513 824 500 856 q 525 756 525 792 l 525 651 l 400 651 l 400 756 q 389 793 400 778 q 358 813 378 808 l 358 261 q 389 281 378 267 q 400 319 400 296 l 400 419 l 525 419 l 525 319 q 513 251 525 283 q 477 194 500 219 q 424 154 454 169 q 358 135 394 139 l 358 0 m 194 756 l 194 319 q 233 263 194 274 l 233 813 q 194 756 194 800 z "},"£":{"ha":681,"x_min":21,"x_max":625,"o":"m 21 125 l 215 125 q 162 173 182 142 q 142 244 142 204 l 142 501 l 21 501 l 21 626 l 142 626 l 142 878 q 158 956 142 919 q 201 1020 174 993 q 264 1063 228 1047 q 342 1078 300 1078 l 419 1078 q 498 1063 461 1078 q 562 1020 535 1047 q 604 956 589 993 q 619 878 619 919 l 619 744 l 494 744 l 494 878 q 474 932 494 911 q 419 953 453 953 l 342 953 q 288 932 308 953 q 267 878 267 911 l 267 626 l 389 626 l 389 501 l 267 501 l 267 244 q 278 207 267 225 q 305 174 289 189 q 340 146 321 158 q 376 125 360 133 l 625 125 l 625 0 l 21 0 l 21 125 z "},"§":{"ha":567,"x_min":56,"x_max":511,"o":"m 56 793 l 56 821 q 70 893 56 860 q 110 951 85 926 q 168 991 135 976 q 240 1006 201 1006 l 326 1006 q 399 991 365 1006 q 457 951 432 976 q 497 893 482 926 q 511 821 511 860 l 511 793 l 386 793 l 386 821 q 370 865 386 849 q 326 881 354 881 l 240 881 q 197 865 213 881 q 181 821 181 849 l 181 793 q 205 759 181 782 q 258 713 229 736 q 335 656 293 686 q 424 585 385 622 q 484 513 457 553 q 511 432 511 472 l 511 385 q 504 336 511 360 q 486 293 497 313 q 511 218 511 253 l 511 171 q 497 99 511 133 q 457 40 482 65 q 399 1 432 15 q 326 -14 365 -14 l 240 -14 q 168 1 201 -14 q 110 40 135 15 q 70 99 85 65 q 56 171 56 133 l 56 294 l 181 294 l 181 171 q 197 127 181 143 q 240 111 213 111 l 326 111 q 370 127 354 111 q 386 171 386 143 l 386 218 q 363 267 386 242 q 313 314 340 293 q 239 361 279 339 q 147 429 188 393 q 84 499 113 460 q 56 579 56 538 l 56 607 q 86 708 56 663 q 64 749 72 728 q 56 793 56 771 m 386 432 q 363 481 386 456 q 313 528 340 507 q 239 575 279 553 q 222 585 232 579 q 181 614 206 596 l 181 607 l 181 579 q 205 545 181 568 q 258 499 229 522 q 335 442 293 472 q 350 431 342 436 q 366 419 357 425 q 386 403 375 413 l 386 432 z "},"•":{"ha":381,"x_min":90,"x_max":304,"o":"m 304 374 q 273 298 304 329 q 197 267 242 267 q 122 298 153 267 q 90 374 90 329 q 122 449 90 418 q 197 481 153 481 q 273 449 242 481 q 304 374 304 418 z "},"¶":{"ha":778,"x_min":56,"x_max":674,"o":"m 56 490 l 56 926 q 70 999 56 965 q 110 1057 85 1032 q 168 1097 135 1082 q 240 1111 201 1111 l 674 1111 l 674 -208 l 549 -208 l 549 988 l 451 988 l 451 -208 l 326 -208 l 326 306 l 240 306 q 168 320 201 306 q 110 360 135 335 q 70 419 85 385 q 56 490 56 453 m 326 988 l 240 988 q 197 971 213 988 q 181 926 181 954 l 181 490 q 197 447 181 463 q 240 431 213 431 l 326 431 l 326 988 z "},"ß":{"ha":682,"x_min":7,"x_max":606,"o":"m 278 -32 q 263 -103 278 -69 q 224 -162 249 -137 q 165 -202 199 -187 q 93 -217 132 -217 l 7 -217 l 7 -92 l 90 -92 q 135 -76 118 -92 q 151 -32 151 -60 l 151 907 q 199 1033 151 990 q 331 1075 247 1075 l 408 1075 q 544 1033 492 1075 q 596 907 596 990 l 596 746 q 566 647 596 692 q 489 582 536 603 q 573 516 540 563 q 606 415 606 469 l 606 153 q 549 28 606 69 q 410 -14 493 -14 l 303 -14 l 303 111 l 408 111 q 461 120 442 111 q 481 153 481 129 l 481 415 q 471 450 481 432 q 447 484 461 468 q 418 510 433 500 q 392 519 403 519 l 303 519 l 303 644 l 392 644 q 417 654 403 644 q 442 678 431 664 q 463 711 454 693 q 471 746 471 729 l 471 907 q 456 940 471 931 q 408 950 442 950 l 331 950 q 287 940 297 950 q 276 907 276 931 l 278 -32 z "},"®":{"ha":681,"x_min":94,"x_max":583,"o":"m 583 576 q 567 498 583 535 q 524 434 551 461 q 458 391 496 407 q 378 375 421 375 l 300 375 q 219 391 257 375 q 154 434 182 407 q 110 498 126 461 q 94 576 94 535 l 94 899 q 110 977 94 940 q 154 1041 126 1014 q 219 1084 182 1068 q 300 1100 257 1100 l 378 1100 q 458 1084 421 1100 q 524 1041 496 1068 q 567 977 551 1014 q 583 899 583 940 l 583 576 m 486 899 q 475 944 486 925 q 448 977 464 964 q 413 997 432 990 q 378 1003 394 1003 l 300 1003 q 265 997 283 1003 q 230 977 246 990 q 203 944 214 964 q 192 899 192 925 l 192 576 q 203 531 192 550 q 230 498 214 511 q 265 478 246 485 q 300 472 283 472 l 378 472 q 413 478 394 472 q 448 498 432 485 q 475 531 464 511 q 486 576 486 550 l 486 899 m 349 803 q 365 808 360 803 q 369 819 369 813 l 369 858 q 365 871 369 865 q 349 876 360 876 l 314 876 l 314 803 l 349 803 m 224 522 l 224 967 l 386 967 q 438 947 414 967 q 461 900 461 928 l 461 819 q 449 781 461 799 q 418 754 438 763 q 451 729 438 747 q 464 688 464 711 l 464 522 l 374 522 l 374 688 q 363 701 374 696 q 349 706 353 706 l 314 706 l 314 522 l 224 522 z "},"©":{"ha":789,"x_min":83,"x_max":706,"o":"m 706 208 q 685 122 706 163 q 628 51 664 81 q 543 3 592 21 q 438 -14 494 -14 l 351 -14 q 247 3 296 -14 q 161 51 197 21 q 104 122 125 81 q 83 208 83 163 l 83 567 q 104 653 83 613 q 161 724 125 694 q 247 772 197 754 q 351 789 296 789 l 438 789 q 543 772 494 789 q 628 724 592 754 q 685 653 664 694 q 706 567 706 613 l 706 208 m 608 567 q 594 620 608 597 q 558 659 581 643 q 503 683 535 675 q 438 692 472 692 l 351 692 q 226 654 271 692 q 181 567 181 617 l 181 208 q 226 121 181 158 q 351 83 271 83 l 438 83 q 563 121 518 83 q 608 208 608 158 l 608 567 m 469 283 l 469 250 q 457 219 469 231 q 425 208 444 208 l 365 208 q 333 219 346 208 q 319 250 319 231 l 319 525 q 333 556 319 544 q 365 567 346 567 l 424 567 q 456 556 443 567 q 469 525 469 544 l 469 489 l 581 489 l 581 567 q 540 636 581 608 q 438 664 500 664 l 351 664 q 249 636 289 664 q 208 567 208 608 l 208 208 q 249 139 208 167 q 351 111 289 111 l 438 111 q 540 139 500 111 q 581 208 581 167 l 581 283 l 469 283 z "},"™":{"ha":838,"x_min":63,"x_max":775,"o":"m 222 1049 l 222 550 l 160 550 l 160 1049 l 63 1049 l 63 1111 l 319 1111 l 319 1049 l 222 1049 m 754 1111 l 775 550 l 711 550 l 692 1049 l 683 1049 l 604 560 l 543 560 l 464 1049 l 456 1049 l 436 550 l 372 550 l 396 1111 l 519 1111 l 574 703 l 628 1111 l 754 1111 z "},"´":{"ha":457,"x_min":181,"x_max":442,"o":"m 301 881 l 181 881 l 321 1063 l 442 1063 l 301 881 z "},"¨":{"ha":389,"x_min":51,"x_max":340,"o":"m 115 853 q 70 872 89 853 q 51 917 51 890 q 70 964 51 944 q 115 983 89 983 q 163 964 143 983 q 182 917 182 944 q 163 872 182 890 q 115 853 143 853 m 276 853 q 230 872 249 853 q 211 917 211 890 q 230 964 211 944 q 276 983 249 983 q 322 964 303 983 q 340 917 340 944 q 322 872 340 890 q 276 853 303 853 z "},"Æ":{"ha":874,"x_min":14,"x_max":846,"o":"m 571 986 l 571 675 l 808 675 l 808 550 l 571 550 l 571 125 l 846 125 l 846 0 l 446 0 l 446 269 l 188 269 l 139 0 l 14 0 l 193 1072 q 213 1104 196 1089 q 253 1119 231 1119 l 846 1119 l 846 986 l 571 986 m 206 394 l 446 394 l 446 994 l 313 994 q 302 988 304 994 q 299 976 300 981 l 206 394 z "},"¥":{"ha":635,"x_min":14,"x_max":621,"o":"m 496 1064 l 621 1064 l 442 431 q 422 399 439 414 q 382 383 404 383 l 382 340 l 542 340 l 542 243 l 382 243 l 382 193 l 542 193 l 542 96 l 382 96 l 382 0 l 258 0 l 258 96 l 90 96 l 90 193 l 258 193 l 258 243 l 90 243 l 90 340 l 258 340 l 258 383 q 219 398 236 383 q 199 431 201 413 l 14 1063 l 142 1063 l 304 526 q 307 518 304 522 q 312 512 310 515 q 318 508 314 508 l 322 508 q 333 515 331 508 q 336 526 335 522 l 496 1064 z "},"ª":{"ha":421,"x_min":49,"x_max":372,"o":"m 275 964 q 261 987 275 982 q 219 992 247 992 q 178 987 192 992 q 164 964 164 982 l 164 947 l 81 947 l 81 964 q 92 1014 81 993 q 122 1048 103 1035 q 166 1068 140 1061 q 219 1075 192 1075 q 317 1048 276 1075 q 358 964 358 1021 l 358 600 l 275 600 l 275 642 q 224 617 249 628 q 181 599 203 607 q 143 592 158 592 q 86 615 110 592 q 63 672 63 639 l 63 754 q 69 799 63 782 q 85 828 75 817 q 110 847 96 839 q 143 861 125 854 l 275 894 l 275 964 m 146 700 q 148 688 146 694 q 165 681 150 681 q 190 688 172 681 q 228 706 208 696 q 275 731 250 717 l 275 810 l 164 782 q 149 769 151 778 q 146 754 146 761 l 146 700 m 49 438 l 49 533 l 372 533 l 372 438 l 49 438 z "},"º":{"ha":450,"x_min":63,"x_max":388,"o":"m 275 957 q 267 972 275 967 q 256 978 260 978 l 194 978 q 182 972 190 978 q 174 957 174 965 l 174 710 q 182 694 174 700 q 194 689 190 689 l 254 689 q 267 694 258 689 q 275 710 275 700 l 275 957 m 372 703 q 340 624 372 657 q 261 592 307 592 l 188 592 q 108 624 140 592 q 76 703 76 657 l 76 964 q 108 1043 76 1011 q 188 1075 140 1075 l 261 1075 q 340 1043 307 1075 q 372 964 372 1011 l 372 703 m 63 438 l 63 533 l 388 533 l 388 438 l 63 438 z "},"æ":{"ha":876,"x_min":42,"x_max":828,"o":"m 643 111 q 687 127 671 111 q 703 171 703 143 l 703 271 l 828 271 l 828 171 q 813 99 828 132 q 774 40 799 65 q 715 1 749 15 q 643 -14 682 -14 l 557 -14 q 453 17 499 -14 q 388 97 408 49 l 372 86 q 301 36 338 58 q 237 1 271 17 q 175 -14 203 -14 q 81 25 119 -14 q 42 119 42 64 l 42 243 q 52 329 42 296 q 81 385 63 363 q 124 420 99 407 q 179 444 150 433 l 372 503 l 372 614 q 363 644 371 633 q 342 660 354 654 q 315 666 331 665 q 285 667 300 667 q 224 656 251 667 q 197 607 197 646 l 197 579 l 72 579 l 72 607 q 91 689 72 654 q 140 747 110 724 q 208 781 171 769 q 285 792 246 792 q 363 780 325 792 q 432 744 401 768 q 489 779 457 767 q 557 792 521 792 l 643 792 q 715 777 682 792 q 774 738 749 763 q 813 679 799 713 q 828 607 828 646 l 828 371 l 497 371 l 497 165 q 514 126 497 140 q 557 111 531 111 l 643 111 m 167 175 q 172 129 167 146 q 185 113 176 113 q 226 128 196 113 q 289 163 257 143 q 372 211 326 185 l 372 385 l 208 333 q 173 294 179 321 q 167 222 167 268 l 167 175 m 703 496 l 703 607 q 687 651 703 635 q 643 667 671 667 l 557 667 q 514 652 531 667 q 497 613 497 638 l 497 496 l 703 496 z "},"ø":{"ha":621,"x_min":69,"x_max":551,"o":"m 181 -39 l 69 -39 l 119 81 q 96 171 96 121 l 96 607 q 110 679 96 646 q 150 738 125 713 q 208 777 175 763 q 281 792 242 792 l 367 792 q 414 786 393 792 l 426 817 l 538 817 l 503 732 q 539 676 526 708 q 551 607 551 643 l 551 171 q 537 99 551 133 q 497 40 522 65 q 439 1 472 15 q 367 -14 406 -14 l 281 -14 q 199 4 238 -14 l 181 -39 m 426 171 l 426 550 l 246 119 q 281 111 261 111 l 367 111 q 410 121 394 111 q 426 171 426 131 m 221 607 l 221 324 l 364 667 l 281 667 q 237 651 253 667 q 221 607 221 635 z "},"¿":{"ha":594,"x_min":56,"x_max":539,"o":"m 281 618 l 281 364 q 260 310 281 321 q 217 300 240 300 q 144 281 175 300 q 94 233 114 261 q 65 172 75 204 q 56 111 56 139 l 56 -46 q 70 -118 56 -85 q 110 -176 85 -151 q 168 -216 135 -201 q 240 -231 201 -231 l 354 -231 q 426 -216 393 -231 q 485 -176 460 -201 q 524 -118 510 -151 q 539 -46 539 -85 l 539 99 l 414 99 l 414 -46 q 398 -90 414 -74 q 354 -106 382 -106 l 240 -106 q 197 -90 213 -106 q 181 -46 181 -74 l 181 111 q 191 155 181 135 q 217 175 201 175 q 355 224 304 175 q 406 364 406 272 l 406 618 l 281 618 m 281 889 l 406 889 l 406 742 l 281 742 l 281 889 z "},"¡":{"ha":433,"x_min":153,"x_max":278,"o":"m 153 889 l 278 889 l 278 742 l 153 742 l 153 889 m 153 603 l 278 603 l 278 -217 l 153 -217 l 153 603 z "},"¬":{"ha":639,"x_min":56,"x_max":583,"o":"m 56 399 l 56 522 l 583 522 l 583 243 l 460 243 l 460 399 l 56 399 z "},"»":{"ha":756,"x_min":69,"x_max":714,"o":"m 333 489 l 435 536 l 714 332 l 435 128 l 333 175 l 553 332 l 333 489 m 69 489 l 171 536 l 450 332 l 171 128 l 69 175 l 289 332 l 69 489 z "},"À":{"ha":633,"x_min":14,"x_max":619,"o":"m 494 0 l 444 269 l 188 269 l 139 0 l 14 0 l 193 1072 q 213 1104 196 1089 q 253 1119 231 1119 l 376 1119 q 416 1105 399 1119 q 436 1072 433 1090 l 619 0 l 494 0 m 331 976 q 328 986 331 982 q 317 994 322 994 l 313 994 q 302 988 304 994 q 299 976 300 981 l 206 394 l 426 394 l 331 976 m 125 1340 l 246 1340 l 386 1158 l 265 1158 l 125 1340 z "},"Ã":{"ha":633,"x_min":14,"x_max":619,"o":"m 494 0 l 444 269 l 188 269 l 139 0 l 14 0 l 193 1072 q 213 1104 196 1089 q 253 1119 231 1119 l 376 1119 q 416 1105 399 1119 q 436 1072 433 1090 l 619 0 l 494 0 m 331 976 q 328 986 331 982 q 317 994 322 994 l 313 994 q 302 988 304 994 q 299 976 300 981 l 206 394 l 426 394 l 331 976 m 132 1271 q 165 1299 143 1283 q 218 1314 186 1314 q 267 1306 243 1314 q 315 1290 292 1299 q 361 1273 338 1281 q 408 1265 385 1265 q 453 1277 436 1265 q 486 1304 471 1289 l 493 1199 q 461 1170 482 1186 q 408 1154 440 1154 q 359 1162 383 1154 q 312 1178 335 1169 q 265 1195 289 1188 q 218 1203 242 1203 q 172 1192 190 1203 q 139 1165 154 1181 l 132 1271 z "},"Õ":{"ha":636,"x_min":76,"x_max":560,"o":"m 435 919 q 414 974 435 953 q 360 994 393 994 l 276 994 q 222 974 243 994 q 201 919 201 953 l 201 186 q 222 132 201 153 q 276 111 243 111 l 360 111 q 414 132 393 111 q 435 186 435 153 l 435 919 m 560 186 q 544 108 560 144 q 502 45 529 72 q 438 2 475 18 q 360 -14 401 -14 l 276 -14 q 199 2 235 -14 q 135 45 163 18 q 92 108 108 72 q 76 186 76 144 l 76 919 q 92 998 76 961 q 135 1062 108 1035 q 199 1104 163 1089 q 276 1119 235 1119 l 360 1119 q 438 1104 401 1119 q 502 1062 475 1089 q 544 998 529 1035 q 560 919 560 961 l 560 186 m 136 1271 q 169 1299 147 1283 q 222 1314 190 1314 q 272 1306 247 1314 q 319 1290 296 1299 q 365 1273 342 1281 q 413 1265 389 1265 q 458 1277 440 1265 q 490 1304 475 1289 l 497 1199 q 465 1170 486 1186 q 413 1154 444 1154 q 363 1162 388 1154 q 316 1178 339 1169 q 269 1195 293 1188 q 222 1203 246 1203 q 176 1192 194 1203 q 143 1165 158 1181 l 136 1271 z "},"Œ":{"ha":863,"x_min":76,"x_max":835,"o":"m 560 986 l 560 675 l 797 675 l 797 550 l 560 550 l 560 125 l 835 125 l 835 0 l 435 0 q 360 -14 396 -14 l 276 -14 q 199 2 235 -14 q 135 45 163 18 q 92 108 108 72 q 76 186 76 144 l 76 919 q 92 998 76 961 q 135 1062 108 1035 q 199 1104 163 1089 q 276 1119 235 1119 l 360 1119 q 435 1106 396 1119 l 435 1111 l 835 1111 l 835 986 l 560 986 m 435 919 q 414 974 435 953 q 360 994 393 994 l 276 994 q 222 974 243 994 q 201 919 201 953 l 201 186 q 222 132 201 153 q 276 111 243 111 l 360 111 q 414 132 393 111 q 435 186 435 153 l 435 919 z "},"œ":{"ha":904,"x_min":69,"x_max":856,"o":"m 671 111 q 715 127 699 111 q 731 171 731 143 l 731 271 l 856 271 l 856 171 q 841 99 856 132 q 801 40 826 65 q 743 1 776 15 q 671 -14 710 -14 l 585 -14 q 463 32 513 -14 q 340 -14 410 -14 l 254 -14 q 182 1 215 -14 q 124 40 149 15 q 84 99 99 65 q 69 171 69 133 l 69 607 q 84 679 69 646 q 124 738 99 713 q 182 777 149 763 q 254 792 215 792 l 340 792 q 407 779 376 792 q 463 746 438 767 q 517 779 486 767 q 585 792 549 792 l 671 792 q 743 777 710 792 q 801 738 776 763 q 841 679 826 713 q 856 607 856 646 l 856 371 l 525 371 l 525 171 q 541 127 525 143 q 585 111 557 111 l 671 111 m 340 667 l 254 667 q 210 651 226 667 q 194 607 194 635 l 194 171 q 210 127 194 143 q 254 111 226 111 l 340 111 q 381 119 365 111 q 400 163 397 128 l 400 607 q 384 651 400 635 q 340 667 368 667 m 731 496 l 731 607 q 715 651 731 635 q 671 667 699 667 l 585 667 q 541 651 557 667 q 525 607 525 635 l 525 496 l 731 496 z "},"”":{"ha":482,"x_min":42,"x_max":392,"o":"m 161 824 l 58 846 l 99 951 q 103 982 103 967 q 90 1026 103 1010 q 42 1054 76 1042 l 106 1115 q 188 1061 164 1094 q 211 981 211 1028 q 201 928 211 954 l 161 824 m 342 824 l 239 846 l 279 951 q 283 982 283 967 q 270 1026 283 1010 q 222 1054 257 1042 l 286 1115 q 368 1061 344 1094 q 392 981 392 1028 q 382 928 392 954 l 342 824 z "},"ÿ":{"ha":521,"x_min":14,"x_max":507,"o":"m 382 776 l 507 776 l 342 -217 l 222 -217 l 254 -14 l 200 -14 q 160 1 178 -14 q 140 33 143 15 l 14 776 l 142 776 l 246 129 q 249 121 246 125 q 253 115 251 118 q 260 111 256 111 l 264 111 q 274 118 272 111 q 278 129 276 125 l 382 776 m 182 853 q 137 872 156 853 q 118 917 118 890 q 137 964 118 944 q 182 983 156 983 q 229 964 210 983 q 249 917 249 944 q 229 872 249 890 q 182 853 210 853 m 343 853 q 297 872 315 853 q 278 917 278 890 q 297 964 278 944 q 343 983 315 983 q 388 964 369 983 q 407 917 407 944 q 388 872 407 890 q 343 853 369 853 z "},"Ÿ":{"ha":635,"x_min":14,"x_max":621,"o":"m 496 1111 l 621 1111 l 442 353 q 421 321 438 336 q 382 306 404 306 l 382 0 l 258 0 l 258 306 q 219 320 236 306 q 199 353 201 335 l 14 1111 l 142 1111 l 304 449 q 307 440 304 444 q 312 434 310 438 q 318 431 314 431 l 322 431 q 333 438 331 431 q 336 449 335 444 l 496 1111 m 238 1131 q 192 1149 211 1131 q 174 1194 174 1168 q 192 1242 174 1222 q 238 1261 211 1261 q 285 1242 265 1261 q 304 1194 304 1222 q 285 1149 304 1168 q 238 1131 265 1131 m 399 1131 q 352 1149 371 1131 q 333 1194 333 1168 q 352 1242 333 1222 q 399 1261 371 1261 q 444 1242 425 1261 q 463 1194 463 1222 q 444 1149 463 1168 q 399 1131 425 1131 z "},"⁄":{"ha":461,"x_min":0,"x_max":461,"o":"m 111 0 l 0 0 l 350 1108 l 461 1108 l 111 0 z "},"›":{"ha":492,"x_min":69,"x_max":450,"o":"m 69 489 l 171 536 l 450 332 l 171 128 l 69 175 l 289 332 l 69 489 z "},"ﬁ":{"ha":753,"x_min":7,"x_max":732,"o":"m 732 -14 l 646 -14 q 574 1 607 -14 q 515 40 540 15 q 476 99 490 65 q 461 171 461 133 l 461 660 l 217 660 l 217 -31 q 202 -102 217 -68 q 163 -161 188 -136 q 103 -201 138 -186 q 29 -215 69 -215 l 29 -90 q 74 -74 57 -90 q 90 -31 90 -58 l 90 660 l 7 660 l 7 783 l 90 783 l 90 878 q 105 949 90 915 q 144 1008 119 983 q 203 1048 169 1033 q 275 1063 236 1063 l 361 1063 l 357 938 l 278 938 q 233 922 250 938 q 217 878 217 906 l 217 783 l 588 783 l 588 171 q 604 127 588 143 q 649 111 621 111 l 732 111 l 732 -14 m 586 915 l 461 915 l 461 1063 l 586 1063 l 586 915 z "},"ﬂ":{"ha":753,"x_min":7,"x_max":732,"o":"m 336 660 l 217 660 l 217 -31 q 202 -102 217 -68 q 163 -161 188 -136 q 103 -201 138 -186 q 29 -215 69 -215 l 29 -90 q 74 -74 57 -90 q 90 -31 90 -58 l 90 660 l 7 660 l 7 783 l 90 783 l 90 878 q 105 949 90 915 q 144 1008 119 983 q 203 1048 169 1033 q 275 1063 236 1063 l 588 1063 l 588 171 q 604 127 588 143 q 649 111 621 111 l 732 111 l 732 -14 l 646 -14 q 574 1 607 -14 q 515 40 540 15 q 476 99 490 65 q 461 171 461 133 l 461 938 l 278 938 q 233 922 250 938 q 217 878 217 906 l 217 783 l 336 783 l 336 660 z "},"·":{"ha":276,"x_min":69,"x_max":207,"o":"m 138 335 q 90 355 110 335 q 69 403 69 375 q 90 451 69 431 q 138 472 110 472 q 186 451 165 472 q 207 403 207 431 q 186 355 207 375 q 138 335 165 335 z "},"Â":{"ha":633,"x_min":14,"x_max":619,"o":"m 619 0 l 436 1072 q 416 1105 433 1090 q 376 1119 399 1119 l 253 1119 q 213 1104 231 1119 q 193 1072 196 1089 l 14 0 l 139 0 l 188 269 l 444 269 l 494 0 l 619 0 m 426 394 l 206 394 l 299 976 q 302 988 300 981 q 313 994 304 994 l 317 994 q 328 986 322 994 q 331 976 331 982 l 426 394 m 317 1271 l 313 1271 l 219 1163 l 108 1163 l 281 1368 l 349 1368 l 521 1163 l 410 1163 l 317 1271 z "},"Ê":{"ha":551,"x_min":97,"x_max":524,"o":"m 524 986 l 524 1111 l 124 1111 l 124 0 l 524 0 l 524 125 l 249 125 l 249 550 l 486 550 l 486 675 l 249 675 l 249 986 l 524 986 m 306 1271 l 301 1271 l 208 1163 l 97 1163 l 269 1368 l 338 1368 l 510 1163 l 399 1163 l 306 1271 z "},"Á":{"ha":633,"x_min":14,"x_max":619,"o":"m 619 0 l 436 1072 q 416 1105 433 1090 q 376 1119 399 1119 l 253 1119 q 213 1104 231 1119 q 193 1072 196 1089 l 14 0 l 139 0 l 188 269 l 444 269 l 494 0 l 619 0 m 426 394 l 206 394 l 299 976 q 302 988 300 981 q 313 994 304 994 l 317 994 q 328 986 322 994 q 331 976 331 982 l 426 394 m 365 1158 l 244 1158 l 385 1340 l 506 1340 l 365 1158 z "},"Ë":{"ha":525,"x_min":97,"x_max":497,"o":"m 222 986 l 222 675 l 460 675 l 460 550 l 222 550 l 222 125 l 497 125 l 497 0 l 97 0 l 97 1111 l 497 1111 l 497 986 l 222 986 m 206 1135 q 160 1153 179 1135 q 142 1199 142 1172 q 160 1246 142 1226 q 206 1265 179 1265 q 253 1246 233 1265 q 272 1199 272 1226 q 253 1153 272 1172 q 206 1135 233 1135 m 367 1135 q 320 1153 339 1135 q 301 1199 301 1172 q 320 1246 301 1226 q 367 1265 339 1265 q 412 1246 393 1265 q 431 1199 431 1226 q 412 1153 431 1172 q 367 1135 393 1135 z "},"È":{"ha":529,"x_min":97,"x_max":501,"o":"m 226 986 l 226 675 l 464 675 l 464 550 l 226 550 l 226 125 l 501 125 l 501 0 l 101 0 l 101 1111 l 501 1111 l 501 986 l 226 986 m 97 1340 l 218 1340 l 358 1158 l 238 1158 l 97 1340 z "},"Í":{"ha":332,"x_min":63,"x_max":325,"o":"m 188 0 l 63 0 l 63 1111 l 188 1111 l 188 0 m 185 1158 l 64 1158 l 204 1340 l 325 1340 l 185 1158 z "},"Î":{"ha":333,"x_min":-39,"x_max":374,"o":"m 229 0 l 104 0 l 104 1111 l 229 1111 l 229 0 m 169 1271 l 165 1271 l 72 1163 l -39 1163 l 133 1368 l 201 1368 l 374 1163 l 263 1163 l 169 1271 z "},"Ï":{"ha":311,"x_min":11,"x_max":300,"o":"m 219 0 l 94 0 l 94 1111 l 219 1111 l 219 0 m 75 1140 q 30 1159 49 1140 q 11 1204 11 1178 q 30 1251 11 1232 q 75 1271 49 1271 q 122 1251 103 1271 q 142 1204 142 1232 q 122 1159 142 1178 q 75 1140 103 1140 m 236 1140 q 190 1159 208 1140 q 171 1204 171 1178 q 190 1251 171 1232 q 236 1271 208 1271 q 281 1251 263 1271 q 300 1204 300 1232 q 281 1159 300 1178 q 236 1140 263 1140 z "},"Ì":{"ha":344,"x_min":0,"x_max":275,"o":"m 257 0 l 132 0 l 132 1111 l 257 1111 l 257 0 m 0 1340 l 135 1340 l 275 1158 l 140 1158 l 0 1340 z "},"Ó":{"ha":636,"x_min":76,"x_max":560,"o":"m 435 919 q 414 974 435 953 q 360 994 393 994 l 276 994 q 222 974 243 994 q 201 919 201 953 l 201 186 q 222 132 201 153 q 276 111 243 111 l 360 111 q 414 132 393 111 q 435 186 435 153 l 435 919 m 560 186 q 544 108 560 144 q 502 45 529 72 q 438 2 475 18 q 360 -14 401 -14 l 276 -14 q 199 2 235 -14 q 135 45 163 18 q 92 108 108 72 q 76 186 76 144 l 76 919 q 92 998 76 961 q 135 1062 108 1035 q 199 1104 163 1089 q 276 1119 235 1119 l 360 1119 q 438 1104 401 1119 q 502 1062 475 1089 q 544 998 529 1035 q 560 919 560 961 l 560 186 m 379 1158 l 258 1158 l 399 1340 l 519 1340 l 379 1158 z "},"Ô":{"ha":636,"x_min":76,"x_max":560,"o":"m 435 919 q 414 974 435 953 q 360 994 393 994 l 276 994 q 222 974 243 994 q 201 919 201 953 l 201 186 q 222 132 201 153 q 276 111 243 111 l 360 111 q 414 132 393 111 q 435 186 435 153 l 435 919 m 560 186 q 544 108 560 144 q 502 45 529 72 q 438 2 475 18 q 360 -14 401 -14 l 276 -14 q 199 2 235 -14 q 135 45 163 18 q 92 108 108 72 q 76 186 76 144 l 76 919 q 92 998 76 961 q 135 1062 108 1035 q 199 1104 163 1089 q 276 1119 235 1119 l 360 1119 q 438 1104 401 1119 q 502 1062 475 1089 q 544 998 529 1035 q 560 919 560 961 l 560 186 m 317 1271 l 313 1271 l 219 1163 l 108 1163 l 281 1368 l 349 1368 l 521 1163 l 410 1163 l 317 1271 z "},"Ò":{"ha":636,"x_min":76,"x_max":560,"o":"m 435 919 q 414 974 435 953 q 360 994 393 994 l 276 994 q 222 974 243 994 q 201 919 201 953 l 201 186 q 222 132 201 153 q 276 111 243 111 l 360 111 q 414 132 393 111 q 435 186 435 153 l 435 919 m 560 186 q 544 108 560 144 q 502 45 529 72 q 438 2 475 18 q 360 -14 401 -14 l 276 -14 q 199 2 235 -14 q 135 45 163 18 q 92 108 108 72 q 76 186 76 144 l 76 919 q 92 998 76 961 q 135 1062 108 1035 q 199 1104 163 1089 q 276 1119 235 1119 l 360 1119 q 438 1104 401 1119 q 502 1062 475 1089 q 544 998 529 1035 q 560 919 560 961 l 560 186 m 128 1340 l 249 1340 l 389 1158 l 268 1158 l 128 1340 z "},"Ú":{"ha":650,"x_min":83,"x_max":567,"o":"m 442 1111 l 567 1111 l 567 186 q 551 108 567 144 q 509 45 536 72 q 445 2 482 18 q 367 -14 408 -14 l 283 -14 q 206 2 242 -14 q 142 45 169 18 q 99 108 115 72 q 83 186 83 144 l 83 1111 l 208 1111 l 208 186 q 229 132 208 153 q 283 111 250 111 l 367 111 q 421 132 400 111 q 442 186 442 153 l 442 1111 m 365 1158 l 244 1158 l 385 1340 l 506 1340 l 365 1158 z "},"Û":{"ha":650,"x_min":83,"x_max":567,"o":"m 442 1111 l 567 1111 l 567 186 q 551 108 567 144 q 509 45 536 72 q 445 2 482 18 q 367 -14 408 -14 l 283 -14 q 206 2 242 -14 q 142 45 169 18 q 99 108 115 72 q 83 186 83 144 l 83 1111 l 208 1111 l 208 186 q 229 132 208 153 q 283 111 250 111 l 367 111 q 421 132 400 111 q 442 186 442 153 l 442 1111 m 331 1271 l 326 1271 l 233 1163 l 122 1163 l 294 1368 l 363 1368 l 535 1163 l 424 1163 l 331 1271 z "},"Ù":{"ha":650,"x_min":83,"x_max":567,"o":"m 442 1111 l 567 1111 l 567 186 q 551 108 567 144 q 509 45 536 72 q 445 2 482 18 q 367 -14 408 -14 l 283 -14 q 206 2 242 -14 q 142 45 169 18 q 99 108 115 72 q 83 186 83 144 l 83 1111 l 208 1111 l 208 186 q 229 132 208 153 q 283 111 250 111 l 367 111 q 421 132 400 111 q 442 186 442 153 l 442 1111 m 135 1340 l 256 1340 l 396 1158 l 275 1158 l 135 1340 z "},"ˆ":{"ha":486,"x_min":43,"x_max":456,"o":"m 251 993 l 247 993 l 154 885 l 43 885 l 215 1090 l 283 1090 l 456 885 l 344 885 l 251 993 z "},"˜":{"ha":426,"x_min":33,"x_max":394,"o":"m 33 993 q 66 1021 44 1006 q 119 1036 88 1036 q 169 1028 144 1036 q 216 1012 193 1021 q 263 995 239 1003 q 310 988 286 988 q 355 999 338 988 q 388 1026 372 1011 l 394 921 q 363 892 383 908 q 310 876 342 876 q 260 884 285 876 q 213 901 236 892 q 167 917 190 910 q 119 925 143 925 q 74 914 92 925 q 40 888 56 903 l 33 993 z "},"¯":{"ha":417,"x_min":56,"x_max":361,"o":"m 56 899 l 56 994 l 361 994 l 361 899 l 56 899 z "},"˘":{"ha":322,"x_min":28,"x_max":294,"o":"m 294 1042 q 256 947 294 986 q 161 908 217 908 q 67 947 106 908 q 28 1042 28 986 l 125 1042 q 161 1006 125 1006 q 197 1042 197 1006 l 294 1042 z "},"˚":{"ha":375,"x_min":28,"x_max":347,"o":"m 251 986 q 233 1031 251 1013 q 188 1050 214 1050 q 142 1031 161 1050 q 124 986 124 1013 q 142 941 124 960 q 188 922 161 922 q 233 941 214 922 q 251 986 251 960 m 347 986 q 335 924 347 953 q 301 873 322 894 q 250 839 279 851 q 188 826 221 826 q 125 839 154 826 q 74 873 96 851 q 40 924 53 894 q 28 986 28 953 q 40 1049 28 1019 q 74 1099 53 1078 q 125 1133 96 1121 q 188 1146 154 1146 q 250 1133 221 1146 q 301 1099 279 1121 q 335 1049 322 1078 q 347 986 347 1019 z "},"¸":{"ha":585,"x_min":190,"x_max":479,"o":"m 239 -239 q 276 -255 263 -250 q 304 -260 289 -260 q 361 -242 340 -260 q 382 -196 382 -224 q 365 -152 382 -172 q 319 -132 349 -132 l 246 -132 l 269 38 l 369 38 l 353 -37 q 444 -95 408 -50 q 479 -196 479 -140 q 467 -258 479 -229 q 431 -310 454 -287 q 376 -344 408 -332 q 304 -357 343 -357 q 253 -348 279 -357 q 190 -315 226 -339 l 239 -239 z "},"ˇ":{"ha":606,"x_min":99,"x_max":511,"o":"m 303 967 l 307 967 l 400 1075 l 511 1075 l 339 869 l 271 869 l 99 1075 l 210 1075 l 303 967 z "},"∏":{"ha":617,"x_min":76,"x_max":533,"o":"m 533 778 l 533 -32 q 519 -103 533 -69 q 479 -162 504 -137 q 421 -202 454 -187 q 349 -217 388 -217 l 76 -217 l 76 -92 l 347 -92 q 392 -76 375 -92 q 408 -32 408 -60 l 408 86 q 338 36 374 58 q 273 1 307 17 q 211 -14 239 -14 q 117 25 156 -14 q 78 119 78 64 l 78 778 l 203 778 l 203 175 q 208 129 203 146 q 221 113 213 113 q 263 128 232 113 q 325 163 293 143 q 408 211 363 185 l 408 778 l 533 778 z "},"á":{"ha":574,"x_min":42,"x_max":497,"o":"m 42 243 q 52 329 42 296 q 81 385 63 363 q 124 420 99 407 q 179 444 150 433 l 372 503 l 372 607 q 365 641 372 629 q 345 658 357 653 q 317 665 333 664 q 285 667 301 667 q 224 656 251 667 q 197 607 197 646 l 197 579 l 72 579 l 72 607 q 91 689 72 654 q 140 747 110 724 q 208 781 171 769 q 285 792 246 792 q 362 781 324 792 q 430 747 400 769 q 478 689 460 724 q 497 607 497 654 l 497 0 l 372 0 l 372 86 q 301 36 338 58 q 237 1 271 17 q 175 -14 203 -14 q 81 25 119 -14 q 42 119 42 64 l 42 243 m 167 175 q 172 129 167 146 q 185 113 176 113 q 226 128 196 113 q 289 163 257 143 q 372 211 326 185 l 372 385 l 208 333 q 173 294 179 321 q 167 222 167 268 l 167 175 m 339 879 l 218 879 l 358 1061 l 479 1061 l 339 879 z "},"é":{"ha":574,"x_min":69,"x_max":525,"o":"m 400 496 l 400 607 q 384 651 400 635 q 340 667 368 667 l 254 667 q 210 651 226 667 q 194 607 194 635 l 194 496 l 400 496 m 340 111 q 384 127 368 111 q 400 171 400 143 l 400 271 l 525 271 l 525 171 q 510 99 525 132 q 471 40 496 65 q 413 1 446 15 q 340 -14 379 -14 l 254 -14 q 182 1 215 -14 q 124 40 149 15 q 84 99 99 65 q 69 171 69 132 l 69 607 q 84 679 69 646 q 124 738 99 713 q 182 777 149 763 q 254 792 215 792 l 340 792 q 413 777 379 792 q 471 738 446 763 q 510 679 496 713 q 525 607 525 646 l 525 371 l 194 371 l 194 171 q 210 127 194 143 q 254 111 226 111 l 340 111 m 296 881 l 175 881 l 315 1063 l 436 1063 l 296 881 z "},"ó":{"ha":594,"x_min":69,"x_max":525,"o":"m 400 171 l 400 607 q 384 651 400 635 q 340 667 368 667 l 254 667 q 210 651 226 667 q 194 607 194 635 l 194 171 q 210 127 194 143 q 254 111 226 111 l 340 111 q 384 121 368 111 q 400 171 400 131 m 525 171 q 510 99 525 133 q 471 40 496 65 q 413 1 446 15 q 340 -14 379 -14 l 254 -14 q 182 1 215 -14 q 124 40 149 15 q 84 99 99 65 q 69 171 69 133 l 69 607 q 84 679 69 646 q 124 738 99 713 q 182 777 149 763 q 254 792 215 792 l 340 792 q 413 777 379 792 q 471 738 446 763 q 510 679 496 713 q 525 607 525 646 l 525 171 m 310 881 l 189 881 l 329 1063 l 450 1063 l 310 881 z "},"ú":{"ha":615,"x_min":76,"x_max":532,"o":"m 532 778 l 532 0 l 407 0 l 407 86 q 336 36 372 58 q 272 1 306 17 q 210 -14 238 -14 q 115 25 154 -14 q 76 119 76 64 l 76 778 l 201 778 l 201 175 q 206 129 201 146 q 219 113 211 113 q 261 128 231 113 q 324 163 292 143 q 407 211 361 185 l 407 778 l 532 778 m 351 881 l 231 881 l 371 1063 l 492 1063 l 351 881 z "},"ã":{"ha":574,"x_min":42,"x_max":497,"o":"m 42 243 q 52 329 42 296 q 81 385 63 363 q 124 420 99 407 q 179 444 150 433 l 372 503 l 372 607 q 365 641 372 629 q 345 658 357 653 q 317 665 333 664 q 285 667 301 667 q 224 656 251 667 q 197 607 197 646 l 197 579 l 72 579 l 72 607 q 91 689 72 654 q 140 747 110 724 q 208 781 171 769 q 285 792 246 792 q 362 781 324 792 q 430 747 400 769 q 478 689 460 724 q 497 607 497 654 l 497 0 l 372 0 l 372 86 q 301 36 338 58 q 237 1 271 17 q 175 -14 203 -14 q 81 25 119 -14 q 42 119 42 64 l 42 243 m 167 175 q 172 129 167 146 q 185 113 176 113 q 226 128 196 113 q 289 163 257 143 q 372 211 326 185 l 372 385 l 208 333 q 173 294 179 321 q 167 222 167 268 l 167 175 m 92 993 q 124 1021 103 1006 q 178 1036 146 1036 q 227 1028 203 1036 q 274 1012 251 1021 q 321 995 297 1003 q 368 988 344 988 q 413 999 396 988 q 446 1026 431 1011 l 453 921 q 421 892 442 908 q 368 876 400 876 q 319 884 343 876 q 272 901 294 892 q 225 917 249 910 q 178 925 201 925 q 132 914 150 925 q 99 888 114 903 l 92 993 z "},"õ":{"ha":594,"x_min":69,"x_max":525,"o":"m 400 171 l 400 607 q 384 651 400 635 q 340 667 368 667 l 254 667 q 210 651 226 667 q 194 607 194 635 l 194 171 q 210 127 194 143 q 254 111 226 111 l 340 111 q 384 121 368 111 q 400 171 400 131 m 525 171 q 510 99 525 133 q 471 40 496 65 q 413 1 446 15 q 340 -14 379 -14 l 254 -14 q 182 1 215 -14 q 124 40 149 15 q 84 99 99 65 q 69 171 69 133 l 69 607 q 84 679 69 646 q 124 738 99 713 q 182 777 149 763 q 254 792 215 792 l 340 792 q 413 777 379 792 q 471 738 446 763 q 510 679 496 713 q 525 607 525 646 l 525 171 m 113 993 q 145 1021 124 1006 q 199 1036 167 1036 q 248 1028 224 1036 q 295 1012 272 1021 q 342 995 318 1003 q 389 988 365 988 q 434 999 417 988 q 467 1026 451 1011 l 474 921 q 442 892 463 908 q 389 876 421 876 q 340 884 364 876 q 292 901 315 892 q 246 917 269 910 q 199 925 222 925 q 153 914 171 925 q 119 888 135 903 l 113 993 z "},"â":{"ha":574,"x_min":42,"x_max":497,"o":"m 42 243 q 52 329 42 296 q 81 385 63 363 q 124 420 99 407 q 179 444 150 433 l 372 503 l 372 607 q 365 641 372 629 q 345 658 357 653 q 317 665 333 664 q 285 667 301 667 q 224 656 251 667 q 197 607 197 646 l 197 579 l 72 579 l 72 607 q 91 689 72 654 q 140 747 110 724 q 208 781 171 769 q 285 792 246 792 q 362 781 324 792 q 430 747 400 769 q 478 689 460 724 q 497 607 497 654 l 497 0 l 372 0 l 372 86 q 301 36 338 58 q 237 1 271 17 q 175 -14 203 -14 q 81 25 119 -14 q 42 119 42 64 l 42 243 m 167 175 q 172 129 167 146 q 185 113 176 113 q 226 128 196 113 q 289 163 257 143 q 372 211 326 185 l 372 385 l 208 333 q 173 294 179 321 q 167 222 167 268 l 167 175 m 267 993 l 263 993 l 169 885 l 58 885 l 231 1090 l 299 1090 l 471 885 l 360 885 l 267 993 z "},"ä":{"ha":574,"x_min":42,"x_max":497,"o":"m 42 243 q 52 329 42 296 q 81 385 63 363 q 124 420 99 407 q 179 444 150 433 l 372 503 l 372 607 q 365 641 372 629 q 345 658 357 653 q 317 665 333 664 q 285 667 301 667 q 224 656 251 667 q 197 607 197 646 l 197 579 l 72 579 l 72 607 q 91 689 72 654 q 140 747 110 724 q 208 781 171 769 q 285 792 246 792 q 362 781 324 792 q 430 747 400 769 q 478 689 460 724 q 497 607 497 654 l 497 0 l 372 0 l 372 86 q 301 36 338 58 q 237 1 271 17 q 175 -14 203 -14 q 81 25 119 -14 q 42 119 42 64 l 42 243 m 167 175 q 172 129 167 146 q 185 113 176 113 q 226 128 196 113 q 289 163 257 143 q 372 211 326 185 l 372 385 l 208 333 q 173 294 179 321 q 167 222 167 268 l 167 175 m 204 853 q 159 872 178 853 q 140 917 140 890 q 159 964 140 944 q 204 983 178 983 q 251 964 232 983 q 271 917 271 944 q 251 872 271 890 q 204 853 232 853 m 365 853 q 319 872 338 853 q 300 917 300 890 q 319 964 300 944 q 365 983 338 983 q 410 964 392 983 q 429 917 429 944 q 410 872 429 890 q 365 853 392 853 z "},"å":{"ha":574,"x_min":42,"x_max":497,"o":"m 42 243 q 52 329 42 296 q 81 385 63 363 q 124 420 99 407 q 179 444 150 433 l 372 503 l 372 607 q 365 641 372 629 q 345 658 357 653 q 317 665 333 664 q 285 667 301 667 q 224 656 251 667 q 197 607 197 646 l 197 579 l 72 579 l 72 607 q 91 689 72 654 q 140 747 110 724 q 208 781 171 769 q 285 792 246 792 q 362 781 324 792 q 430 747 400 769 q 478 689 460 724 q 497 607 497 654 l 497 0 l 372 0 l 372 86 q 301 36 338 58 q 237 1 271 17 q 175 -14 203 -14 q 81 25 119 -14 q 42 119 42 64 l 42 243 m 167 175 q 172 129 167 146 q 185 113 176 113 q 226 128 196 113 q 289 163 257 143 q 372 211 326 185 l 372 385 l 208 333 q 173 294 179 321 q 167 222 167 268 l 167 175 m 353 986 q 334 1031 353 1013 q 289 1050 315 1050 q 244 1031 263 1050 q 225 986 225 1013 q 244 941 225 960 q 289 922 263 922 q 334 941 315 922 q 353 986 353 960 m 449 986 q 436 924 449 953 q 402 873 424 894 q 351 839 381 851 q 289 826 322 826 q 226 839 256 826 q 176 873 197 851 q 142 924 154 894 q 129 986 129 953 q 142 1049 129 1019 q 176 1099 154 1078 q 226 1133 197 1121 q 289 1146 256 1146 q 351 1133 322 1146 q 402 1099 381 1121 q 436 1049 424 1078 q 449 986 449 1019 z "},"ê":{"ha":574,"x_min":69,"x_max":525,"o":"m 400 496 l 400 607 q 384 651 400 635 q 340 667 368 667 l 254 667 q 210 651 226 667 q 194 607 194 635 l 194 496 l 400 496 m 340 111 q 384 127 368 111 q 400 171 400 143 l 400 271 l 525 271 l 525 171 q 510 99 525 132 q 471 40 496 65 q 413 1 446 15 q 340 -14 379 -14 l 254 -14 q 182 1 215 -14 q 124 40 149 15 q 84 99 99 65 q 69 171 69 132 l 69 607 q 84 679 69 646 q 124 738 99 713 q 182 777 149 763 q 254 792 215 792 l 340 792 q 413 777 379 792 q 471 738 446 763 q 510 679 496 713 q 525 607 525 646 l 525 371 l 194 371 l 194 171 q 210 127 194 143 q 254 111 226 111 l 340 111 m 297 993 l 293 993 l 200 885 l 89 885 l 261 1090 l 329 1090 l 501 885 l 390 885 l 297 993 z "},"ë":{"ha":574,"x_min":69,"x_max":525,"o":"m 400 496 l 400 607 q 384 651 400 635 q 340 667 368 667 l 254 667 q 210 651 226 667 q 194 607 194 635 l 194 496 l 400 496 m 340 111 q 384 127 368 111 q 400 171 400 143 l 400 271 l 525 271 l 525 171 q 510 99 525 132 q 471 40 496 65 q 413 1 446 15 q 340 -14 379 -14 l 254 -14 q 182 1 215 -14 q 124 40 149 15 q 84 99 99 65 q 69 171 69 132 l 69 607 q 84 679 69 646 q 124 738 99 713 q 182 777 149 763 q 254 792 215 792 l 340 792 q 413 777 379 792 q 471 738 446 763 q 510 679 496 713 q 525 607 525 646 l 525 371 l 194 371 l 194 171 q 210 127 194 143 q 254 111 226 111 l 340 111 m 215 853 q 170 872 189 853 q 151 917 151 890 q 170 964 151 944 q 215 983 189 983 q 263 964 243 983 q 282 917 282 944 q 263 872 282 890 q 215 853 243 853 m 376 853 q 330 872 349 853 q 311 917 311 890 q 330 964 311 944 q 376 983 349 983 q 422 964 403 983 q 440 917 440 944 q 422 872 440 890 q 376 853 403 853 z "},"à":{"ha":574,"x_min":42,"x_max":497,"o":"m 42 243 q 52 329 42 296 q 81 385 63 363 q 124 420 99 407 q 179 444 150 433 l 372 503 l 372 607 q 365 641 372 629 q 345 658 357 653 q 317 665 333 664 q 285 667 301 667 q 224 656 251 667 q 197 607 197 646 l 197 579 l 72 579 l 72 607 q 91 689 72 654 q 140 747 110 724 q 208 781 171 769 q 285 792 246 792 q 362 781 324 792 q 430 747 400 769 q 478 689 460 724 q 497 607 497 654 l 497 0 l 372 0 l 372 86 q 301 36 338 58 q 237 1 271 17 q 175 -14 203 -14 q 81 25 119 -14 q 42 119 42 64 l 42 243 m 167 175 q 172 129 167 146 q 185 113 176 113 q 226 128 196 113 q 289 163 257 143 q 372 211 326 185 l 372 385 l 208 333 q 173 294 179 321 q 167 222 167 268 l 167 175 m 126 1063 l 247 1063 l 388 881 l 267 881 l 126 1063 z "},"è":{"ha":574,"x_min":69,"x_max":525,"o":"m 400 496 l 400 607 q 384 651 400 635 q 340 667 368 667 l 254 667 q 210 651 226 667 q 194 607 194 635 l 194 496 l 400 496 m 340 111 q 384 127 368 111 q 400 171 400 143 l 400 271 l 525 271 l 525 171 q 510 99 525 132 q 471 40 496 65 q 413 1 446 15 q 340 -14 379 -14 l 254 -14 q 182 1 215 -14 q 124 40 149 15 q 84 99 99 65 q 69 171 69 132 l 69 607 q 84 679 69 646 q 124 738 99 713 q 182 777 149 763 q 254 792 215 792 l 340 792 q 413 777 379 792 q 471 738 446 763 q 510 679 496 713 q 525 607 525 646 l 525 371 l 194 371 l 194 171 q 210 127 194 143 q 254 111 226 111 l 340 111 m 138 1063 l 258 1063 l 399 881 l 278 881 l 138 1063 z "},"Ä":{"ha":633,"x_min":14,"x_max":619,"o":"m 494 0 l 444 269 l 188 269 l 139 0 l 14 0 l 193 1072 q 213 1104 196 1089 q 253 1119 231 1119 l 376 1119 q 416 1105 399 1119 q 436 1072 433 1090 l 619 0 l 494 0 m 331 976 q 328 986 331 982 q 317 994 322 994 l 313 994 q 302 988 304 994 q 299 976 300 981 l 206 394 l 426 394 l 331 976 m 229 1131 q 184 1149 203 1131 q 165 1194 165 1168 q 184 1242 165 1222 q 229 1261 203 1261 q 276 1242 257 1261 q 296 1194 296 1222 q 276 1149 296 1168 q 229 1131 257 1131 m 390 1131 q 344 1149 363 1131 q 325 1194 325 1168 q 344 1242 325 1222 q 390 1261 363 1261 q 435 1242 417 1261 q 454 1194 454 1222 q 435 1149 454 1168 q 390 1131 417 1131 z "},"Ö":{"ha":636,"x_min":76,"x_max":560,"o":"m 435 919 q 414 974 435 953 q 360 994 393 994 l 276 994 q 222 974 243 994 q 201 919 201 953 l 201 186 q 222 132 201 153 q 276 111 243 111 l 360 111 q 414 132 393 111 q 435 186 435 153 l 435 919 m 560 186 q 544 108 560 144 q 502 45 529 72 q 438 2 475 18 q 360 -14 401 -14 l 276 -14 q 199 2 235 -14 q 135 45 163 18 q 92 108 108 72 q 76 186 76 144 l 76 919 q 92 998 76 961 q 135 1062 108 1035 q 199 1104 163 1089 q 276 1119 235 1119 l 360 1119 q 438 1104 401 1119 q 502 1062 475 1089 q 544 998 529 1035 q 560 919 560 961 l 560 186 m 233 1131 q 188 1149 207 1131 q 169 1194 169 1168 q 188 1242 169 1222 q 233 1261 207 1261 q 281 1242 261 1261 q 300 1194 300 1222 q 281 1149 300 1168 q 233 1131 261 1131 m 394 1131 q 348 1149 367 1131 q 329 1194 329 1168 q 348 1242 329 1222 q 394 1261 367 1261 q 440 1242 421 1261 q 458 1194 458 1222 q 440 1149 458 1168 q 394 1131 421 1131 z "},"Å":{"ha":633,"x_min":14,"x_max":619,"o":"m 619 0 l 436 1072 q 416 1105 433 1090 q 376 1119 399 1119 l 253 1119 q 213 1104 231 1119 q 193 1072 196 1089 l 14 0 l 139 0 l 188 269 l 444 269 l 494 0 l 619 0 m 426 394 l 206 394 l 299 976 q 302 988 300 981 q 313 994 304 994 l 317 994 q 328 986 322 994 q 331 976 331 982 l 426 394 m 375 1278 q 356 1323 375 1304 q 311 1342 338 1342 q 266 1323 285 1342 q 247 1278 247 1304 q 266 1233 247 1251 q 311 1214 285 1214 q 356 1233 338 1214 q 375 1278 375 1251 m 471 1278 q 458 1215 471 1244 q 424 1165 446 1186 q 374 1131 403 1143 q 311 1118 344 1118 q 249 1131 278 1118 q 198 1165 219 1143 q 164 1215 176 1186 q 151 1278 151 1244 q 164 1340 151 1311 q 198 1391 176 1369 q 249 1425 219 1413 q 311 1438 278 1438 q 374 1425 344 1438 q 424 1391 403 1413 q 458 1340 446 1369 q 471 1278 471 1311 z "},"É":{"ha":525,"x_min":97,"x_max":497,"o":"m 497 986 l 497 1111 l 97 1111 l 97 0 l 497 0 l 497 125 l 222 125 l 222 550 l 460 550 l 460 675 l 222 675 l 222 986 l 497 986 m 317 1158 l 182 1158 l 322 1340 l 457 1340 l 317 1158 z "},"Ñ":{"ha":743,"x_min":97,"x_max":646,"o":"m 426 0 l 229 986 l 222 986 l 222 0 l 97 0 l 97 1111 l 319 1111 l 514 125 l 521 125 l 521 1111 l 646 1111 l 646 0 l 426 0 m 206 1271 q 238 1299 217 1283 q 292 1314 260 1314 q 341 1306 317 1314 q 388 1290 365 1299 q 435 1273 411 1281 q 482 1265 458 1265 q 527 1277 510 1265 q 560 1304 544 1289 l 567 1199 q 535 1170 556 1186 q 482 1154 514 1154 q 433 1162 457 1154 q 385 1178 408 1169 q 339 1195 363 1188 q 292 1203 315 1203 q 246 1192 264 1203 q 213 1165 228 1181 l 206 1271 z "},"ñ":{"ha":615,"x_min":83,"x_max":539,"o":"m 414 601 q 409 647 414 631 q 396 664 404 664 q 354 649 385 664 q 292 615 324 635 q 208 565 254 593 l 208 0 l 83 0 l 83 778 l 208 778 l 208 692 q 279 742 243 719 q 344 776 310 761 q 406 792 378 792 q 458 781 433 792 q 500 752 482 771 q 528 709 518 733 q 539 657 539 685 l 539 0 l 414 0 l 414 601 m 131 993 q 163 1021 142 1006 q 217 1036 185 1036 q 266 1028 242 1036 q 313 1012 290 1021 q 360 995 336 1003 q 407 988 383 988 q 452 999 435 988 q 485 1026 469 1011 l 492 921 q 460 892 481 908 q 407 876 439 876 q 358 884 382 876 q 310 901 333 892 q 264 917 288 910 q 217 925 240 925 q 171 914 189 925 q 138 888 153 903 l 131 993 z "},"í":{"ha":349,"x_min":46,"x_max":328,"o":"m 328 -14 l 242 -14 q 169 1 203 -14 q 111 40 136 15 q 72 99 86 65 q 57 171 57 133 l 57 778 l 183 778 l 183 171 q 200 127 183 143 q 244 111 217 111 l 328 111 l 328 -14 m 167 881 l 46 881 l 186 1063 l 307 1063 l 167 881 z "},"ì":{"ha":429,"x_min":-4,"x_max":407,"o":"m 407 -14 l 321 -14 q 249 1 282 -14 q 190 40 215 15 q 151 99 165 65 q 136 171 136 133 l 136 778 l 263 778 l 263 171 q 279 127 263 143 q 324 111 296 111 l 407 111 l 407 -14 m -4 1063 l 117 1063 l 257 881 l 136 881 l -4 1063 z "},"ï":{"ha":374,"x_min":-1,"x_max":351,"o":"m 351 -14 l 265 -14 q 193 1 226 -14 q 135 40 160 15 q 95 99 110 65 q 81 171 81 133 l 81 778 l 207 778 l 207 171 q 224 127 207 143 q 268 111 240 111 l 351 111 l 351 -14 m 63 853 q 17 872 36 853 q -1 917 -1 890 q 17 964 -1 944 q 63 983 36 983 q 110 964 90 983 q 129 917 129 944 q 110 872 129 890 q 63 853 90 853 m 224 853 q 177 872 196 853 q 158 917 158 890 q 177 964 158 944 q 224 983 196 983 q 269 964 250 983 q 288 917 288 944 q 269 872 288 890 q 224 853 250 853 z "},"î":{"ha":358,"x_min":-51,"x_max":363,"o":"m 363 -14 l 276 -14 q 204 1 238 -14 q 146 40 171 15 q 106 99 121 65 q 92 171 92 133 l 92 778 l 218 778 l 218 171 q 235 127 218 143 q 279 111 251 111 l 363 111 l 363 -14 m 157 993 l 153 993 l 60 885 l -51 885 l 121 1090 l 189 1090 l 361 885 l 250 885 l 157 993 z "},"Ü":{"ha":650,"x_min":83,"x_max":567,"o":"m 442 1111 l 567 1111 l 567 186 q 551 108 567 144 q 509 45 536 72 q 445 2 482 18 q 367 -14 408 -14 l 283 -14 q 206 2 242 -14 q 142 45 169 18 q 99 108 115 72 q 83 186 83 144 l 83 1111 l 208 1111 l 208 186 q 229 132 208 153 q 283 111 250 111 l 367 111 q 421 132 400 111 q 442 186 442 153 l 442 1111 m 254 1131 q 209 1149 228 1131 q 190 1194 190 1168 q 209 1242 190 1222 q 254 1261 228 1261 q 301 1242 282 1261 q 321 1194 321 1222 q 301 1149 321 1168 q 254 1131 282 1131 m 415 1131 q 369 1149 388 1131 q 350 1194 350 1168 q 369 1242 350 1222 q 415 1261 388 1261 q 460 1242 442 1261 q 479 1194 479 1222 q 460 1149 479 1168 q 415 1131 442 1131 z "},"ù":{"ha":615,"x_min":76,"x_max":532,"o":"m 532 778 l 532 0 l 407 0 l 407 86 q 336 36 372 58 q 272 1 306 17 q 210 -14 238 -14 q 115 25 154 -14 q 76 119 76 64 l 76 778 l 201 778 l 201 175 q 206 129 201 146 q 219 113 211 113 q 261 128 231 113 q 324 163 292 143 q 407 211 361 185 l 407 778 l 532 778 m 119 1063 l 240 1063 l 381 881 l 260 881 l 119 1063 z "},"ü":{"ha":615,"x_min":76,"x_max":532,"o":"m 532 778 l 532 0 l 407 0 l 407 86 q 336 36 372 58 q 272 1 306 17 q 210 -14 238 -14 q 115 25 154 -14 q 76 119 76 64 l 76 778 l 201 778 l 201 175 q 206 129 201 146 q 219 113 211 113 q 261 128 231 113 q 324 163 292 143 q 407 211 361 185 l 407 778 l 532 778 m 217 853 q 172 872 190 853 q 153 917 153 890 q 172 964 153 944 q 217 983 190 983 q 264 964 244 983 q 283 917 283 944 q 264 872 283 890 q 217 853 244 853 m 378 853 q 331 872 350 853 q 313 917 313 890 q 331 964 313 944 q 378 983 350 983 q 423 964 404 983 q 442 917 442 944 q 423 872 442 890 q 378 853 404 853 z "},"ò":{"ha":594,"x_min":69,"x_max":525,"o":"m 400 171 l 400 607 q 384 651 400 635 q 340 667 368 667 l 254 667 q 210 651 226 667 q 194 607 194 635 l 194 171 q 210 127 194 143 q 254 111 226 111 l 340 111 q 384 121 368 111 q 400 171 400 131 m 525 171 q 510 99 525 133 q 471 40 496 65 q 413 1 446 15 q 340 -14 379 -14 l 254 -14 q 182 1 215 -14 q 124 40 149 15 q 84 99 99 65 q 69 171 69 133 l 69 607 q 84 679 69 646 q 124 738 99 713 q 182 777 149 763 q 254 792 215 792 l 340 792 q 413 777 379 792 q 471 738 446 763 q 510 679 496 713 q 525 607 525 646 l 525 171 m 96 1063 l 217 1063 l 357 881 l 236 881 l 96 1063 z "},"ô":{"ha":594,"x_min":69,"x_max":525,"o":"m 400 171 l 400 607 q 384 651 400 635 q 340 667 368 667 l 254 667 q 210 651 226 667 q 194 607 194 635 l 194 171 q 210 127 194 143 q 254 111 226 111 l 340 111 q 384 121 368 111 q 400 171 400 131 m 525 171 q 510 99 525 133 q 471 40 496 65 q 413 1 446 15 q 340 -14 379 -14 l 254 -14 q 182 1 215 -14 q 124 40 149 15 q 84 99 99 65 q 69 171 69 133 l 69 607 q 84 679 69 646 q 124 738 99 713 q 182 777 149 763 q 254 792 215 792 l 340 792 q 413 777 379 792 q 471 738 446 763 q 510 679 496 713 q 525 607 525 646 l 525 171 m 297 993 l 293 993 l 200 885 l 89 885 l 261 1090 l 329 1090 l 501 885 l 390 885 l 297 993 z "},"ö":{"ha":594,"x_min":69,"x_max":525,"o":"m 400 171 l 400 607 q 384 651 400 635 q 340 667 368 667 l 254 667 q 210 651 226 667 q 194 607 194 635 l 194 171 q 210 127 194 143 q 254 111 226 111 l 340 111 q 384 121 368 111 q 400 171 400 131 m 525 171 q 510 99 525 133 q 471 40 496 65 q 413 1 446 15 q 340 -14 379 -14 l 254 -14 q 182 1 215 -14 q 124 40 149 15 q 84 99 99 65 q 69 171 69 133 l 69 607 q 84 679 69 646 q 124 738 99 713 q 182 777 149 763 q 254 792 215 792 l 340 792 q 413 777 379 792 q 471 738 446 763 q 510 679 496 713 q 525 607 525 646 l 525 171 m 215 853 q 170 872 189 853 q 151 917 151 890 q 170 964 151 944 q 215 983 189 983 q 263 964 243 983 q 282 917 282 944 q 263 872 282 890 q 215 853 243 853 m 376 853 q 330 872 349 853 q 311 917 311 890 q 330 964 311 944 q 376 983 349 983 q 422 964 403 983 q 440 917 440 944 q 422 872 440 890 q 376 853 403 853 z "},"û":{"ha":615,"x_min":76,"x_max":532,"o":"m 532 778 l 532 0 l 407 0 l 407 86 q 336 36 372 58 q 272 1 306 17 q 210 -14 238 -14 q 115 25 154 -14 q 76 119 76 64 l 76 778 l 201 778 l 201 175 q 206 129 201 146 q 219 113 211 113 q 261 128 231 113 q 324 163 292 143 q 407 211 361 185 l 407 778 l 532 778 m 300 993 l 296 993 l 203 885 l 92 885 l 264 1090 l 332 1090 l 504 885 l 393 885 l 300 993 z "},"Ø":{"ha":653,"x_min":76,"x_max":576,"o":"m 174 -83 l 76 -83 l 124 65 q 94 121 104 90 q 83 186 83 151 l 83 919 q 99 998 83 961 q 142 1062 115 1035 q 206 1104 169 1089 q 283 1119 242 1119 l 367 1119 q 450 1101 410 1119 l 479 1194 l 576 1194 l 526 1039 q 556 983 546 1014 q 567 919 567 953 l 567 186 q 551 108 567 144 q 509 45 536 72 q 445 2 482 18 q 367 -14 408 -14 l 283 -14 q 240 -9 261 -14 q 200 3 219 -4 l 174 -83 m 367 994 l 283 994 q 229 974 250 994 q 208 919 208 953 l 208 335 l 411 981 q 367 994 390 994 m 283 111 l 367 111 q 421 132 400 111 q 442 186 442 153 l 442 767 l 239 124 q 283 111 256 111 z "},"Ç":{"ha":629,"x_min":76,"x_max":560,"o":"m 225 -239 q 262 -255 249 -250 q 290 -260 275 -260 q 347 -242 326 -260 q 368 -196 368 -224 q 351 -152 368 -172 q 306 -132 335 -132 l 232 -132 l 249 -11 q 180 10 211 -7 q 126 54 149 28 q 90 115 103 81 q 76 186 76 149 l 76 919 q 92 998 76 961 q 135 1062 108 1035 q 199 1104 163 1089 q 276 1119 235 1119 l 360 1119 q 438 1104 401 1119 q 502 1062 475 1089 q 544 998 529 1035 q 560 919 560 961 l 560 744 l 435 744 l 435 919 q 414 974 435 953 q 360 994 393 994 l 276 994 q 222 974 243 994 q 201 919 201 953 l 201 186 q 222 132 201 153 q 276 111 243 111 l 360 111 q 402 117 388 111 q 423 132 417 122 q 431 156 429 142 q 432 186 432 169 l 432 406 l 560 406 l 560 186 q 544 108 560 144 q 502 45 529 72 q 438 2 475 18 q 360 -14 401 -14 l 344 -14 l 339 -37 q 430 -95 394 -50 q 465 -196 465 -140 q 453 -258 465 -229 q 417 -310 440 -287 q 362 -344 394 -332 q 290 -357 329 -357 q 239 -348 265 -357 q 176 -315 213 -339 l 225 -239 z "},"ç":{"ha":560,"x_min":69,"x_max":525,"o":"m 197 -239 q 234 -255 221 -250 q 263 -260 247 -260 q 319 -242 299 -260 q 340 -196 340 -224 q 324 -152 340 -172 q 278 -132 307 -132 l 204 -132 l 221 -11 q 112 51 154 0 q 69 171 69 103 l 69 607 q 84 679 69 646 q 124 738 99 713 q 182 777 149 763 q 254 792 215 792 l 340 792 q 413 777 379 792 q 471 738 446 763 q 510 679 496 713 q 525 607 525 646 l 525 503 l 400 503 l 400 607 q 384 651 400 635 q 340 667 368 667 l 254 667 q 210 651 226 667 q 194 607 194 635 l 194 171 q 210 127 194 143 q 254 111 226 111 l 340 111 q 384 127 368 111 q 400 171 400 143 l 400 271 l 525 271 l 525 171 q 510 99 525 133 q 471 40 496 65 q 413 1 446 15 q 340 -14 379 -14 l 317 -14 l 311 -37 q 402 -95 367 -50 q 438 -196 438 -140 q 425 -258 438 -229 q 390 -310 413 -287 q 334 -344 367 -332 q 263 -357 301 -357 q 211 -348 238 -357 q 149 -315 185 -339 l 197 -239 z "},"€":{"ha":678,"x_min":49,"x_max":608,"o":"m 481 406 l 608 406 l 608 186 q 593 108 608 144 q 551 45 578 72 q 487 2 524 18 q 408 -14 450 -14 l 325 -14 q 247 2 283 -14 q 184 45 211 18 q 141 108 157 72 q 125 186 125 144 l 125 431 l 49 431 l 49 528 l 125 528 l 125 578 l 49 578 l 49 675 l 125 675 l 125 878 q 141 956 125 919 q 184 1020 157 993 q 247 1063 211 1047 q 325 1078 283 1078 l 408 1078 q 487 1063 450 1078 q 551 1020 524 1047 q 593 956 578 993 q 608 878 608 919 l 608 703 l 483 703 l 483 878 q 463 932 483 911 q 408 953 442 953 l 325 953 q 271 932 292 953 q 250 878 250 911 l 250 675 l 432 675 l 432 578 l 250 578 l 250 528 l 432 528 l 432 431 l 250 431 l 250 186 q 271 132 250 153 q 325 111 292 111 l 408 111 q 451 117 436 111 q 472 132 465 122 q 479 156 478 142 q 481 186 481 169 l 481 406 z "},"‰":{"ha":1471,"x_min":83,"x_max":1388,"o":"m 349 689 q 337 642 349 661 q 310 622 325 622 l 240 622 q 213 642 225 622 q 201 689 201 661 l 201 896 q 213 943 201 924 q 240 963 225 963 l 310 963 q 337 943 325 963 q 349 896 349 924 l 349 689 m 467 896 q 454 968 467 935 q 421 1026 442 1001 q 372 1066 400 1051 q 310 1081 343 1081 l 240 1081 q 178 1066 207 1081 q 129 1026 150 1051 q 96 968 108 1001 q 83 896 83 935 l 83 689 q 96 617 83 651 q 129 558 108 583 q 178 519 150 533 q 240 504 207 504 l 310 504 q 372 519 343 504 q 421 558 400 533 q 454 617 442 583 q 467 689 467 651 l 467 896 m 417 0 l 292 0 l 642 1108 l 767 1108 l 417 0 m 846 172 q 834 125 846 144 q 807 106 822 106 l 738 106 q 710 125 722 106 q 699 172 699 144 l 699 379 q 710 426 699 407 q 738 446 722 446 l 807 446 q 834 426 822 446 q 846 379 846 407 l 846 172 m 964 379 q 951 451 964 418 q 918 510 939 485 q 869 549 897 535 q 807 564 840 564 l 738 564 q 676 549 704 564 q 626 510 647 535 q 593 451 606 485 q 581 379 581 418 l 581 172 q 593 101 581 135 q 626 42 606 67 q 676 2 647 17 q 738 -12 704 -12 l 807 -12 q 869 2 840 -12 q 918 42 897 17 q 951 101 939 67 q 964 172 964 135 l 964 379 m 1269 172 q 1258 125 1269 144 q 1231 106 1246 106 l 1161 106 q 1134 125 1146 106 q 1122 172 1122 144 l 1122 379 q 1134 426 1122 407 q 1161 446 1146 446 l 1231 446 q 1258 426 1246 446 q 1269 379 1269 407 l 1269 172 m 1388 379 q 1375 451 1388 418 q 1342 510 1363 485 q 1292 549 1321 535 q 1231 564 1264 564 l 1161 564 q 1099 549 1128 564 q 1050 510 1071 535 q 1017 451 1029 485 q 1004 379 1004 418 l 1004 172 q 1017 101 1004 135 q 1050 42 1029 67 q 1099 2 1071 17 q 1161 -12 1128 -12 l 1231 -12 q 1292 2 1264 -12 q 1342 42 1321 17 q 1375 101 1363 67 q 1388 172 1388 135 l 1388 379 z "},"ð":{"ha":583,"x_min":56,"x_max":604,"o":"m 604 674 l 511 674 l 511 172 q 497 101 511 135 q 457 42 482 67 q 399 2 432 17 q 326 -12 365 -12 l 240 -12 q 168 2 201 -12 q 110 42 135 17 q 70 101 85 67 q 56 172 56 135 l 56 418 q 70 490 56 456 q 110 549 85 524 q 168 588 135 574 q 240 603 201 603 l 326 603 q 367 596 349 603 q 386 589 376 592 l 386 674 l 263 674 l 263 789 l 386 789 l 386 907 q 370 951 386 935 q 326 967 354 967 l 240 967 q 197 951 213 967 q 181 907 181 935 l 181 788 l 56 788 l 56 907 q 70 979 56 946 q 110 1038 85 1013 q 168 1077 135 1063 q 240 1092 201 1092 l 326 1092 q 399 1077 365 1092 q 457 1038 432 1063 q 497 979 482 1013 q 511 907 511 946 l 511 789 l 603 789 l 604 674 m 386 419 q 370 463 386 447 q 326 478 354 478 l 240 478 q 197 462 213 478 q 181 418 181 446 l 181 172 q 197 128 181 144 q 240 113 213 113 l 326 113 q 370 128 354 113 q 386 172 386 144 l 386 419 z "},")":{"ha":465,"x_min":56,"x_max":410,"o":"m 192 1169 q 351 887 292 1043 q 410 528 410 731 q 351 169 410 325 q 192 -114 292 14 l 56 -114 q 226 183 164 21 q 289 528 289 344 q 226 873 289 711 q 56 1169 164 1035 l 192 1169 z "},"}":{"ha":346,"x_min":56,"x_max":318,"o":"m 56 1194 q 112 1179 85 1192 q 161 1144 139 1167 q 197 1089 183 1122 q 210 1010 210 1056 l 210 749 q 218 675 210 703 q 241 633 226 647 q 276 613 256 618 q 318 608 296 608 l 318 503 q 276 498 296 503 q 241 478 256 493 q 218 436 226 464 q 210 363 210 408 l 210 101 q 197 22 210 56 q 161 -33 183 -11 q 112 -68 139 -56 q 56 -83 85 -81 l 56 42 q 76 53 68 44 q 85 101 85 63 l 85 363 q 91 450 85 415 q 110 506 97 485 q 144 535 124 526 q 193 544 165 543 l 193 567 q 146 577 167 568 q 112 607 125 586 q 92 663 99 628 q 85 749 85 697 l 85 1010 q 76 1056 85 1046 q 56 1069 68 1067 l 56 1194 z "},"¹":{"ha":360,"x_min":104,"x_max":256,"o":"m 256 500 l 158 500 l 158 979 l 104 979 l 104 1063 l 256 1063 l 256 500 z "},"¼":{"ha":849,"x_min":104,"x_max":779,"o":"m 601 567 l 449 132 l 668 132 l 668 0 l 751 0 l 751 132 l 779 132 l 779 215 l 751 215 l 751 567 l 601 567 m 568 215 l 654 486 l 668 486 l 668 215 l 568 215 m 256 500 l 158 500 l 158 979 l 104 979 l 104 1063 l 256 1063 l 256 500 m 292 0 l 194 0 l 544 1108 l 642 1108 l 292 0 z "},"²":{"ha":418,"x_min":83,"x_max":335,"o":"m 185 925 l 90 925 l 90 942 q 99 992 90 968 q 124 1033 108 1015 q 161 1060 140 1050 q 207 1071 182 1071 l 219 1071 q 265 1062 243 1071 q 301 1037 286 1053 q 326 1000 317 1021 q 335 954 335 979 l 335 925 q 306 796 335 850 q 235 694 276 742 q 193 642 206 663 q 179 583 181 621 l 335 583 l 335 489 l 83 489 l 83 569 q 89 635 83 608 q 104 681 94 661 q 129 717 114 700 q 163 754 144 735 q 222 838 203 796 q 240 925 240 881 l 240 954 q 234 972 240 967 q 219 976 228 976 l 207 976 q 185 942 185 976 l 185 925 z "},"³":{"ha":432,"x_min":78,"x_max":349,"o":"m 260 961 q 253 976 260 967 q 232 986 247 986 l 189 986 q 167 976 174 986 q 161 961 161 967 l 161 951 l 78 951 l 78 982 q 108 1044 78 1018 q 175 1069 139 1069 l 246 1069 q 313 1044 282 1069 q 343 982 343 1018 l 343 896 q 330 844 343 868 q 293 810 317 821 q 335 775 321 799 q 349 721 349 751 l 349 582 q 318 520 349 546 q 251 494 288 494 l 181 494 q 114 520 144 494 q 83 582 83 546 l 83 708 l 167 708 l 167 603 q 173 588 167 597 q 194 578 179 578 l 238 578 q 259 588 253 578 q 265 603 265 597 l 265 721 q 258 745 265 736 q 241 760 251 754 q 218 767 231 765 q 196 768 206 768 l 138 768 l 138 851 l 196 851 q 228 857 213 851 q 250 870 240 861 q 260 896 260 879 l 260 961 z "},"¾":{"ha":890,"x_min":78,"x_max":807,"o":"m 260 961 q 253 976 260 967 q 232 986 247 986 l 189 986 q 167 976 174 986 q 161 961 161 967 l 161 951 l 78 951 l 78 982 q 108 1044 78 1018 q 175 1069 139 1069 l 246 1069 q 313 1044 282 1069 q 343 982 343 1018 l 343 896 q 330 844 343 868 q 293 810 317 821 q 335 775 321 799 q 349 721 349 751 l 349 582 q 318 520 349 546 q 251 494 288 494 l 181 494 q 114 520 144 494 q 83 582 83 546 l 83 708 l 167 708 l 167 603 q 173 588 167 597 q 194 578 179 578 l 238 578 q 259 588 253 578 q 265 603 265 597 l 265 721 q 258 745 265 736 q 241 760 251 754 q 218 767 231 765 q 196 768 206 768 l 138 768 l 138 851 l 196 851 q 228 857 213 851 q 250 870 240 861 q 260 896 260 879 l 260 961 m 629 567 l 476 132 l 696 132 l 696 0 l 779 0 l 779 132 l 807 132 l 807 215 l 779 215 l 779 567 l 629 567 m 596 215 l 682 486 l 696 486 l 696 215 l 596 215 m 319 0 l 222 0 l 572 1108 l 669 1108 l 319 0 z "},"Ł":{"ha":553,"x_min":69,"x_max":539,"o":"m 69 593 l 140 622 l 140 1111 l 264 1111 l 264 675 l 397 732 l 397 608 l 264 551 l 264 125 l 539 125 l 539 0 l 140 0 l 140 499 l 69 469 l 69 593 z "},".":{"ha":276,"x_min":69,"x_max":207,"o":"m 138 0 q 90 20 110 0 q 69 68 69 40 q 90 117 69 96 q 138 138 110 138 q 186 117 165 138 q 207 68 207 96 q 186 20 207 40 q 138 0 165 0 z "},"…":{"ha":832,"x_min":111,"x_max":721,"o":"m 179 0 q 131 20 151 0 q 111 68 111 40 q 131 117 111 96 q 179 138 151 138 q 228 117 207 138 q 249 68 249 96 q 228 20 249 40 q 179 0 207 0 m 651 0 q 603 20 624 0 q 583 68 583 40 q 603 117 583 96 q 651 138 624 138 q 700 117 679 138 q 721 68 721 96 q 700 20 721 40 q 651 0 679 0 m 415 0 q 367 20 388 0 q 347 68 347 40 q 367 117 347 96 q 415 138 388 138 q 464 117 443 138 q 485 68 485 96 q 464 20 485 40 q 415 0 443 0 z "},"−":{"ha":653,"x_min":56,"x_max":597,"o":"m 56 426 l 56 550 l 597 550 l 597 426 l 56 426 z "},"×":{"ha":689,"x_min":122,"x_max":578,"o":"m 210 257 l 122 344 l 263 483 l 135 611 l 222 699 l 350 571 l 478 699 l 565 611 l 438 483 l 578 344 l 490 257 l 350 397 l 210 257 z "},"ł":{"ha":369,"x_min":35,"x_max":363,"o":"m 360 -14 l 274 -14 q 201 1 235 -14 q 143 40 168 15 q 103 99 118 65 q 89 171 89 133 l 89 492 l 35 469 l 35 593 l 89 615 l 89 1061 l 215 1061 l 215 669 l 363 732 l 363 608 l 215 546 l 215 171 q 232 127 215 143 q 276 111 249 111 l 360 111 l 360 -14 z "},"*":{"ha":606,"x_min":83,"x_max":522,"o":"m 351 1076 l 351 918 l 522 963 l 522 863 l 365 822 l 500 681 l 432 611 l 303 751 l 178 615 l 106 681 l 240 822 l 83 863 l 83 963 l 254 918 l 254 1076 l 351 1076 z "},";":{"ha":338,"x_min":111,"x_max":249,"o":"m 179 575 q 131 595 151 575 q 111 643 111 615 q 131 692 111 671 q 179 713 151 713 q 228 692 207 713 q 249 643 249 671 q 228 595 249 615 q 179 575 207 575 m 240 -217 l 115 -217 l 115 215 l 240 215 l 240 -217 z "},">":{"ha":483,"x_min":69,"x_max":442,"o":"m 442 576 l 169 228 l 69 274 l 306 576 l 81 868 l 182 913 l 442 576 z "},"'":{"ha":306,"x_min":90,"x_max":215,"o":"m 215 703 l 90 703 l 90 1061 l 215 1061 l 215 703 z "},"\"":{"ha":500,"x_min":90,"x_max":410,"o":"m 215 703 l 90 703 l 90 1061 l 215 1061 l 215 703 m 410 703 l 285 703 l 285 1061 l 410 1061 l 410 703 z "},"‹":{"ha":492,"x_min":42,"x_max":422,"o":"m 203 332 l 422 175 l 321 128 l 42 332 l 321 536 l 422 489 l 203 332 z "},"«":{"ha":756,"x_min":42,"x_max":686,"o":"m 203 332 l 422 175 l 321 128 l 42 332 l 321 536 l 422 489 l 203 332 m 467 332 l 686 175 l 585 128 l 306 332 l 585 536 l 686 489 l 467 332 z "},"“":{"ha":482,"x_min":90,"x_max":440,"o":"m 321 1110 l 424 1088 l 383 982 q 379 951 379 968 q 392 908 379 924 q 440 879 406 892 l 376 818 q 294 872 318 839 q 271 953 271 906 q 281 1006 271 979 l 321 1110 m 140 1110 l 243 1088 l 203 982 q 199 951 199 968 q 212 908 199 924 q 260 879 225 892 l 196 818 q 114 872 138 839 q 90 953 90 906 q 100 1006 90 979 l 140 1110 z "},"‘":{"ha":301,"x_min":90,"x_max":260,"o":"m 140 1110 l 243 1088 l 203 982 q 199 951 199 968 q 212 908 199 924 q 260 879 225 892 l 196 818 q 114 872 138 839 q 90 953 90 906 q 100 1006 90 979 l 140 1110 z "},"’":{"ha":301,"x_min":42,"x_max":211,"o":"m 161 824 l 58 846 l 99 951 q 103 982 103 967 q 90 1026 103 1010 q 42 1054 76 1042 l 106 1115 q 188 1061 164 1094 q 211 981 211 1028 q 201 928 211 954 l 161 824 z "},"—":{"ha":842,"x_min":0,"x_max":842,"o":"m 0 426 l 0 550 l 842 550 l 842 426 l 0 426 z "},"–":{"ha":456,"x_min":0,"x_max":456,"o":"m 0 426 l 0 550 l 456 550 l 456 426 l 0 426 z "},"ƒ":{"ha":361,"x_min":7,"x_max":361,"o":"m 361 938 l 278 938 q 233 922 250 938 q 217 878 217 906 l 217 603 l 336 603 l 336 479 l 217 479 l 217 -31 q 202 -102 217 -68 q 163 -161 188 -136 q 103 -201 138 -186 q 29 -215 69 -215 l 29 -90 q 74 -74 57 -90 q 90 -31 90 -58 l 90 479 l 7 479 l 7 603 l 90 603 l 90 878 q 105 949 90 915 q 144 1008 119 983 q 203 1048 169 1033 q 275 1063 236 1063 l 361 1063 l 361 938 z "},"±":{"ha":597,"x_min":56,"x_max":542,"o":"m 56 504 l 56 640 l 229 640 l 229 799 l 367 799 l 367 640 l 542 640 l 542 504 l 367 504 l 367 313 l 229 313 l 229 504 l 56 504 m 56 149 l 56 272 l 542 272 l 542 149 l 56 149 z "},"≤":{"ha":611,"x_min":56,"x_max":556,"o":"m 69 149 l 69 272 l 556 272 l 556 149 l 69 149 m 556 433 l 556 303 l 56 579 l 556 856 l 556 725 l 276 579 l 556 433 z "},"≥":{"ha":611,"x_min":56,"x_max":556,"o":"m 542 149 l 542 272 l 56 272 l 56 149 l 542 149 m 335 579 l 56 725 l 56 856 l 556 579 l 56 303 l 56 433 l 335 579 z "},"‡":{"ha":440,"x_min":-14,"x_max":472,"o":"m -14 204 l -14 328 l 165 328 l 165 788 l -14 788 l -14 911 l 165 911 l 165 1104 l 290 1104 l 290 911 l 472 911 l 472 788 l 290 788 l 290 328 l 472 328 l 472 204 l 290 204 l 290 7 l 165 7 l 165 204 l -14 204 z "},"˙":{"ha":276,"x_min":69,"x_max":207,"o":"m 138 831 q 90 851 110 831 q 69 899 69 871 q 90 947 69 926 q 138 968 110 968 q 186 947 165 968 q 207 899 207 926 q 186 851 207 871 q 138 831 165 831 z "},"÷":{"ha":597,"x_min":56,"x_max":542,"o":"m 297 228 q 249 248 269 228 q 229 296 229 268 q 249 344 229 324 q 297 365 269 365 q 346 344 325 365 q 367 296 367 324 q 346 248 367 268 q 297 228 325 228 m 297 614 q 249 634 269 614 q 229 682 229 654 q 249 731 229 710 q 297 751 269 751 q 346 731 325 751 q 367 682 367 710 q 346 634 367 654 q 297 614 325 614 m 56 426 l 56 550 l 542 550 l 542 426 l 56 426 z "},"‚":{"ha":301,"x_min":42,"x_max":211,"o":"m 161 -218 l 58 -196 l 99 -90 q 103 -60 103 -76 q 90 -16 103 -32 q 42 13 76 0 l 106 74 q 188 19 164 53 q 211 -61 211 -14 q 201 -114 211 -87 l 161 -218 z "},"„":{"ha":482,"x_min":42,"x_max":392,"o":"m 161 -222 l 58 -200 l 99 -94 q 103 -64 103 -81 q 90 -20 103 -36 q 42 8 76 -4 l 106 69 q 188 15 164 49 q 211 -65 211 -18 q 201 -118 211 -92 l 161 -222 m 342 -222 l 239 -200 l 279 -94 q 283 -64 283 -81 q 270 -20 283 -36 q 222 8 257 -4 l 286 69 q 368 15 344 49 q 392 -65 392 -18 q 382 -118 392 -92 l 342 -222 z "},"˝":{"ha":499,"x_min":69,"x_max":483,"o":"m 344 881 l 236 881 l 376 1063 l 483 1063 l 344 881 m 178 881 l 69 881 l 210 1063 l 317 1063 l 178 881 z "},"˛":{"ha":751,"x_min":160,"x_max":475,"o":"m 311 -33 q 285 -49 297 -39 q 265 -69 274 -57 q 257 -100 257 -81 q 275 -145 257 -128 q 321 -162 293 -162 q 360 -154 342 -162 q 408 -122 379 -146 l 475 -183 q 397 -244 431 -228 q 324 -260 364 -260 q 260 -249 290 -260 q 208 -217 231 -237 q 173 -167 186 -196 q 160 -103 160 -137 q 194 -8 160 -49 q 268 56 228 33 l 311 -33 z "},"∂":{"ha":601,"x_min":69,"x_max":553,"o":"m 400 607 q 387 651 400 635 q 347 667 374 667 l 254 667 q 194 607 194 667 l 194 379 q 203 316 194 340 q 254 292 211 292 l 340 292 q 390 310 381 292 q 400 379 400 329 l 400 607 m 407 -47 q 385 -10 407 -19 q 340 -1 364 -1 l 254 -1 q 209 -10 231 -1 q 188 -47 188 -19 l 188 -64 q 209 -97 188 -92 q 254 -103 231 -103 l 340 -103 q 385 -97 364 -103 q 407 -64 407 -92 l 407 -47 m 340 167 q 290 160 311 165 q 268 147 268 156 q 269 137 268 143 q 278 124 271 131 q 299 114 285 118 q 340 110 314 110 q 413 99 379 110 q 471 67 446 88 q 510 17 496 46 q 525 -47 525 -12 l 525 -64 q 474 -178 525 -135 q 340 -221 424 -221 l 254 -221 q 120 -178 171 -221 q 69 -64 69 -135 l 69 -47 q 78 5 69 -18 q 102 45 88 28 q 135 75 117 63 q 171 93 153 88 q 140 154 140 119 q 150 190 140 175 q 106 228 122 206 q 82 276 90 251 q 72 328 74 301 q 69 379 69 356 l 69 607 q 84 679 69 646 q 124 738 99 713 q 182 777 149 763 q 254 792 215 792 l 553 792 l 553 724 l 483 724 q 525 607 525 674 l 525 379 q 522 319 525 356 q 501 249 519 283 q 447 191 483 215 q 340 167 410 167 z "},"":{"ha":878,"x_min":0,"x_max":878,"o":"m 478 907 q 458 908 468 908 q 439 908 449 908 q 419 908 428 908 q 400 907 410 908 l 275 1025 l 357 1025 l 438 940 l 519 1025 l 603 1025 l 478 907 m 878 422 q 843 252 878 332 q 749 113 808 172 q 609 18 689 53 q 439 -17 529 -17 q 267 18 347 -17 q 128 113 188 53 q 35 252 69 172 q 0 422 0 332 q 35 592 0 513 q 128 732 69 672 q 267 826 188 792 q 439 861 347 861 q 609 826 529 861 q 749 732 689 792 q 843 592 808 672 q 878 422 878 513 m 814 422 q 785 569 814 500 q 704 688 756 638 q 585 769 653 739 q 439 799 517 799 q 292 769 361 799 q 173 688 224 739 q 92 569 122 638 q 63 422 63 500 q 92 276 63 344 q 173 156 122 207 q 292 76 224 106 q 439 46 361 46 q 585 76 517 46 q 704 156 653 106 q 785 276 756 207 q 814 422 814 344 m 636 283 q 618 216 636 244 q 570 169 600 188 q 501 142 540 151 q 421 133 463 133 q 326 151 371 133 q 242 188 281 168 l 254 253 q 349 209 303 222 q 432 196 394 196 q 523 219 489 196 q 557 278 557 242 q 535 328 557 307 q 478 369 513 350 q 406 408 444 389 q 333 449 367 426 q 276 501 299 472 q 254 568 254 529 q 272 637 254 610 q 315 681 289 664 q 374 704 342 697 q 436 711 407 711 q 490 704 465 711 q 536 688 515 697 q 574 668 557 678 q 604 651 592 658 l 589 592 q 515 636 554 622 q 440 650 476 650 q 360 628 390 650 q 329 574 329 607 q 352 524 329 544 q 409 488 375 504 q 483 454 443 471 q 556 415 522 438 q 613 361 590 393 q 636 283 636 329 z "},"ı":{"ha":382,"x_min":90,"x_max":361,"o":"m 361 -14 l 275 -14 q 203 1 236 -14 q 144 40 169 15 q 105 99 119 65 q 90 171 90 133 l 90 778 l 217 778 l 217 171 q 233 127 217 143 q 278 111 250 111 l 361 111 l 361 -14 z "},"~":{"ha":426,"x_min":33,"x_max":394,"o":"m 33 993 q 66 1021 44 1006 q 119 1036 88 1036 q 169 1028 144 1036 q 216 1012 193 1021 q 263 995 239 1003 q 310 988 286 988 q 355 999 338 988 q 388 1026 372 1011 l 394 921 q 363 892 383 908 q 310 876 342 876 q 260 884 285 876 q 213 901 236 892 q 167 917 190 910 q 119 925 143 925 q 74 914 92 925 q 40 888 56 903 l 33 993 z "},"≠":{"ha":597,"x_min":56,"x_max":542,"o":"m 56 299 l 56 424 l 218 424 l 254 550 l 56 550 l 56 675 l 290 675 l 314 757 l 425 757 l 401 675 l 542 675 l 542 550 l 365 550 l 329 424 l 542 424 l 542 299 l 294 299 l 267 200 l 154 200 l 182 299 l 56 299 z "},"∑":{"ha":617,"x_min":69,"x_max":617,"o":"m 203 -14 q 108 25 147 -14 q 69 119 69 64 l 69 608 q 84 680 69 646 q 124 739 99 714 q 182 778 149 764 q 254 793 215 793 l 340 793 q 413 778 379 793 q 471 739 446 764 q 510 680 496 714 q 525 608 525 646 l 525 175 q 543 129 525 147 q 589 111 561 111 l 617 111 l 617 -14 l 586 -14 q 481 18 528 -14 q 414 101 435 50 q 378 74 404 93 q 322 35 353 56 q 258 1 290 15 q 203 -14 226 -14 m 194 119 q 203 111 194 111 q 265 129 231 111 q 329 169 299 147 q 400 226 365 194 l 400 608 q 384 652 400 636 q 340 668 368 668 l 254 668 q 210 652 226 668 q 194 608 194 636 l 194 119 z "},"Ð":{"ha":643,"x_min":69,"x_max":567,"o":"m 139 1111 l 367 1111 q 445 1097 408 1111 q 509 1057 482 1082 q 551 997 536 1032 q 567 919 567 961 l 567 200 q 551 122 567 158 q 509 59 536 86 q 445 16 482 32 q 367 0 408 0 l 139 0 l 139 539 l 69 539 l 69 663 l 139 663 l 139 1111 m 264 986 l 264 663 l 342 663 l 342 539 l 264 539 l 264 125 l 367 125 q 421 146 400 125 q 442 200 442 167 l 442 919 q 421 969 442 951 q 367 986 400 986 l 264 986 z "},"^":{"ha":486,"x_min":43,"x_max":456,"o":"m 251 993 l 247 993 l 154 885 l 43 885 l 215 1090 l 283 1090 l 456 885 l 344 885 l 251 993 z "},"А":{"ha":633,"x_min":14,"x_max":619,"o":"m 494 0 l 444 269 l 188 269 l 139 0 l 14 0 l 193 1072 q 213 1104 196 1089 q 253 1119 231 1119 l 376 1119 q 416 1105 399 1119 q 436 1072 433 1090 l 619 0 l 494 0 m 331 976 q 328 986 331 982 q 317 994 322 994 l 313 994 q 302 988 304 994 q 299 976 300 981 l 206 394 l 426 394 l 331 976 z "},"В":{"ha":650,"x_min":97,"x_max":581,"o":"m 456 414 q 440 474 456 442 q 396 518 424 506 l 222 518 l 222 125 l 413 125 q 444 136 433 125 q 456 167 456 147 l 456 414 m 397 643 q 435 687 425 656 q 444 742 444 718 l 444 944 q 434 974 444 961 q 404 988 424 988 l 222 988 l 222 643 l 397 643 m 404 1111 q 469 1098 439 1111 q 522 1062 499 1085 q 558 1009 544 1039 q 571 944 571 979 l 571 744 q 541 646 571 690 q 464 581 511 601 q 548 517 515 561 q 581 414 581 472 l 581 167 q 567 102 581 132 q 531 49 554 72 q 478 13 508 26 q 414 0 449 0 l 97 0 l 97 1111 l 404 1111 z "},"Е":{"ha":525,"x_min":97,"x_max":497,"o":"m 222 986 l 222 675 l 460 675 l 460 550 l 222 550 l 222 125 l 497 125 l 497 0 l 97 0 l 97 1111 l 497 1111 l 497 986 l 222 986 z "},"К":{"ha":689,"x_min":97,"x_max":689,"o":"m 447 926 q 509 1012 478 978 q 570 1067 540 1046 q 630 1098 600 1088 q 689 1111 660 1108 l 689 986 q 670 982 683 985 q 641 973 657 979 q 610 956 625 967 q 583 926 594 944 l 401 619 l 401 607 l 689 0 l 558 0 l 297 551 l 221 551 l 221 0 l 97 0 l 97 1111 l 221 1111 l 221 675 l 297 675 l 447 926 z "},"Н":{"ha":674,"x_min":97,"x_max":576,"o":"m 576 1111 l 576 0 l 451 0 l 451 551 l 222 551 l 222 0 l 97 0 l 97 1111 l 222 1111 l 222 675 l 451 675 l 451 1111 l 576 1111 z "},"М":{"ha":964,"x_min":83,"x_max":881,"o":"m 839 1111 l 881 0 l 756 0 l 715 986 l 701 986 l 544 14 l 419 14 l 264 986 l 250 986 l 208 0 l 83 0 l 126 1111 l 375 1111 l 482 306 l 592 1111 l 839 1111 z "},"О":{"ha":636,"x_min":76,"x_max":560,"o":"m 435 919 q 414 974 435 953 q 360 994 393 994 l 276 994 q 222 974 243 994 q 201 919 201 953 l 201 186 q 222 132 201 153 q 276 111 243 111 l 360 111 q 414 132 393 111 q 435 186 435 153 l 435 919 m 560 186 q 544 108 560 144 q 502 45 529 72 q 438 2 475 18 q 360 -14 401 -14 l 276 -14 q 199 2 235 -14 q 135 45 163 18 q 92 108 108 72 q 76 186 76 144 l 76 919 q 92 998 76 961 q 135 1062 108 1035 q 199 1104 163 1089 q 276 1119 235 1119 l 360 1119 q 438 1104 401 1119 q 502 1062 475 1089 q 544 998 529 1035 q 560 919 560 961 l 560 186 z "},"Р":{"ha":617,"x_min":97,"x_max":575,"o":"m 222 986 l 222 600 l 375 600 q 429 621 408 600 q 450 675 450 642 l 450 919 q 429 969 450 951 q 375 986 408 986 l 222 986 m 97 1111 l 375 1111 q 453 1097 417 1111 q 517 1057 490 1082 q 560 997 544 1032 q 575 919 575 961 l 575 675 q 560 597 575 633 q 517 534 544 561 q 453 491 490 507 q 375 475 417 475 l 222 475 l 222 0 l 97 0 l 97 1111 z "},"С":{"ha":629,"x_min":76,"x_max":560,"o":"m 435 406 l 560 406 l 560 186 q 544 108 560 144 q 502 45 529 72 q 438 2 475 18 q 360 -14 401 -14 l 276 -14 q 199 2 235 -14 q 135 45 163 18 q 92 108 108 72 q 76 186 76 144 l 76 919 q 92 998 76 961 q 135 1062 108 1035 q 199 1104 163 1089 q 276 1119 235 1119 l 360 1119 q 438 1104 401 1119 q 502 1062 475 1089 q 544 998 529 1035 q 560 919 560 961 l 560 744 l 435 744 l 435 919 q 414 974 435 953 q 360 994 393 994 l 276 994 q 222 974 243 994 q 201 919 201 953 l 201 186 q 222 132 201 153 q 276 111 243 111 l 360 111 q 402 117 388 111 q 423 132 417 122 q 431 156 429 142 q 432 186 432 169 l 432 406 l 435 406 z "},"Т":{"ha":514,"x_min":0,"x_max":514,"o":"m 319 986 l 319 0 l 194 0 l 194 986 l 0 986 l 0 1111 l 514 1111 l 514 986 l 319 986 z "},"Х":{"ha":611,"x_min":28,"x_max":583,"o":"m 406 1111 l 532 1111 l 368 632 l 583 0 l 457 0 l 306 499 l 154 0 l 28 0 l 242 632 l 81 1111 l 207 1111 l 306 765 l 406 1111 z "},"Ѕ":{"ha":603,"x_min":63,"x_max":540,"o":"m 540 186 q 525 108 540 144 q 483 45 510 72 q 419 2 456 18 q 340 -14 382 -14 l 263 -14 q 185 2 221 -14 q 122 45 149 18 q 78 108 94 72 q 63 186 63 144 l 63 392 l 188 392 l 188 186 q 208 132 188 153 q 263 111 229 111 l 340 111 q 394 132 374 111 q 415 186 415 153 l 415 293 q 400 399 415 356 q 359 473 385 442 q 297 528 333 504 q 219 576 261 551 q 104 688 146 621 q 63 843 63 754 l 63 919 q 78 998 63 961 q 122 1062 94 1035 q 185 1104 149 1089 q 263 1119 221 1119 l 340 1119 q 419 1104 382 1119 q 483 1062 456 1089 q 525 998 510 1035 q 540 919 540 961 l 415 919 q 394 974 415 953 q 340 994 374 994 l 263 994 q 208 974 229 994 q 188 919 188 953 l 188 843 q 200 776 188 804 q 235 724 213 747 q 290 682 258 701 q 357 640 321 663 q 431 585 397 617 q 488 510 464 553 q 526 415 513 468 q 540 293 540 361 l 540 186 z "},"Ј":{"ha":596,"x_min":42,"x_max":519,"o":"m 519 1111 l 519 186 q 504 108 519 144 q 462 45 489 72 q 398 2 435 18 q 319 -14 361 -14 l 242 -14 q 164 2 200 -14 q 101 45 128 18 q 58 108 74 72 q 42 186 42 144 l 42 406 l 167 406 l 167 186 q 188 132 167 153 q 242 111 208 111 l 319 111 q 374 132 353 111 q 394 186 394 153 l 394 1111 l 519 1111 z "},"Г":{"ha":499,"x_min":97,"x_max":499,"o":"m 499 1111 l 499 986 l 222 986 l 222 0 l 97 0 l 97 1111 l 499 1111 z "},"П":{"ha":674,"x_min":97,"x_max":576,"o":"m 576 1111 l 576 0 l 451 0 l 451 988 l 222 988 l 222 0 l 97 0 l 97 1111 l 576 1111 z "},"І":{"ha":333,"x_min":104,"x_max":229,"o":"m 229 0 l 104 0 l 104 1111 l 229 1111 l 229 0 z "},"Л":{"ha":753,"x_min":0,"x_max":656,"o":"m 15 113 q 85 119 57 113 q 130 135 113 125 q 155 158 147 146 q 164 182 163 171 l 201 1113 l 656 1113 l 656 0 l 531 0 l 531 988 l 325 988 l 289 182 q 268 105 288 140 q 213 43 249 69 q 128 2 178 17 q 15 -12 78 -12 l 0 -12 l 0 113 l 15 113 z "},"Ё":{"ha":525,"x_min":97,"x_max":497,"o":"m 222 986 l 222 675 l 460 675 l 460 550 l 222 550 l 222 125 l 497 125 l 497 0 l 97 0 l 97 1111 l 497 1111 l 497 986 l 222 986 m 206 1135 q 160 1153 179 1135 q 142 1199 142 1172 q 160 1246 142 1226 q 206 1265 179 1265 q 253 1246 233 1265 q 272 1199 272 1226 q 253 1153 272 1172 q 206 1135 233 1135 m 367 1135 q 320 1153 339 1135 q 301 1199 301 1172 q 320 1246 301 1226 q 367 1265 339 1265 q 412 1246 393 1265 q 431 1199 431 1226 q 412 1153 431 1172 q 367 1135 393 1135 z "},"Ї":{"ha":311,"x_min":11,"x_max":300,"o":"m 219 0 l 94 0 l 94 1111 l 219 1111 l 219 0 m 75 1140 q 30 1159 49 1140 q 11 1204 11 1178 q 30 1251 11 1232 q 75 1271 49 1271 q 122 1251 103 1271 q 142 1204 142 1232 q 122 1159 142 1178 q 75 1140 103 1140 m 236 1140 q 190 1159 208 1140 q 171 1204 171 1178 q 190 1251 171 1232 q 236 1271 208 1271 q 281 1251 263 1271 q 300 1204 300 1232 q 281 1159 300 1178 q 236 1140 263 1140 z "},"Ь":{"ha":615,"x_min":83,"x_max":539,"o":"m 539 171 q 524 99 539 133 q 485 40 510 65 q 426 1 460 15 q 354 -14 393 -14 l 268 -14 q 196 1 229 -14 q 138 40 163 15 q 98 99 113 65 q 83 171 83 133 l 83 1113 l 208 1113 l 208 692 q 281 742 244 719 q 345 776 311 761 q 407 792 379 792 q 501 753 463 792 q 539 658 539 714 l 539 171 m 415 603 q 410 649 415 632 q 397 665 406 665 q 356 651 386 665 q 293 617 325 636 q 210 567 256 594 l 210 171 q 225 127 210 143 q 268 111 240 111 l 354 111 q 398 127 382 111 q 414 171 414 143 l 415 603 z "},"Ы":{"ha":910,"x_min":83,"x_max":814,"o":"m 539 171 q 524 99 539 133 q 485 40 510 65 q 426 1 460 15 q 354 -14 393 -14 l 268 -14 q 196 1 229 -14 q 138 40 163 15 q 98 99 113 65 q 83 171 83 133 l 83 1113 l 208 1113 l 208 692 q 281 742 244 719 q 345 776 311 761 q 407 792 379 792 q 501 753 463 792 q 539 658 539 714 l 539 171 m 415 603 q 410 649 415 632 q 397 665 406 665 q 356 651 386 665 q 293 617 325 636 q 210 567 256 594 l 210 171 q 225 127 210 143 q 268 111 240 111 l 354 111 q 398 127 382 111 q 414 171 414 143 l 415 603 m 814 0 l 689 0 l 689 1111 l 814 1111 l 814 0 z "},"Б":{"ha":615,"x_min":83,"x_max":539,"o":"m 539 171 q 524 99 539 133 q 485 40 510 65 q 426 1 460 15 q 354 -14 393 -14 l 268 -14 q 196 1 229 -14 q 138 40 163 15 q 98 99 113 65 q 83 171 83 133 l 83 1113 l 485 1113 l 485 988 l 208 988 l 208 692 q 281 742 244 719 q 345 776 311 761 q 407 792 379 792 q 501 753 463 792 q 539 658 539 714 l 539 171 m 415 603 q 410 649 415 632 q 397 665 406 665 q 356 651 386 665 q 293 617 325 636 q 210 567 256 594 l 210 171 q 225 127 210 143 q 268 111 240 111 l 354 111 q 398 127 382 111 q 414 171 414 143 l 415 603 z "},"Ъ":{"ha":865,"x_min":0,"x_max":789,"o":"m 789 171 q 774 99 789 133 q 735 40 760 65 q 676 1 710 15 q 604 -14 643 -14 l 518 -14 q 446 1 479 -14 q 388 40 413 15 q 348 99 363 65 q 333 171 333 133 l 333 988 l 0 988 l 0 1113 l 458 1113 l 458 692 q 531 742 494 719 q 595 776 561 761 q 657 792 629 792 q 751 753 713 792 q 789 658 789 714 l 789 171 m 665 603 q 660 649 665 632 q 647 665 656 665 q 606 651 636 665 q 543 617 575 636 q 460 567 506 594 l 460 171 q 475 127 460 143 q 518 111 490 111 l 604 111 q 648 127 632 111 q 664 171 664 143 l 665 603 z "},"Љ":{"ha":1063,"x_min":0,"x_max":986,"o":"m 986 171 q 972 99 986 133 q 932 40 957 65 q 874 1 907 15 q 801 -14 840 -14 l 715 -14 q 643 1 676 -14 q 585 40 610 15 q 545 99 560 65 q 531 171 531 133 l 531 988 l 325 988 l 289 182 q 268 104 288 140 q 213 42 249 68 q 128 1 178 17 q 15 -14 78 -14 l 0 -14 l 0 111 l 15 111 q 85 118 57 111 q 130 135 113 125 q 155 158 147 146 q 164 182 163 171 l 201 1113 l 656 1113 l 656 692 q 728 742 692 719 q 792 776 758 761 q 854 792 826 792 q 948 753 910 792 q 986 658 986 714 l 986 171 m 863 603 q 858 649 863 632 q 844 665 853 665 q 803 651 833 665 q 740 617 772 636 q 657 567 703 594 l 657 171 q 672 127 657 143 q 715 111 688 111 l 801 111 q 845 127 829 111 q 861 171 861 143 l 863 603 z "},"Ф":{"ha":706,"x_min":76,"x_max":629,"o":"m 417 0 l 292 0 l 292 125 l 276 125 q 199 141 235 125 q 135 184 163 157 q 92 247 108 211 q 76 325 76 283 l 76 781 q 92 859 76 822 q 135 923 108 896 q 199 965 163 950 q 276 981 235 981 l 292 981 l 292 1111 l 417 1111 l 417 981 l 429 981 q 508 965 471 981 q 572 923 544 950 q 614 859 599 896 q 629 781 629 822 l 629 325 q 614 247 629 283 q 572 184 599 211 q 508 141 544 157 q 429 125 471 125 l 417 125 l 417 0 m 201 781 l 201 325 q 222 271 201 292 q 276 250 243 250 l 292 250 l 292 856 l 276 856 q 222 835 243 856 q 201 781 201 814 m 504 781 q 483 835 504 814 q 429 856 463 856 l 417 856 l 417 250 l 429 250 q 483 271 463 250 q 504 325 504 292 l 504 781 z "},"Ю":{"ha":903,"x_min":97,"x_max":826,"o":"m 826 186 q 811 108 826 144 q 769 45 796 72 q 705 2 742 18 q 626 -14 668 -14 l 543 -14 q 465 2 501 -14 q 402 45 429 18 q 359 108 375 72 q 343 186 343 144 l 343 551 l 222 551 l 222 0 l 97 0 l 97 1111 l 222 1111 l 222 675 l 343 675 l 343 919 q 359 998 343 961 q 402 1062 375 1035 q 465 1104 429 1089 q 543 1119 501 1119 l 626 1119 q 705 1104 668 1119 q 769 1062 742 1089 q 811 998 796 1035 q 826 919 826 961 l 826 186 m 701 919 q 681 974 701 953 q 626 994 660 994 l 543 994 q 489 974 510 994 q 468 919 468 953 l 468 186 q 489 132 468 153 q 543 111 510 111 l 626 111 q 681 132 660 111 q 701 186 701 153 l 701 919 z "},"Ч":{"ha":643,"x_min":83,"x_max":539,"o":"m 539 1111 l 539 -12 l 414 -12 l 414 517 q 343 467 379 489 q 278 432 313 447 q 217 417 244 417 q 122 456 161 417 q 83 550 83 494 l 83 1111 l 208 1111 l 208 606 q 213 560 208 576 q 226 543 218 543 q 268 558 238 543 q 331 593 299 574 q 414 642 368 615 l 414 1111 l 539 1111 z "},"И":{"ha":729,"x_min":97,"x_max":632,"o":"m 507 0 l 507 775 l 222 46 l 222 0 l 97 0 l 97 1111 l 222 1111 l 222 338 l 507 1067 l 507 1111 l 632 1111 l 632 0 l 507 0 z "},"Я":{"ha":650,"x_min":56,"x_max":553,"o":"m 553 0 l 428 0 l 428 544 l 379 544 l 183 0 l 56 0 l 251 546 q 182 567 214 550 q 126 611 150 585 q 88 672 101 638 q 75 744 75 706 l 75 919 q 91 997 75 961 q 134 1057 107 1032 q 197 1097 161 1082 q 275 1111 233 1111 l 553 1111 l 553 0 m 275 986 q 221 969 242 986 q 200 919 200 951 l 200 744 q 221 690 200 711 q 275 669 242 669 l 428 669 l 428 986 l 275 986 z "},"Д":{"ha":850,"x_min":14,"x_max":850,"o":"m 685 1113 l 685 124 l 850 124 l 850 -126 l 725 -126 l 725 0 l 14 0 l 14 126 l 29 126 q 144 142 113 126 q 178 182 175 158 l 215 1113 l 685 1113 m 560 124 l 560 988 l 339 988 l 303 182 q 289 124 300 147 l 560 124 z "},"Ж":{"ha":1022,"x_min":14,"x_max":1008,"o":"m 578 675 l 617 675 l 767 926 q 828 1012 797 978 q 890 1067 860 1046 q 949 1098 919 1088 q 1008 1111 979 1108 l 1008 986 q 990 982 1003 985 q 960 973 976 979 q 929 956 944 967 q 903 926 914 944 l 721 619 l 721 607 l 1008 0 l 878 0 l 617 551 l 578 551 l 578 0 l 453 0 l 453 551 l 406 551 l 144 0 l 14 0 l 301 607 l 301 619 l 119 926 q 93 956 108 944 q 62 973 78 967 q 33 982 46 979 q 14 986 21 985 l 14 1111 q 73 1098 43 1108 q 133 1067 103 1088 q 194 1012 163 1046 q 256 926 225 978 l 406 675 l 453 675 l 453 1111 l 578 1111 l 578 675 z "},"Ц":{"ha":756,"x_min":97,"x_max":742,"o":"m 742 -126 l 617 -126 l 617 0 l 97 0 l 97 1111 l 222 1111 l 222 124 l 451 124 l 451 1111 l 576 1111 l 576 124 l 742 124 l 742 -126 z "},"Щ":{"ha":1026,"x_min":97,"x_max":1013,"o":"m 722 1111 l 847 1111 l 847 124 l 1013 124 l 1013 -126 l 888 -126 l 888 0 l 97 0 l 97 1111 l 222 1111 l 222 124 l 410 124 l 410 1111 l 535 1111 l 535 124 l 722 124 l 722 1111 z "},"Ш":{"ha":944,"x_min":97,"x_max":847,"o":"m 97 0 l 97 1111 l 222 1111 l 222 124 l 410 124 l 410 1111 l 535 1111 l 535 124 l 722 124 l 722 1111 l 847 1111 l 847 0 l 97 0 z "},"Й":{"ha":729,"x_min":97,"x_max":632,"o":"m 507 0 l 507 775 l 222 46 l 222 0 l 97 0 l 97 1111 l 222 1111 l 222 338 l 507 1067 l 507 1111 l 632 1111 l 632 0 l 507 0 m 499 1267 q 460 1172 499 1211 q 365 1133 421 1133 q 271 1172 310 1133 q 232 1267 232 1211 l 329 1267 q 365 1231 329 1231 q 401 1267 401 1231 l 499 1267 z "},"Э":{"ha":629,"x_min":69,"x_max":553,"o":"m 194 407 l 194 186 q 215 132 194 153 q 269 111 236 111 l 353 111 q 407 132 386 111 q 428 186 428 153 l 428 522 l 142 522 l 142 647 l 428 647 l 428 919 q 407 974 428 953 q 353 994 386 994 l 269 994 q 215 974 236 994 q 194 919 194 953 l 194 746 l 69 746 l 69 919 q 85 998 69 961 q 128 1062 101 1035 q 192 1104 156 1089 q 269 1119 228 1119 l 353 1119 q 431 1104 394 1119 q 495 1062 468 1089 q 538 998 522 1035 q 553 919 553 961 l 553 186 q 538 108 553 144 q 495 45 522 72 q 431 2 468 18 q 353 -14 394 -14 l 269 -14 q 192 2 228 -14 q 128 45 156 18 q 85 108 101 72 q 69 186 69 144 l 69 407 l 194 407 z "},"З":{"ha":600,"x_min":69,"x_max":524,"o":"m 389 943 q 373 976 389 967 q 324 985 357 985 l 72 985 l 72 1110 l 325 1110 q 461 1068 408 1110 q 514 943 514 1026 l 514 774 q 510 727 514 751 q 498 680 507 703 q 474 639 489 657 q 435 610 458 621 q 477 581 460 600 q 505 539 494 563 q 519 490 515 515 q 524 443 524 465 l 524 160 q 471 35 524 76 q 335 -7 418 -7 l 256 -7 q 121 35 172 -7 q 69 160 69 76 l 69 392 l 194 392 l 194 160 q 208 127 194 136 q 256 118 222 118 l 333 118 q 383 127 367 118 q 399 160 399 136 l 399 443 q 393 470 399 454 q 378 500 388 486 q 354 524 368 514 q 324 533 340 533 l 151 533 l 151 658 l 324 658 q 353 672 340 658 q 373 705 365 686 q 385 743 381 724 q 389 774 389 763 l 389 943 z "},"Ğ":{"ha":624,"x_min":76,"x_max":554,"o":"m 354 111 l 276 111 q 222 132 243 111 q 201 186 201 153 l 201 919 q 222 974 201 953 q 276 994 243 994 l 354 994 q 408 974 388 994 q 429 919 429 953 l 429 744 l 554 744 l 554 919 q 539 998 554 961 q 497 1062 524 1035 q 433 1104 469 1089 q 354 1119 396 1119 l 276 1119 q 199 1104 235 1119 q 135 1062 163 1089 q 92 998 108 1035 q 76 919 76 961 l 76 186 q 92 108 76 144 q 135 45 108 72 q 199 2 163 18 q 276 -14 235 -14 l 354 -14 q 433 2 396 -14 q 497 45 469 18 q 539 108 524 72 q 554 186 554 144 l 554 572 l 288 572 l 288 447 l 429 447 l 429 186 q 428 168 429 181 q 419 143 426 156 q 397 121 411 131 q 354 111 382 111 m 454 1301 q 415 1207 454 1246 q 321 1168 376 1168 q 226 1207 265 1168 q 188 1301 188 1246 l 285 1301 q 321 1265 285 1265 q 357 1301 357 1265 l 454 1301 z "},"ğ":{"ha":594,"x_min":69,"x_max":525,"o":"m 194 196 q 203 188 194 188 q 265 206 231 188 q 329 246 299 224 q 400 303 365 271 l 400 608 q 384 652 400 636 q 340 668 368 668 l 254 668 q 210 652 226 668 q 194 608 194 636 l 194 196 m 401 168 q 329 115 365 139 q 265 79 299 96 q 203 63 231 63 q 108 101 147 63 q 69 196 69 140 l 69 608 q 84 680 69 646 q 124 739 99 714 q 182 778 149 764 q 254 793 215 793 l 340 793 q 413 778 379 793 q 471 739 446 764 q 510 680 496 714 q 525 608 525 646 l 525 -47 q 511 -119 525 -86 q 472 -177 497 -153 q 414 -215 447 -201 q 342 -229 381 -229 l 256 -229 q 183 -215 217 -229 q 125 -175 150 -200 q 85 -117 100 -150 q 71 -44 71 -83 l 71 -14 l 196 -14 l 196 -44 q 212 -88 196 -72 q 256 -104 228 -104 l 342 -104 q 385 -88 369 -104 q 401 -44 401 -72 l 401 168 m 433 1000 q 394 906 433 944 q 300 867 356 867 q 206 906 244 867 q 167 1000 167 944 l 264 1000 q 300 964 264 964 q 336 1000 336 964 l 433 1000 z "},"İ":{"ha":329,"x_min":96,"x_max":233,"o":"m 226 0 l 101 0 l 101 1111 l 226 1111 l 226 0 m 164 1151 q 116 1172 136 1151 q 96 1219 96 1192 q 116 1268 96 1247 q 164 1289 136 1289 q 213 1268 192 1289 q 233 1219 233 1247 q 213 1172 233 1192 q 164 1151 192 1151 z "},"Ş":{"ha":603,"x_min":63,"x_max":540,"o":"m 218 -239 q 255 -255 242 -250 q 283 -260 268 -260 q 340 -242 319 -260 q 361 -196 361 -224 q 344 -152 361 -172 q 299 -132 328 -132 l 225 -132 l 242 -12 q 171 8 204 -8 q 114 51 138 25 q 76 113 90 78 q 63 186 63 147 l 63 392 l 188 392 l 188 186 q 208 132 188 153 q 263 111 229 111 l 340 111 q 394 132 374 111 q 415 186 415 153 l 415 293 q 400 399 415 356 q 359 473 385 442 q 297 528 333 504 q 219 576 261 551 q 104 688 146 621 q 63 843 63 754 l 63 919 q 78 998 63 961 q 122 1062 94 1035 q 185 1104 149 1089 q 263 1119 221 1119 l 340 1119 q 419 1104 382 1119 q 483 1062 456 1089 q 525 998 510 1035 q 540 919 540 961 l 415 919 q 394 974 415 953 q 340 994 374 994 l 263 994 q 208 974 229 994 q 188 919 188 953 l 188 843 q 200 776 188 804 q 235 724 213 747 q 290 682 258 701 q 357 640 321 663 q 431 585 397 617 q 488 510 464 553 q 526 415 513 468 q 540 293 540 361 l 540 186 q 525 108 540 144 q 483 45 510 72 q 419 2 456 18 q 340 -14 382 -14 l 338 -14 l 332 -37 q 423 -95 388 -50 q 458 -196 458 -140 q 446 -258 458 -229 q 410 -310 433 -287 q 355 -344 388 -332 q 283 -357 322 -357 q 232 -348 258 -357 q 169 -315 206 -339 l 218 -239 z "},"ş":{"ha":567,"x_min":56,"x_max":511,"o":"m 183 -239 q 220 -255 207 -250 q 249 -260 233 -260 q 306 -242 285 -260 q 326 -196 326 -224 q 310 -152 326 -172 q 264 -132 293 -132 l 190 -132 l 207 -11 q 98 51 140 0 q 56 171 56 103 l 56 294 l 181 294 l 181 171 q 197 127 181 143 q 240 111 213 111 l 326 111 q 370 127 354 111 q 386 171 386 143 l 386 218 q 363 267 386 242 q 313 314 340 293 q 239 361 279 339 q 147 429 188 393 q 84 499 113 460 q 56 579 56 538 l 56 607 q 70 679 56 646 q 110 738 85 713 q 168 777 135 763 q 240 792 201 792 l 326 792 q 399 777 365 792 q 457 738 432 763 q 497 679 482 713 q 511 607 511 646 l 511 579 l 386 579 l 386 607 q 370 651 386 635 q 326 667 354 667 l 240 667 q 197 651 213 667 q 181 607 181 635 l 181 579 q 205 545 181 568 q 258 499 229 522 q 335 442 293 472 q 424 371 385 408 q 484 299 457 339 q 511 218 511 258 l 511 171 q 497 99 511 133 q 457 40 482 65 q 399 1 432 15 q 326 -14 365 -14 l 303 -14 l 297 -37 q 388 -95 353 -50 q 424 -196 424 -140 q 411 -258 424 -229 q 376 -310 399 -287 q 320 -344 353 -332 q 249 -357 288 -357 q 197 -348 224 -357 q 135 -315 171 -339 l 183 -239 z "},"Є":{"ha":629,"x_min":76,"x_max":560,"o":"m 560 407 l 560 186 q 544 108 560 144 q 502 45 529 72 q 438 2 475 18 q 360 -14 401 -14 l 276 -14 q 199 2 235 -14 q 135 45 163 18 q 92 108 108 72 q 76 186 76 144 l 76 919 q 92 998 76 961 q 135 1062 108 1035 q 199 1104 163 1089 q 276 1119 235 1119 l 360 1119 q 438 1104 401 1119 q 502 1062 475 1089 q 544 998 529 1035 q 560 919 560 961 l 560 746 l 435 746 l 435 919 q 414 974 435 953 q 360 994 393 994 l 276 994 q 222 974 243 994 q 201 919 201 953 l 201 647 l 488 647 l 488 522 l 201 522 l 201 186 q 222 132 201 153 q 276 111 243 111 l 360 111 q 414 132 393 111 q 435 186 435 153 l 435 407 l 560 407 z "},"ё":{"ha":525,"x_min":97,"x_max":497,"o":"m 222 986 l 222 675 l 460 675 l 460 550 l 222 550 l 222 125 l 497 125 l 497 0 l 97 0 l 97 1111 l 497 1111 l 497 986 l 222 986 m 206 1135 q 160 1153 179 1135 q 142 1199 142 1172 q 160 1246 142 1226 q 206 1265 179 1265 q 253 1246 233 1265 q 272 1199 272 1226 q 253 1153 272 1172 q 206 1135 233 1135 m 367 1135 q 320 1153 339 1135 q 301 1199 301 1172 q 320 1246 301 1226 q 367 1265 339 1265 q 412 1246 393 1265 q 431 1199 431 1226 q 412 1153 431 1172 q 367 1135 393 1135 z "},"є":{"ha":629,"x_min":76,"x_max":560,"o":"m 560 407 l 560 186 q 544 108 560 144 q 502 45 529 72 q 438 2 475 18 q 360 -14 401 -14 l 276 -14 q 199 2 235 -14 q 135 45 163 18 q 92 108 108 72 q 76 186 76 144 l 76 919 q 92 998 76 961 q 135 1062 108 1035 q 199 1104 163 1089 q 276 1119 235 1119 l 360 1119 q 438 1104 401 1119 q 502 1062 475 1089 q 544 998 529 1035 q 560 919 560 961 l 560 746 l 435 746 l 435 919 q 414 974 435 953 q 360 994 393 994 l 276 994 q 222 974 243 994 q 201 919 201 953 l 201 647 l 488 647 l 488 522 l 201 522 l 201 186 q 222 132 201 153 q 276 111 243 111 l 360 111 q 414 132 393 111 q 435 186 435 153 l 435 407 l 560 407 z "},"ј":{"ha":596,"x_min":42,"x_max":519,"o":"m 519 1111 l 519 186 q 504 108 519 144 q 462 45 489 72 q 398 2 435 18 q 319 -14 361 -14 l 242 -14 q 164 2 200 -14 q 101 45 128 18 q 58 108 74 72 q 42 186 42 144 l 42 406 l 167 406 l 167 186 q 188 132 167 153 q 242 111 208 111 l 319 111 q 374 132 353 111 q 394 186 394 153 l 394 1111 l 519 1111 z "},"ѕ":{"ha":603,"x_min":63,"x_max":540,"o":"m 540 186 q 525 108 540 144 q 483 45 510 72 q 419 2 456 18 q 340 -14 382 -14 l 263 -14 q 185 2 221 -14 q 122 45 149 18 q 78 108 94 72 q 63 186 63 144 l 63 392 l 188 392 l 188 186 q 208 132 188 153 q 263 111 229 111 l 340 111 q 394 132 374 111 q 415 186 415 153 l 415 293 q 400 399 415 356 q 359 473 385 442 q 297 528 333 504 q 219 576 261 551 q 104 688 146 621 q 63 843 63 754 l 63 919 q 78 998 63 961 q 122 1062 94 1035 q 185 1104 149 1089 q 263 1119 221 1119 l 340 1119 q 419 1104 382 1119 q 483 1062 456 1089 q 525 998 510 1035 q 540 919 540 961 l 415 919 q 394 974 415 953 q 340 994 374 994 l 263 994 q 208 974 229 994 q 188 919 188 953 l 188 843 q 200 776 188 804 q 235 724 213 747 q 290 682 258 701 q 357 640 321 663 q 431 585 397 617 q 488 510 464 553 q 526 415 513 468 q 540 293 540 361 l 540 186 z "},"ї":{"ha":311,"x_min":11,"x_max":300,"o":"m 219 0 l 94 0 l 94 1111 l 219 1111 l 219 0 m 75 1140 q 30 1159 49 1140 q 11 1204 11 1178 q 30 1251 11 1232 q 75 1271 49 1271 q 122 1251 103 1271 q 142 1204 142 1232 q 122 1159 142 1178 q 75 1140 103 1140 m 236 1140 q 190 1159 208 1140 q 171 1204 171 1178 q 190 1251 171 1232 q 236 1271 208 1271 q 281 1251 263 1271 q 300 1204 300 1232 q 281 1159 300 1178 q 236 1140 263 1140 z "},"љ":{"ha":1063,"x_min":0,"x_max":986,"o":"m 986 171 q 972 99 986 133 q 932 40 957 65 q 874 1 907 15 q 801 -14 840 -14 l 715 -14 q 643 1 676 -14 q 585 40 610 15 q 545 99 560 65 q 531 171 531 133 l 531 988 l 325 988 l 289 182 q 268 104 288 140 q 213 42 249 68 q 128 1 178 17 q 15 -14 78 -14 l 0 -14 l 0 111 l 15 111 q 85 118 57 111 q 130 135 113 125 q 155 158 147 146 q 164 182 163 171 l 201 1113 l 656 1113 l 656 692 q 728 742 692 719 q 792 776 758 761 q 854 792 826 792 q 948 753 910 792 q 986 658 986 714 l 986 171 m 863 603 q 858 649 863 632 q 844 665 853 665 q 803 651 833 665 q 740 617 772 636 q 657 567 703 594 l 657 171 q 672 127 657 143 q 715 111 688 111 l 801 111 q 845 127 829 111 q 861 171 861 143 l 863 603 z "},"і":{"ha":333,"x_min":104,"x_max":229,"o":"m 229 0 l 104 0 l 104 1111 l 229 1111 l 229 0 z "},"а":{"ha":633,"x_min":14,"x_max":619,"o":"m 494 0 l 444 269 l 188 269 l 139 0 l 14 0 l 193 1072 q 213 1104 196 1089 q 253 1119 231 1119 l 376 1119 q 416 1105 399 1119 q 436 1072 433 1090 l 619 0 l 494 0 m 331 976 q 328 986 331 982 q 317 994 322 994 l 313 994 q 302 988 304 994 q 299 976 300 981 l 206 394 l 426 394 l 331 976 z "},"б":{"ha":615,"x_min":83,"x_max":539,"o":"m 539 171 q 524 99 539 133 q 485 40 510 65 q 426 1 460 15 q 354 -14 393 -14 l 268 -14 q 196 1 229 -14 q 138 40 163 15 q 98 99 113 65 q 83 171 83 133 l 83 1113 l 485 1113 l 485 988 l 208 988 l 208 692 q 281 742 244 719 q 345 776 311 761 q 407 792 379 792 q 501 753 463 792 q 539 658 539 714 l 539 171 m 415 603 q 410 649 415 632 q 397 665 406 665 q 356 651 386 665 q 293 617 325 636 q 210 567 256 594 l 210 171 q 225 127 210 143 q 268 111 240 111 l 354 111 q 398 127 382 111 q 414 171 414 143 l 415 603 z "},"в":{"ha":650,"x_min":97,"x_max":581,"o":"m 456 414 q 440 474 456 442 q 396 518 424 506 l 222 518 l 222 125 l 413 125 q 444 136 433 125 q 456 167 456 147 l 456 414 m 397 643 q 435 687 425 656 q 444 742 444 718 l 444 944 q 434 974 444 961 q 404 988 424 988 l 222 988 l 222 643 l 397 643 m 404 1111 q 469 1098 439 1111 q 522 1062 499 1085 q 558 1009 544 1039 q 571 944 571 979 l 571 744 q 541 646 571 690 q 464 581 511 601 q 548 517 515 561 q 581 414 581 472 l 581 167 q 567 102 581 132 q 531 49 554 72 q 478 13 508 26 q 414 0 449 0 l 97 0 l 97 1111 l 404 1111 z "},"г":{"ha":499,"x_min":97,"x_max":499,"o":"m 499 1111 l 499 986 l 222 986 l 222 0 l 97 0 l 97 1111 l 499 1111 z "},"д":{"ha":850,"x_min":14,"x_max":850,"o":"m 685 1113 l 685 124 l 850 124 l 850 -126 l 725 -126 l 725 0 l 14 0 l 14 126 l 29 126 q 144 142 113 126 q 178 182 175 158 l 215 1113 l 685 1113 m 560 124 l 560 988 l 339 988 l 303 182 q 289 124 300 147 l 560 124 z "},"е":{"ha":525,"x_min":97,"x_max":497,"o":"m 222 986 l 222 675 l 460 675 l 460 550 l 222 550 l 222 125 l 497 125 l 497 0 l 97 0 l 97 1111 l 497 1111 l 497 986 l 222 986 z "},"ж":{"ha":1022,"x_min":14,"x_max":1008,"o":"m 578 675 l 617 675 l 767 926 q 828 1012 797 978 q 890 1067 860 1046 q 949 1098 919 1088 q 1008 1111 979 1108 l 1008 986 q 990 982 1003 985 q 960 973 976 979 q 929 956 944 967 q 903 926 914 944 l 721 619 l 721 607 l 1008 0 l 878 0 l 617 551 l 578 551 l 578 0 l 453 0 l 453 551 l 406 551 l 144 0 l 14 0 l 301 607 l 301 619 l 119 926 q 93 956 108 944 q 62 973 78 967 q 33 982 46 979 q 14 986 21 985 l 14 1111 q 73 1098 43 1108 q 133 1067 103 1088 q 194 1012 163 1046 q 256 926 225 978 l 406 675 l 453 675 l 453 1111 l 578 1111 l 578 675 z "},"з":{"ha":600,"x_min":69,"x_max":524,"o":"m 389 943 q 373 976 389 967 q 324 985 357 985 l 72 985 l 72 1110 l 325 1110 q 461 1068 408 1110 q 514 943 514 1026 l 514 774 q 510 727 514 751 q 498 680 507 703 q 474 639 489 657 q 435 610 458 621 q 477 581 460 600 q 505 539 494 563 q 519 490 515 515 q 524 443 524 465 l 524 160 q 471 35 524 76 q 335 -7 418 -7 l 256 -7 q 121 35 172 -7 q 69 160 69 76 l 69 392 l 194 392 l 194 160 q 208 127 194 136 q 256 118 222 118 l 333 118 q 383 127 367 118 q 399 160 399 136 l 399 443 q 393 470 399 454 q 378 500 388 486 q 354 524 368 514 q 324 533 340 533 l 151 533 l 151 658 l 324 658 q 353 672 340 658 q 373 705 365 686 q 385 743 381 724 q 389 774 389 763 l 389 943 z "},"и":{"ha":729,"x_min":97,"x_max":632,"o":"m 507 0 l 507 775 l 222 46 l 222 0 l 97 0 l 97 1111 l 222 1111 l 222 338 l 507 1067 l 507 1111 l 632 1111 l 632 0 l 507 0 z "},"й":{"ha":729,"x_min":97,"x_max":632,"o":"m 507 0 l 507 775 l 222 46 l 222 0 l 97 0 l 97 1111 l 222 1111 l 222 338 l 507 1067 l 507 1111 l 632 1111 l 632 0 l 507 0 m 499 1267 q 460 1172 499 1211 q 365 1133 421 1133 q 271 1172 310 1133 q 232 1267 232 1211 l 329 1267 q 365 1231 329 1231 q 401 1267 401 1231 l 499 1267 z "},"к":{"ha":689,"x_min":97,"x_max":689,"o":"m 447 926 q 509 1012 478 978 q 570 1067 540 1046 q 630 1098 600 1088 q 689 1111 660 1108 l 689 986 q 670 982 683 985 q 641 973 657 979 q 610 956 625 967 q 583 926 594 944 l 401 619 l 401 607 l 689 0 l 558 0 l 297 551 l 221 551 l 221 0 l 97 0 l 97 1111 l 221 1111 l 221 675 l 297 675 l 447 926 z "},"л":{"ha":756,"x_min":3,"x_max":658,"o":"m 18 113 q 88 119 60 113 q 133 135 115 125 q 158 158 150 146 q 167 182 165 171 l 204 1113 l 658 1113 l 658 0 l 533 0 l 533 988 l 328 988 l 292 182 q 271 105 290 140 q 216 43 251 69 q 131 2 181 17 q 18 -12 81 -12 l 3 -12 l 3 113 l 18 113 z "},"м":{"ha":964,"x_min":83,"x_max":881,"o":"m 839 1111 l 881 0 l 756 0 l 715 986 l 701 986 l 544 14 l 419 14 l 264 986 l 250 986 l 208 0 l 83 0 l 126 1111 l 375 1111 l 482 306 l 592 1111 l 839 1111 z "},"н":{"ha":674,"x_min":97,"x_max":576,"o":"m 576 1111 l 576 0 l 451 0 l 451 551 l 222 551 l 222 0 l 97 0 l 97 1111 l 222 1111 l 222 675 l 451 675 l 451 1111 l 576 1111 z "},"о":{"ha":636,"x_min":76,"x_max":560,"o":"m 435 919 q 414 974 435 953 q 360 994 393 994 l 276 994 q 222 974 243 994 q 201 919 201 953 l 201 186 q 222 132 201 153 q 276 111 243 111 l 360 111 q 414 132 393 111 q 435 186 435 153 l 435 919 m 560 186 q 544 108 560 144 q 502 45 529 72 q 438 2 475 18 q 360 -14 401 -14 l 276 -14 q 199 2 235 -14 q 135 45 163 18 q 92 108 108 72 q 76 186 76 144 l 76 919 q 92 998 76 961 q 135 1062 108 1035 q 199 1104 163 1089 q 276 1119 235 1119 l 360 1119 q 438 1104 401 1119 q 502 1062 475 1089 q 544 998 529 1035 q 560 919 560 961 l 560 186 z "},"п":{"ha":674,"x_min":97,"x_max":576,"o":"m 576 1111 l 576 0 l 451 0 l 451 988 l 222 988 l 222 0 l 97 0 l 97 1111 l 576 1111 z "},"р":{"ha":617,"x_min":97,"x_max":575,"o":"m 222 986 l 222 600 l 375 600 q 429 621 408 600 q 450 675 450 642 l 450 919 q 429 969 450 951 q 375 986 408 986 l 222 986 m 97 1111 l 375 1111 q 453 1097 417 1111 q 517 1057 490 1082 q 560 997 544 1032 q 575 919 575 961 l 575 675 q 560 597 575 633 q 517 534 544 561 q 453 491 490 507 q 375 475 417 475 l 222 475 l 222 0 l 97 0 l 97 1111 z "},"с":{"ha":629,"x_min":76,"x_max":560,"o":"m 435 406 l 560 406 l 560 186 q 544 108 560 144 q 502 45 529 72 q 438 2 475 18 q 360 -14 401 -14 l 276 -14 q 199 2 235 -14 q 135 45 163 18 q 92 108 108 72 q 76 186 76 144 l 76 919 q 92 998 76 961 q 135 1062 108 1035 q 199 1104 163 1089 q 276 1119 235 1119 l 360 1119 q 438 1104 401 1119 q 502 1062 475 1089 q 544 998 529 1035 q 560 919 560 961 l 560 744 l 435 744 l 435 919 q 414 974 435 953 q 360 994 393 994 l 276 994 q 222 974 243 994 q 201 919 201 953 l 201 186 q 222 132 201 153 q 276 111 243 111 l 360 111 q 402 117 388 111 q 423 132 417 122 q 431 156 429 142 q 432 186 432 169 l 432 406 l 435 406 z "},"т":{"ha":514,"x_min":0,"x_max":514,"o":"m 319 986 l 319 0 l 194 0 l 194 986 l 0 986 l 0 1111 l 514 1111 l 514 986 l 319 986 z "},"у":{"ha":635,"x_min":14,"x_max":621,"o":"m 496 1111 l 621 1111 l 354 1 l 229 1 l 301 306 l 258 306 q 219 320 236 306 q 199 353 201 335 l 14 1111 l 142 1111 l 304 449 q 307 440 304 444 q 312 434 310 438 q 318 431 314 431 l 322 431 q 333 436 329 431 l 496 1111 z "},"ф":{"ha":706,"x_min":76,"x_max":629,"o":"m 417 0 l 292 0 l 292 125 l 276 125 q 199 141 235 125 q 135 184 163 157 q 92 247 108 211 q 76 325 76 283 l 76 781 q 92 859 76 822 q 135 923 108 896 q 199 965 163 950 q 276 981 235 981 l 292 981 l 292 1111 l 417 1111 l 417 981 l 429 981 q 508 965 471 981 q 572 923 544 950 q 614 859 599 896 q 629 781 629 822 l 629 325 q 614 247 629 283 q 572 184 599 211 q 508 141 544 157 q 429 125 471 125 l 417 125 l 417 0 m 201 781 l 201 325 q 222 271 201 292 q 276 250 243 250 l 292 250 l 292 856 l 276 856 q 222 835 243 856 q 201 781 201 814 m 504 781 q 483 835 504 814 q 429 856 463 856 l 417 856 l 417 250 l 429 250 q 483 271 463 250 q 504 325 504 292 l 504 781 z "},"х":{"ha":611,"x_min":28,"x_max":583,"o":"m 406 1111 l 532 1111 l 368 632 l 583 0 l 457 0 l 306 499 l 154 0 l 28 0 l 242 632 l 81 1111 l 207 1111 l 306 765 l 406 1111 z "},"ц":{"ha":756,"x_min":97,"x_max":742,"o":"m 742 -126 l 617 -126 l 617 0 l 97 0 l 97 1111 l 222 1111 l 222 124 l 451 124 l 451 1111 l 576 1111 l 576 124 l 742 124 l 742 -126 z "},"ч":{"ha":643,"x_min":83,"x_max":539,"o":"m 539 1111 l 539 -12 l 414 -12 l 414 517 q 343 467 379 489 q 278 432 313 447 q 217 417 244 417 q 122 456 161 417 q 83 550 83 494 l 83 1111 l 208 1111 l 208 606 q 213 560 208 576 q 226 543 218 543 q 268 558 238 543 q 331 593 299 574 q 414 642 368 615 l 414 1111 l 539 1111 z "},"ш":{"ha":944,"x_min":97,"x_max":847,"o":"m 97 0 l 97 1111 l 222 1111 l 222 124 l 410 124 l 410 1111 l 535 1111 l 535 124 l 722 124 l 722 1111 l 847 1111 l 847 0 l 97 0 z "},"щ":{"ha":1026,"x_min":97,"x_max":1013,"o":"m 722 1111 l 847 1111 l 847 124 l 1013 124 l 1013 -126 l 888 -126 l 888 0 l 97 0 l 97 1111 l 222 1111 l 222 124 l 410 124 l 410 1111 l 535 1111 l 535 124 l 722 124 l 722 1111 z "},"ъ":{"ha":865,"x_min":0,"x_max":789,"o":"m 789 171 q 774 99 789 133 q 735 40 760 65 q 676 1 710 15 q 604 -14 643 -14 l 518 -14 q 446 1 479 -14 q 388 40 413 15 q 348 99 363 65 q 333 171 333 133 l 333 988 l 0 988 l 0 1113 l 458 1113 l 458 692 q 531 742 494 719 q 595 776 561 761 q 657 792 629 792 q 751 753 713 792 q 789 658 789 714 l 789 171 m 665 603 q 660 649 665 632 q 647 665 656 665 q 606 651 636 665 q 543 617 575 636 q 460 567 506 594 l 460 171 q 475 127 460 143 q 518 111 490 111 l 604 111 q 648 127 632 111 q 664 171 664 143 l 665 603 z "},"ы":{"ha":910,"x_min":83,"x_max":814,"o":"m 539 171 q 524 99 539 133 q 485 40 510 65 q 426 1 460 15 q 354 -14 393 -14 l 268 -14 q 196 1 229 -14 q 138 40 163 15 q 98 99 113 65 q 83 171 83 133 l 83 1113 l 208 1113 l 208 692 q 281 742 244 719 q 345 776 311 761 q 407 792 379 792 q 501 753 463 792 q 539 658 539 714 l 539 171 m 415 603 q 410 649 415 632 q 397 665 406 665 q 356 651 386 665 q 293 617 325 636 q 210 567 256 594 l 210 171 q 225 127 210 143 q 268 111 240 111 l 354 111 q 398 127 382 111 q 414 171 414 143 l 415 603 m 814 0 l 689 0 l 689 1111 l 814 1111 l 814 0 z "},"ь":{"ha":615,"x_min":83,"x_max":539,"o":"m 539 171 q 524 99 539 133 q 485 40 510 65 q 426 1 460 15 q 354 -14 393 -14 l 268 -14 q 196 1 229 -14 q 138 40 163 15 q 98 99 113 65 q 83 171 83 133 l 83 1113 l 208 1113 l 208 692 q 281 742 244 719 q 345 776 311 761 q 407 792 379 792 q 501 753 463 792 q 539 658 539 714 l 539 171 m 415 603 q 410 649 415 632 q 397 665 406 665 q 356 651 386 665 q 293 617 325 636 q 210 567 256 594 l 210 171 q 225 127 210 143 q 268 111 240 111 l 354 111 q 398 127 382 111 q 414 171 414 143 l 415 603 z "},"э":{"ha":629,"x_min":69,"x_max":553,"o":"m 194 407 l 194 186 q 215 132 194 153 q 269 111 236 111 l 353 111 q 407 132 386 111 q 428 186 428 153 l 428 522 l 142 522 l 142 647 l 428 647 l 428 919 q 407 974 428 953 q 353 994 386 994 l 269 994 q 215 974 236 994 q 194 919 194 953 l 194 746 l 69 746 l 69 919 q 85 998 69 961 q 128 1062 101 1035 q 192 1104 156 1089 q 269 1119 228 1119 l 353 1119 q 431 1104 394 1119 q 495 1062 468 1089 q 538 998 522 1035 q 553 919 553 961 l 553 186 q 538 108 553 144 q 495 45 522 72 q 431 2 468 18 q 353 -14 394 -14 l 269 -14 q 192 2 228 -14 q 128 45 156 18 q 85 108 101 72 q 69 186 69 144 l 69 407 l 194 407 z "},"ю":{"ha":903,"x_min":97,"x_max":826,"o":"m 826 186 q 811 108 826 144 q 769 45 796 72 q 705 2 742 18 q 626 -14 668 -14 l 543 -14 q 465 2 501 -14 q 402 45 429 18 q 359 108 375 72 q 343 186 343 144 l 343 551 l 222 551 l 222 0 l 97 0 l 97 1111 l 222 1111 l 222 675 l 343 675 l 343 919 q 359 998 343 961 q 402 1062 375 1035 q 465 1104 429 1089 q 543 1119 501 1119 l 626 1119 q 705 1104 668 1119 q 769 1062 742 1089 q 811 998 796 1035 q 826 919 826 961 l 826 186 m 701 919 q 681 974 701 953 q 626 994 660 994 l 543 994 q 489 974 510 994 q 468 919 468 953 l 468 186 q 489 132 468 153 q 543 111 510 111 l 626 111 q 681 132 660 111 q 701 186 701 153 l 701 919 z "},"я":{"ha":650,"x_min":56,"x_max":553,"o":"m 553 0 l 428 0 l 428 544 l 379 544 l 183 0 l 56 0 l 251 546 q 182 567 214 550 q 126 611 150 585 q 88 672 101 638 q 75 744 75 706 l 75 919 q 91 997 75 961 q 134 1057 107 1032 q 197 1097 161 1082 q 275 1111 233 1111 l 553 1111 l 553 0 m 275 986 q 221 969 242 986 q 200 919 200 951 l 200 744 q 221 690 200 711 q 275 669 242 669 l 428 669 l 428 986 l 275 986 z "},"Ћ":{"ha":726,"x_min":0,"x_max":650,"o":"m 525 601 q 520 647 525 631 q 507 664 515 664 q 465 649 496 664 q 403 615 435 635 q 319 565 365 593 l 319 0 l 194 0 l 194 986 l 0 986 l 0 1111 l 514 1111 l 514 986 l 319 986 l 319 692 q 390 742 354 719 q 455 776 421 761 q 517 790 489 790 q 611 751 572 790 q 650 657 650 713 l 650 0 l 525 0 l 525 601 z "},"ћ":{"ha":726,"x_min":0,"x_max":650,"o":"m 525 601 q 520 647 525 631 q 507 664 515 664 q 465 649 496 664 q 403 615 435 635 q 319 565 365 593 l 319 0 l 194 0 l 194 986 l 0 986 l 0 1111 l 514 1111 l 514 986 l 319 986 l 319 692 q 390 742 354 719 q 455 776 421 761 q 517 790 489 790 q 611 751 572 790 q 650 657 650 713 l 650 0 l 525 0 l 525 601 z "},"Ђ":{"ha":726,"x_min":0,"x_max":650,"o":"m 379 -92 l 463 -92 q 508 -76 490 -92 q 525 -32 525 -60 l 525 601 q 520 647 525 631 q 507 664 515 664 q 465 649 496 664 q 403 615 435 635 q 319 565 365 593 l 319 0 l 194 0 l 194 986 l 0 986 l 0 1111 l 514 1111 l 514 986 l 319 986 l 319 692 q 390 742 354 719 q 455 776 421 761 q 517 790 489 790 q 611 751 572 790 q 650 657 650 713 l 650 -32 q 635 -103 650 -69 q 596 -162 621 -137 q 538 -202 571 -187 q 465 -217 504 -217 l 379 -217 l 379 -92 z "},"ђ":{"ha":726,"x_min":0,"x_max":650,"o":"m 379 -92 l 463 -92 q 508 -76 490 -92 q 525 -32 525 -60 l 525 601 q 520 647 525 631 q 507 664 515 664 q 465 649 496 664 q 403 615 435 635 q 319 565 365 593 l 319 0 l 194 0 l 194 986 l 0 986 l 0 1111 l 514 1111 l 514 986 l 319 986 l 319 692 q 390 742 354 719 q 455 776 421 761 q 517 790 489 790 q 611 751 572 790 q 650 657 650 713 l 650 -32 q 635 -103 650 -69 q 596 -162 621 -137 q 538 -202 571 -187 q 465 -217 504 -217 l 379 -217 l 379 -92 z "},"Њ":{"ha":1093,"x_min":97,"x_max":1017,"o":"m 1017 171 q 1002 99 1017 133 q 963 40 988 65 q 904 1 938 15 q 832 -14 871 -14 l 746 -14 q 674 1 707 -14 q 615 40 640 15 q 576 99 590 65 q 561 171 561 133 l 561 551 l 222 551 l 222 0 l 97 0 l 97 1111 l 222 1111 l 222 675 l 561 675 l 561 1113 l 686 1113 l 686 692 q 758 742 722 719 q 823 776 789 761 q 885 792 857 792 q 978 753 940 792 q 1017 658 1017 714 l 1017 171 m 893 603 q 888 649 893 632 q 875 665 883 665 q 833 651 864 665 q 771 617 803 636 q 688 567 733 594 l 688 171 q 703 127 688 143 q 746 111 718 111 l 832 111 q 876 127 860 111 q 892 171 892 143 l 893 603 z "},"њ":{"ha":1093,"x_min":97,"x_max":1017,"o":"m 1017 171 q 1002 99 1017 133 q 963 40 988 65 q 904 1 938 15 q 832 -14 871 -14 l 746 -14 q 674 1 707 -14 q 615 40 640 15 q 576 99 590 65 q 561 171 561 133 l 561 551 l 222 551 l 222 0 l 97 0 l 97 1111 l 222 1111 l 222 675 l 561 675 l 561 1113 l 686 1113 l 686 692 q 758 742 722 719 q 823 776 789 761 q 885 792 857 792 q 978 753 940 792 q 1017 658 1017 714 l 1017 171 m 893 603 q 888 649 893 632 q 875 665 883 665 q 833 651 864 665 q 771 617 803 636 q 688 567 733 594 l 688 171 q 703 127 688 143 q 746 111 718 111 l 832 111 q 876 127 860 111 q 892 171 892 143 l 893 603 z "},"Ѓ":{"ha":499,"x_min":97,"x_max":499,"o":"m 499 1111 l 499 986 l 222 986 l 222 0 l 97 0 l 97 1111 l 499 1111 m 325 1179 l 204 1179 l 344 1361 l 465 1361 l 325 1179 z "},"ѓ":{"ha":499,"x_min":97,"x_max":499,"o":"m 499 1111 l 499 986 l 222 986 l 222 0 l 97 0 l 97 1111 l 499 1111 m 325 1179 l 204 1179 l 344 1361 l 465 1361 l 325 1179 z "},"Ќ":{"ha":689,"x_min":97,"x_max":689,"o":"m 297 675 l 221 675 l 221 1111 l 97 1111 l 97 0 l 221 0 l 221 551 l 297 551 l 558 0 l 689 0 l 401 607 l 401 619 l 583 926 q 610 956 594 944 q 641 973 625 967 q 670 982 657 979 q 689 986 683 985 l 689 1111 q 630 1098 660 1108 q 570 1067 600 1088 q 509 1012 540 1046 q 447 926 478 978 l 297 675 m 442 1108 l 321 1108 l 461 1290 l 582 1290 l 442 1108 z "},"ќ":{"ha":689,"x_min":97,"x_max":689,"o":"m 297 675 l 221 675 l 221 1111 l 97 1111 l 97 0 l 221 0 l 221 551 l 297 551 l 558 0 l 689 0 l 401 607 l 401 619 l 583 926 q 610 956 594 944 q 641 973 625 967 q 670 982 657 979 q 689 986 683 985 l 689 1111 q 630 1098 660 1108 q 570 1067 600 1088 q 509 1012 540 1046 q 447 926 478 978 l 297 675 m 442 1108 l 321 1108 l 461 1290 l 582 1290 l 442 1108 z "},"У":{"ha":635,"x_min":14,"x_max":621,"o":"m 496 1111 l 621 1111 l 354 1 l 229 1 l 301 306 l 258 306 q 219 320 236 306 q 199 353 201 335 l 14 1111 l 142 1111 l 304 449 q 307 440 304 444 q 312 434 310 438 q 318 431 314 431 l 322 431 q 333 436 329 431 l 496 1111 z "},"Ў":{"ha":635,"x_min":14,"x_max":621,"o":"m 496 1111 l 621 1111 l 354 1 l 229 1 l 301 306 l 258 306 q 219 320 236 306 q 199 353 201 335 l 14 1111 l 142 1111 l 304 449 q 307 440 304 444 q 312 434 310 438 q 318 431 314 431 l 322 431 q 333 436 329 431 l 496 1111 m 457 1233 q 418 1139 457 1178 q 324 1100 379 1100 q 229 1139 268 1100 q 190 1233 190 1178 l 288 1233 q 324 1197 288 1197 q 360 1233 360 1197 l 457 1233 z "},"ў":{"ha":635,"x_min":14,"x_max":621,"o":"m 496 1111 l 621 1111 l 354 1 l 229 1 l 301 306 l 258 306 q 219 320 236 306 q 199 353 201 335 l 14 1111 l 142 1111 l 304 449 q 307 440 304 444 q 312 434 310 438 q 318 431 314 431 l 322 431 q 333 436 329 431 l 496 1111 m 457 1233 q 418 1139 457 1178 q 324 1100 379 1100 q 229 1139 268 1100 q 190 1233 190 1178 l 288 1233 q 324 1197 288 1197 q 360 1233 360 1197 l 457 1233 z "},"№":{"ha":1128,"x_min":97,"x_max":1065,"o":"m 426 0 l 229 986 l 222 986 l 222 0 l 97 0 l 97 1111 l 319 1111 l 514 125 l 521 125 l 521 1111 l 646 1111 l 646 0 l 426 0 m 953 686 q 945 701 953 696 q 933 707 938 707 l 872 707 q 860 701 868 707 q 851 686 851 694 l 851 439 q 860 424 851 429 q 872 418 868 418 l 932 418 q 944 424 936 418 q 953 439 953 429 l 953 686 m 1050 432 q 1017 353 1050 386 q 939 321 985 321 l 865 321 q 786 353 818 321 q 754 432 754 386 l 754 693 q 786 772 754 740 q 865 804 818 804 l 939 804 q 1017 772 985 804 q 1050 693 1050 740 l 1050 432 m 740 167 l 740 263 l 1065 263 l 1065 167 l 740 167 z "},"Џ":{"ha":674,"x_min":97,"x_max":576,"o":"m 406 0 l 406 -217 l 281 -217 l 281 0 l 97 0 l 97 1111 l 222 1111 l 222 124 l 451 124 l 451 1111 l 576 1111 l 576 0 l 406 0 z "},"џ":{"ha":674,"x_min":97,"x_max":576,"o":"m 406 0 l 406 -217 l 281 -217 l 281 0 l 97 0 l 97 1111 l 222 1111 l 222 124 l 451 124 l 451 1111 l 576 1111 l 576 0 l 406 0 z "},"΄":{"ha":435,"x_min":125,"x_max":386,"o":"m 246 931 l 125 931 l 265 1113 l 386 1113 l 246 931 z "},"Α":{"ha":633,"x_min":14,"x_max":619,"o":"m 494 0 l 444 269 l 188 269 l 139 0 l 14 0 l 193 1072 q 213 1104 196 1089 q 253 1119 231 1119 l 376 1119 q 416 1105 399 1119 q 436 1072 433 1090 l 619 0 l 494 0 m 331 976 q 328 986 331 982 q 317 994 322 994 l 313 994 q 302 988 304 994 q 299 976 300 981 l 206 394 l 426 394 l 331 976 z "},"Β":{"ha":650,"x_min":97,"x_max":581,"o":"m 456 414 q 440 474 456 442 q 396 518 424 506 l 222 518 l 222 125 l 413 125 q 444 136 433 125 q 456 167 456 147 l 456 414 m 397 643 q 435 687 425 656 q 444 742 444 718 l 444 944 q 434 974 444 961 q 404 988 424 988 l 222 988 l 222 643 l 397 643 m 404 1111 q 469 1098 439 1111 q 522 1062 499 1085 q 558 1009 544 1039 q 571 944 571 979 l 571 744 q 541 646 571 690 q 464 581 511 601 q 548 517 515 561 q 581 414 581 472 l 581 167 q 567 102 581 132 q 531 49 554 72 q 478 13 508 26 q 414 0 449 0 l 97 0 l 97 1111 l 404 1111 z "},"Ε":{"ha":525,"x_min":97,"x_max":497,"o":"m 222 986 l 222 675 l 460 675 l 460 550 l 222 550 l 222 125 l 497 125 l 497 0 l 97 0 l 97 1111 l 497 1111 l 497 986 l 222 986 z "},"Ζ":{"ha":556,"x_min":21,"x_max":535,"o":"m 21 0 l 369 986 l 21 986 l 21 1111 l 535 1111 l 188 125 l 535 125 l 535 0 l 21 0 z "},"Η":{"ha":674,"x_min":97,"x_max":576,"o":"m 576 1111 l 576 0 l 451 0 l 451 551 l 222 551 l 222 0 l 97 0 l 97 1111 l 222 1111 l 222 675 l 451 675 l 451 1111 l 576 1111 z "},"Ι":{"ha":333,"x_min":104,"x_max":229,"o":"m 229 0 l 104 0 l 104 1111 l 229 1111 l 229 0 z "},"Κ":{"ha":689,"x_min":97,"x_max":689,"o":"m 221 0 l 97 0 l 97 1111 l 221 1111 l 221 675 l 297 675 l 558 1111 l 689 1111 l 401 619 l 401 607 l 689 0 l 558 0 l 297 551 l 221 551 l 221 0 z "},"Λ":{"ha":633,"x_min":14,"x_max":619,"o":"m 331 976 q 328 986 331 982 q 317 994 322 994 l 313 994 q 302 988 304 994 q 299 976 300 981 l 139 0 l 14 0 l 193 1072 q 213 1104 196 1089 q 253 1119 231 1119 l 376 1119 q 416 1105 399 1119 q 436 1072 433 1090 l 619 0 l 494 0 l 331 976 z "},"Μ":{"ha":964,"x_min":83,"x_max":881,"o":"m 839 1111 l 881 0 l 756 0 l 715 986 l 701 986 l 544 14 l 419 14 l 264 986 l 250 986 l 208 0 l 83 0 l 126 1111 l 375 1111 l 482 306 l 592 1111 l 839 1111 z "},"Ν":{"ha":743,"x_min":97,"x_max":646,"o":"m 426 0 l 229 986 l 222 986 l 222 0 l 97 0 l 97 1111 l 319 1111 l 514 125 l 521 125 l 521 1111 l 646 1111 l 646 0 l 426 0 z "},"Ο":{"ha":636,"x_min":76,"x_max":560,"o":"m 435 919 q 414 974 435 953 q 360 994 393 994 l 276 994 q 222 974 243 994 q 201 919 201 953 l 201 186 q 222 132 201 153 q 276 111 243 111 l 360 111 q 414 132 393 111 q 435 186 435 153 l 435 919 m 560 186 q 544 108 560 144 q 502 45 529 72 q 438 2 475 18 q 360 -14 401 -14 l 276 -14 q 199 2 235 -14 q 135 45 163 18 q 92 108 108 72 q 76 186 76 144 l 76 919 q 92 998 76 961 q 135 1062 108 1035 q 199 1104 163 1089 q 276 1119 235 1119 l 360 1119 q 438 1104 401 1119 q 502 1062 475 1089 q 544 998 529 1035 q 560 919 560 961 l 560 186 z "},"Π":{"ha":674,"x_min":97,"x_max":576,"o":"m 576 1111 l 576 0 l 451 0 l 451 988 l 222 988 l 222 0 l 97 0 l 97 1111 l 576 1111 z "},"Ρ":{"ha":617,"x_min":97,"x_max":575,"o":"m 222 986 l 222 600 l 375 600 q 429 621 408 600 q 450 675 450 642 l 450 919 q 429 969 450 951 q 375 986 408 986 l 222 986 m 97 1111 l 375 1111 q 453 1097 417 1111 q 517 1057 490 1082 q 560 997 544 1032 q 575 919 575 961 l 575 675 q 560 597 575 633 q 517 534 544 561 q 453 491 490 507 q 375 475 417 475 l 222 475 l 222 0 l 97 0 l 97 1111 z "},"Τ":{"ha":514,"x_min":0,"x_max":514,"o":"m 319 986 l 319 0 l 194 0 l 194 986 l 0 986 l 0 1111 l 514 1111 l 514 986 l 319 986 z "},"Υ":{"ha":635,"x_min":14,"x_max":621,"o":"m 496 1111 l 621 1111 l 442 353 q 421 321 438 336 q 382 306 404 306 l 382 0 l 258 0 l 258 306 q 219 320 236 306 q 199 353 201 335 l 14 1111 l 142 1111 l 304 449 q 307 440 304 444 q 312 434 310 438 q 318 431 314 431 l 322 431 q 333 438 331 431 q 336 449 335 444 l 496 1111 z "},"Φ":{"ha":706,"x_min":76,"x_max":629,"o":"m 417 0 l 292 0 l 292 125 l 276 125 q 199 141 235 125 q 135 184 163 157 q 92 247 108 211 q 76 325 76 283 l 76 781 q 92 859 76 822 q 135 923 108 896 q 199 965 163 950 q 276 981 235 981 l 292 981 l 292 1111 l 417 1111 l 417 981 l 429 981 q 508 965 471 981 q 572 923 544 950 q 614 859 599 896 q 629 781 629 822 l 629 325 q 614 247 629 283 q 572 184 599 211 q 508 141 544 157 q 429 125 471 125 l 417 125 l 417 0 m 201 781 l 201 325 q 222 271 201 292 q 276 250 243 250 l 292 250 l 292 856 l 276 856 q 222 835 243 856 q 201 781 201 814 m 504 781 q 483 835 504 814 q 429 856 463 856 l 417 856 l 417 250 l 429 250 q 483 271 463 250 q 504 325 504 292 l 504 781 z "},"Χ":{"ha":611,"x_min":28,"x_max":583,"o":"m 406 1111 l 532 1111 l 368 632 l 583 0 l 457 0 l 306 499 l 154 0 l 28 0 l 242 632 l 81 1111 l 207 1111 l 306 765 l 406 1111 z "},"Ψ":{"ha":608,"x_min":28,"x_max":581,"o":"m 367 0 l 242 0 l 242 496 l 228 496 q 150 512 186 496 q 87 555 114 528 q 44 618 60 582 q 28 696 28 654 l 28 1111 l 153 1111 l 153 696 q 174 642 153 663 q 228 621 194 621 l 242 621 l 242 1111 l 367 1111 l 367 621 l 381 621 q 435 642 414 621 q 456 696 456 663 l 456 1111 l 581 1111 l 581 696 q 565 618 581 654 q 523 555 550 582 q 459 512 496 528 q 381 496 422 496 l 367 496 l 367 0 z "},"Γ":{"ha":499,"x_min":97,"x_max":499,"o":"m 499 1111 l 499 986 l 222 986 l 222 0 l 97 0 l 97 1111 l 499 1111 z "},"Ξ":{"ha":785,"x_min":97,"x_max":688,"o":"m 629 1111 l 629 833 l 504 833 l 504 988 l 275 988 l 275 833 l 150 833 l 150 1111 l 629 1111 m 97 0 l 97 458 l 222 458 l 222 124 l 563 124 l 563 458 l 688 458 l 688 0 l 97 0 m 211 551 l 211 675 l 572 675 l 572 551 l 211 551 z "},"Θ":{"ha":636,"x_min":76,"x_max":560,"o":"m 229 538 l 229 633 l 407 633 l 407 538 l 229 538 m 435 919 q 414 974 435 953 q 360 994 393 994 l 276 994 q 222 974 243 994 q 201 919 201 953 l 201 186 q 222 132 201 153 q 276 111 243 111 l 360 111 q 414 132 393 111 q 435 186 435 153 l 435 919 m 560 186 q 544 108 560 144 q 502 45 529 72 q 438 2 475 18 q 360 -14 401 -14 l 276 -14 q 199 2 235 -14 q 135 45 163 18 q 92 108 108 72 q 76 186 76 144 l 76 919 q 92 998 76 961 q 135 1062 108 1035 q 199 1104 163 1089 q 276 1119 235 1119 l 360 1119 q 438 1104 401 1119 q 502 1062 475 1089 q 544 998 529 1035 q 560 919 560 961 l 560 186 z "},"Σ":{"ha":600,"x_min":69,"x_max":586,"o":"m 389 560 l 236 126 l 583 126 l 583 1 l 69 1 l 267 558 l 72 1111 l 586 1111 l 586 986 l 238 986 l 389 560 z "},"α":{"ha":633,"x_min":14,"x_max":619,"o":"m 494 0 l 444 269 l 188 269 l 139 0 l 14 0 l 193 1072 q 213 1104 196 1089 q 253 1119 231 1119 l 376 1119 q 416 1105 399 1119 q 436 1072 433 1090 l 619 0 l 494 0 m 331 976 q 328 986 331 982 q 317 994 322 994 l 313 994 q 302 988 304 994 q 299 976 300 981 l 206 394 l 426 394 l 331 976 z "},"β":{"ha":650,"x_min":97,"x_max":581,"o":"m 456 414 q 440 474 456 442 q 396 518 424 506 l 222 518 l 222 125 l 413 125 q 444 136 433 125 q 456 167 456 147 l 456 414 m 397 643 q 435 687 425 656 q 444 742 444 718 l 444 944 q 434 974 444 961 q 404 988 424 988 l 222 988 l 222 643 l 397 643 m 404 1111 q 469 1098 439 1111 q 522 1062 499 1085 q 558 1009 544 1039 q 571 944 571 979 l 571 744 q 541 646 571 690 q 464 581 511 601 q 548 517 515 561 q 581 414 581 472 l 581 167 q 567 102 581 132 q 531 49 554 72 q 478 13 508 26 q 414 0 449 0 l 97 0 l 97 1111 l 404 1111 z "},"γ":{"ha":499,"x_min":97,"x_max":499,"o":"m 499 1111 l 499 986 l 222 986 l 222 0 l 97 0 l 97 1111 l 499 1111 z "},"δ":{"ha":633,"x_min":14,"x_max":619,"o":"m 193 1072 q 213 1104 196 1089 q 253 1119 231 1119 l 376 1119 q 416 1105 399 1119 q 436 1072 433 1090 l 619 0 l 14 0 l 193 1072 m 158 125 l 474 125 l 331 976 q 328 986 331 982 q 317 994 322 994 l 313 994 q 302 988 304 994 q 299 976 300 981 l 158 125 z "},"ε":{"ha":525,"x_min":97,"x_max":497,"o":"m 222 986 l 222 675 l 460 675 l 460 550 l 222 550 l 222 125 l 497 125 l 497 0 l 97 0 l 97 1111 l 497 1111 l 497 986 l 222 986 z "},"ζ":{"ha":556,"x_min":21,"x_max":535,"o":"m 21 0 l 369 986 l 21 986 l 21 1111 l 535 1111 l 188 125 l 535 125 l 535 0 l 21 0 z "},"η":{"ha":674,"x_min":97,"x_max":576,"o":"m 576 1111 l 576 0 l 451 0 l 451 551 l 222 551 l 222 0 l 97 0 l 97 1111 l 222 1111 l 222 675 l 451 675 l 451 1111 l 576 1111 z "},"θ":{"ha":636,"x_min":76,"x_max":560,"o":"m 229 538 l 229 633 l 407 633 l 407 538 l 229 538 m 435 919 q 414 974 435 953 q 360 994 393 994 l 276 994 q 222 974 243 994 q 201 919 201 953 l 201 186 q 222 132 201 153 q 276 111 243 111 l 360 111 q 414 132 393 111 q 435 186 435 153 l 435 919 m 560 186 q 544 108 560 144 q 502 45 529 72 q 438 2 475 18 q 360 -14 401 -14 l 276 -14 q 199 2 235 -14 q 135 45 163 18 q 92 108 108 72 q 76 186 76 144 l 76 919 q 92 998 76 961 q 135 1062 108 1035 q 199 1104 163 1089 q 276 1119 235 1119 l 360 1119 q 438 1104 401 1119 q 502 1062 475 1089 q 544 998 529 1035 q 560 919 560 961 l 560 186 z "},"ι":{"ha":333,"x_min":104,"x_max":229,"o":"m 229 0 l 104 0 l 104 1111 l 229 1111 l 229 0 z "},"κ":{"ha":689,"x_min":97,"x_max":689,"o":"m 221 0 l 97 0 l 97 1111 l 221 1111 l 221 675 l 297 675 l 558 1111 l 689 1111 l 401 619 l 401 607 l 689 0 l 558 0 l 297 551 l 221 551 l 221 0 z "},"λ":{"ha":633,"x_min":14,"x_max":619,"o":"m 331 976 q 328 986 331 982 q 317 994 322 994 l 313 994 q 302 988 304 994 q 299 976 300 981 l 139 0 l 14 0 l 193 1072 q 213 1104 196 1089 q 253 1119 231 1119 l 376 1119 q 416 1105 399 1119 q 436 1072 433 1090 l 619 0 l 494 0 l 331 976 z "},"ν":{"ha":743,"x_min":97,"x_max":646,"o":"m 426 0 l 229 986 l 222 986 l 222 0 l 97 0 l 97 1111 l 319 1111 l 514 125 l 521 125 l 521 1111 l 646 1111 l 646 0 l 426 0 z "},"ξ":{"ha":785,"x_min":97,"x_max":688,"o":"m 629 1111 l 629 833 l 504 833 l 504 988 l 275 988 l 275 833 l 150 833 l 150 1111 l 629 1111 m 97 0 l 97 458 l 222 458 l 222 124 l 563 124 l 563 458 l 688 458 l 688 0 l 97 0 m 211 551 l 211 675 l 572 675 l 572 551 l 211 551 z "},"ο":{"ha":636,"x_min":76,"x_max":560,"o":"m 435 919 q 414 974 435 953 q 360 994 393 994 l 276 994 q 222 974 243 994 q 201 919 201 953 l 201 186 q 222 132 201 153 q 276 111 243 111 l 360 111 q 414 132 393 111 q 435 186 435 153 l 435 919 m 560 186 q 544 108 560 144 q 502 45 529 72 q 438 2 475 18 q 360 -14 401 -14 l 276 -14 q 199 2 235 -14 q 135 45 163 18 q 92 108 108 72 q 76 186 76 144 l 76 919 q 92 998 76 961 q 135 1062 108 1035 q 199 1104 163 1089 q 276 1119 235 1119 l 360 1119 q 438 1104 401 1119 q 502 1062 475 1089 q 544 998 529 1035 q 560 919 560 961 l 560 186 z "},"ρ":{"ha":617,"x_min":97,"x_max":575,"o":"m 222 986 l 222 600 l 375 600 q 429 621 408 600 q 450 675 450 642 l 450 919 q 429 969 450 951 q 375 986 408 986 l 222 986 m 97 1111 l 375 1111 q 453 1097 417 1111 q 517 1057 490 1082 q 560 997 544 1032 q 575 919 575 961 l 575 675 q 560 597 575 633 q 517 534 544 561 q 453 491 490 507 q 375 475 417 475 l 222 475 l 222 0 l 97 0 l 97 1111 z "},"σ":{"ha":600,"x_min":69,"x_max":586,"o":"m 389 560 l 236 126 l 583 126 l 583 1 l 69 1 l 267 558 l 72 1111 l 586 1111 l 586 986 l 238 986 l 389 560 z "},"τ":{"ha":514,"x_min":0,"x_max":514,"o":"m 319 986 l 319 0 l 194 0 l 194 986 l 0 986 l 0 1111 l 514 1111 l 514 986 l 319 986 z "},"υ":{"ha":635,"x_min":14,"x_max":621,"o":"m 496 1111 l 621 1111 l 442 353 q 421 321 438 336 q 382 306 404 306 l 382 0 l 258 0 l 258 306 q 219 320 236 306 q 199 353 201 335 l 14 1111 l 142 1111 l 304 449 q 307 440 304 444 q 312 434 310 438 q 318 431 314 431 l 322 431 q 333 438 331 431 q 336 449 335 444 l 496 1111 z "},"φ":{"ha":706,"x_min":76,"x_max":629,"o":"m 417 0 l 292 0 l 292 125 l 276 125 q 199 141 235 125 q 135 184 163 157 q 92 247 108 211 q 76 325 76 283 l 76 781 q 92 859 76 822 q 135 923 108 896 q 199 965 163 950 q 276 981 235 981 l 292 981 l 292 1111 l 417 1111 l 417 981 l 429 981 q 508 965 471 981 q 572 923 544 950 q 614 859 599 896 q 629 781 629 822 l 629 325 q 614 247 629 283 q 572 184 599 211 q 508 141 544 157 q 429 125 471 125 l 417 125 l 417 0 m 201 781 l 201 325 q 222 271 201 292 q 276 250 243 250 l 292 250 l 292 856 l 276 856 q 222 835 243 856 q 201 781 201 814 m 504 781 q 483 835 504 814 q 429 856 463 856 l 417 856 l 417 250 l 429 250 q 483 271 463 250 q 504 325 504 292 l 504 781 z "},"χ":{"ha":611,"x_min":28,"x_max":583,"o":"m 406 1111 l 532 1111 l 368 632 l 583 0 l 457 0 l 306 499 l 154 0 l 28 0 l 242 632 l 81 1111 l 207 1111 l 306 765 l 406 1111 z "},"ψ":{"ha":608,"x_min":28,"x_max":581,"o":"m 367 0 l 242 0 l 242 496 l 228 496 q 150 512 186 496 q 87 555 114 528 q 44 618 60 582 q 28 696 28 654 l 28 1111 l 153 1111 l 153 696 q 174 642 153 663 q 228 621 194 621 l 242 621 l 242 1111 l 367 1111 l 367 621 l 381 621 q 435 642 414 621 q 456 696 456 663 l 456 1111 l 581 1111 l 581 696 q 565 618 581 654 q 523 555 550 582 q 459 512 496 528 q 381 496 422 496 l 367 496 l 367 0 z "},"ω":{"ha":636,"x_min":72,"x_max":560,"o":"m 272 994 q 218 974 239 994 q 197 919 197 953 l 197 397 q 218 344 197 364 q 258 324 239 324 l 258 0 l 92 0 l 92 125 l 147 125 l 147 240 q 92 308 113 268 q 72 397 72 349 l 72 919 q 88 998 72 961 q 131 1062 104 1035 q 194 1104 158 1089 q 272 1119 231 1119 l 360 1119 q 438 1104 401 1119 q 502 1062 475 1089 q 544 998 529 1035 q 560 919 560 961 l 560 397 q 539 308 560 349 q 485 240 518 268 l 485 125 l 540 125 l 540 0 l 374 0 l 374 324 q 414 344 393 324 q 435 397 435 364 l 435 919 q 414 974 435 953 q 360 994 393 994 l 272 994 z "},"ς":{"ha":600,"x_min":69,"x_max":586,"o":"m 389 560 l 236 126 l 583 126 l 583 1 l 69 1 l 267 558 l 72 1111 l 586 1111 l 586 986 l 238 986 l 389 560 z "},"΅":{"ha":581,"x_min":51,"x_max":536,"o":"m 286 860 l 165 860 l 306 1042 l 426 1042 l 286 860 m 115 881 q 163 899 143 881 q 182 944 182 918 q 163 992 182 972 q 115 1011 143 1011 q 70 992 89 1011 q 51 944 51 972 q 70 899 51 918 q 115 881 89 881 m 472 881 q 517 899 499 881 q 536 944 536 918 q 517 992 536 972 q 472 1011 499 1011 q 426 992 444 1011 q 407 944 407 972 q 426 899 407 918 q 472 881 444 881 z "},"Ά":{"ha":688,"x_min":-31,"x_max":674,"o":"m 549 0 l 499 269 l 242 269 l 193 0 l 68 0 l 247 1072 q 267 1104 250 1089 q 307 1119 285 1119 l 431 1119 q 470 1105 453 1119 q 490 1072 488 1090 l 674 0 l 549 0 m 385 976 q 382 986 385 982 q 371 994 376 994 l 367 994 q 356 988 358 994 q 353 976 354 981 l 260 394 l 481 394 l 385 976 m 90 928 l -31 928 l 110 1110 l 231 1110 l 90 928 z "},"ά":{"ha":688,"x_min":-31,"x_max":674,"o":"m 549 0 l 499 269 l 242 269 l 193 0 l 68 0 l 247 1072 q 267 1104 250 1089 q 307 1119 285 1119 l 431 1119 q 470 1105 453 1119 q 490 1072 488 1090 l 674 0 l 549 0 m 385 976 q 382 986 385 982 q 371 994 376 994 l 367 994 q 356 988 358 994 q 353 976 354 981 l 260 394 l 481 394 l 385 976 m 90 928 l -31 928 l 110 1110 l 231 1110 l 90 928 z "},"Ϊ":{"ha":311,"x_min":11,"x_max":300,"o":"m 219 0 l 94 0 l 94 1111 l 219 1111 l 219 0 m 75 1140 q 30 1159 49 1140 q 11 1204 11 1178 q 30 1251 11 1232 q 75 1271 49 1271 q 122 1251 103 1271 q 142 1204 142 1232 q 122 1159 142 1178 q 75 1140 103 1140 m 236 1140 q 190 1159 208 1140 q 171 1204 171 1178 q 190 1251 171 1232 q 236 1271 208 1271 q 281 1251 263 1271 q 300 1204 300 1232 q 281 1159 300 1178 q 236 1140 263 1140 z "},"Ϋ":{"ha":635,"x_min":14,"x_max":621,"o":"m 496 1111 l 621 1111 l 442 353 q 421 321 438 336 q 382 306 404 306 l 382 0 l 258 0 l 258 306 q 219 320 236 306 q 199 353 201 335 l 14 1110 l 142 1110 l 304 449 q 307 440 304 444 q 312 434 310 438 q 318 431 314 431 l 322 431 q 333 438 331 431 q 336 449 335 444 l 496 1111 m 238 1131 q 192 1149 211 1131 q 174 1194 174 1168 q 192 1242 174 1222 q 238 1261 211 1261 q 285 1242 265 1261 q 304 1194 304 1222 q 285 1149 304 1168 q 238 1131 265 1131 m 399 1131 q 352 1149 371 1131 q 333 1194 333 1168 q 352 1242 333 1222 q 399 1261 371 1261 q 444 1242 425 1261 q 463 1194 463 1222 q 444 1149 463 1168 q 399 1131 425 1131 z "},"ϊ":{"ha":311,"x_min":11,"x_max":300,"o":"m 219 0 l 94 0 l 94 1111 l 219 1111 l 219 0 m 75 1140 q 30 1159 49 1140 q 11 1204 11 1178 q 30 1251 11 1232 q 75 1271 49 1271 q 122 1251 103 1271 q 142 1204 142 1232 q 122 1159 142 1178 q 75 1140 103 1140 m 236 1140 q 190 1159 208 1140 q 171 1204 171 1178 q 190 1251 171 1232 q 236 1271 208 1271 q 281 1251 263 1271 q 300 1204 300 1232 q 281 1159 300 1178 q 236 1140 263 1140 z "},"ϋ":{"ha":635,"x_min":14,"x_max":621,"o":"m 496 1111 l 621 1111 l 442 353 q 421 321 438 336 q 382 306 404 306 l 382 0 l 258 0 l 258 306 q 219 320 236 306 q 199 353 201 335 l 14 1110 l 142 1110 l 304 449 q 307 440 304 444 q 312 434 310 438 q 318 431 314 431 l 322 431 q 333 438 331 431 q 336 449 335 444 l 496 1111 m 238 1131 q 192 1149 211 1131 q 174 1194 174 1168 q 192 1242 174 1222 q 238 1261 211 1261 q 285 1242 265 1261 q 304 1194 304 1222 q 285 1149 304 1168 q 238 1131 265 1131 m 399 1131 q 352 1149 371 1131 q 333 1194 333 1168 q 352 1242 333 1222 q 399 1261 371 1261 q 444 1242 425 1261 q 463 1194 463 1222 q 444 1149 463 1168 q 399 1131 425 1131 z "},"Έ":{"ha":596,"x_min":-125,"x_max":568,"o":"m -4 929 l -125 929 l 15 1111 l 136 1111 l -4 929 m 293 986 l 293 675 l 531 675 l 531 550 l 293 550 l 293 125 l 568 125 l 568 0 l 168 0 l 168 1111 l 568 1111 l 568 986 l 293 986 z "},"έ":{"ha":601,"x_min":-125,"x_max":568,"o":"m -4 929 l -125 929 l 15 1111 l 136 1111 l -4 929 m 293 986 l 293 675 l 531 675 l 531 550 l 293 550 l 293 125 l 568 125 l 568 0 l 168 0 l 168 1111 l 568 1111 l 568 986 l 293 986 z "},"Ή":{"ha":778,"x_min":-111,"x_max":681,"o":"m 10 929 l -111 929 l 29 1111 l 150 1111 l 10 929 m 681 1111 l 681 0 l 556 0 l 556 551 l 326 551 l 326 0 l 201 0 l 201 1111 l 326 1111 l 326 675 l 556 675 l 556 1111 l 681 1111 z "},"ή":{"ha":778,"x_min":-111,"x_max":681,"o":"m 10 929 l -111 929 l 29 1111 l 150 1111 l 10 929 m 681 1111 l 681 0 l 556 0 l 556 551 l 326 551 l 326 0 l 201 0 l 201 1111 l 326 1111 l 326 675 l 556 675 l 556 1111 l 681 1111 z "},"Ί":{"ha":422,"x_min":-119,"x_max":318,"o":"m 1 929 l -119 929 l 21 1111 l 142 1111 l 1 929 m 318 0 l 193 0 l 193 1111 l 318 1111 l 318 0 z "},"Ό":{"ha":764,"x_min":-76,"x_max":688,"o":"m 44 929 l -76 929 l 64 1111 l 185 1111 l 44 929 m 563 919 q 542 974 563 953 q 488 994 521 994 l 404 994 q 350 974 371 994 q 329 919 329 953 l 329 186 q 350 132 329 153 q 404 111 371 111 l 488 111 q 542 132 521 111 q 563 186 563 153 l 563 919 m 688 186 q 672 108 688 144 q 630 45 657 72 q 566 2 603 18 q 488 -14 529 -14 l 404 -14 q 326 2 363 -14 q 263 45 290 18 q 220 108 236 72 q 204 186 204 144 l 204 919 q 220 998 204 961 q 263 1062 236 1035 q 326 1104 290 1089 q 404 1119 363 1119 l 488 1119 q 566 1104 529 1119 q 630 1062 603 1089 q 672 998 657 1035 q 688 919 688 961 l 688 186 z "},"ί":{"ha":422,"x_min":-119,"x_max":318,"o":"m 1 929 l -119 929 l 21 1111 l 142 1111 l 1 929 m 318 0 l 193 0 l 193 1111 l 318 1111 l 318 0 z "},"ό":{"ha":764,"x_min":-76,"x_max":688,"o":"m 44 929 l -76 929 l 64 1111 l 185 1111 l 44 929 m 563 919 q 542 974 563 953 q 488 994 521 994 l 404 994 q 350 974 371 994 q 329 919 329 953 l 329 186 q 350 132 329 153 q 404 111 371 111 l 488 111 q 542 132 521 111 q 563 186 563 153 l 563 919 m 688 186 q 672 108 688 144 q 630 45 657 72 q 566 2 603 18 q 488 -14 529 -14 l 404 -14 q 326 2 363 -14 q 263 45 290 18 q 220 108 236 72 q 204 186 204 144 l 204 919 q 220 998 204 961 q 263 1062 236 1035 q 326 1104 290 1089 q 404 1119 363 1119 l 488 1119 q 566 1104 529 1119 q 630 1062 603 1089 q 672 998 657 1035 q 688 919 688 961 l 688 186 z "},"Ύ":{"ha":924,"x_min":-69,"x_max":849,"o":"m 724 1111 l 849 1111 l 669 353 q 649 321 665 336 q 610 306 632 306 l 610 0 l 486 0 l 486 306 q 447 320 464 306 q 426 353 429 335 l 242 1111 l 369 1111 l 532 449 q 535 440 532 444 q 540 434 538 438 q 546 431 542 431 l 550 431 q 560 438 558 431 q 564 449 563 444 l 724 1111 m 51 929 l -69 929 l 71 1111 l 192 1111 l 51 929 z "},"ύ":{"ha":924,"x_min":-69,"x_max":849,"o":"m 724 1111 l 849 1111 l 669 353 q 649 321 665 336 q 610 306 632 306 l 610 0 l 486 0 l 486 306 q 447 320 464 306 q 426 353 429 335 l 242 1111 l 369 1111 l 532 449 q 535 440 532 444 q 540 434 538 438 q 546 431 542 431 l 550 431 q 560 438 558 431 q 564 449 563 444 l 724 1111 m 51 929 l -69 929 l 71 1111 l 192 1111 l 51 929 z "},"Ώ":{"ha":733,"x_min":-76,"x_max":658,"o":"m 44 929 l -76 929 l 64 1111 l 185 1111 l 44 929 m 371 994 q 317 974 338 994 q 296 919 296 953 l 296 397 q 317 344 296 364 q 357 324 338 324 l 357 0 l 190 0 l 190 125 l 246 125 l 246 240 q 191 308 211 268 q 171 397 171 349 l 171 919 q 187 998 171 961 q 230 1062 203 1035 q 293 1104 257 1089 q 371 1119 329 1119 l 458 1119 q 537 1104 500 1119 q 601 1062 574 1089 q 643 998 628 1035 q 658 919 658 961 l 658 397 q 638 308 658 349 q 583 240 617 268 l 583 125 l 639 125 l 639 0 l 472 0 l 472 324 q 513 344 492 324 q 533 397 533 364 l 533 919 q 513 974 533 953 q 458 994 492 994 l 371 994 z "},"ώ":{"ha":733,"x_min":-76,"x_max":658,"o":"m 44 928 l -76 928 l 64 1110 l 185 1110 l 44 928 m 371 994 q 317 974 338 994 q 296 919 296 953 l 296 397 q 317 344 296 364 q 357 324 338 324 l 357 0 l 190 0 l 190 125 l 246 125 l 246 240 q 191 308 211 268 q 171 397 171 349 l 171 919 q 187 998 171 961 q 230 1062 203 1035 q 293 1104 257 1089 q 371 1119 329 1119 l 458 1119 q 537 1104 500 1119 q 601 1062 574 1089 q 643 998 628 1035 q 658 919 658 961 l 658 397 q 638 308 658 349 q 583 240 617 268 l 583 125 l 639 125 l 639 0 l 472 0 l 472 324 q 513 344 492 324 q 533 397 533 364 l 533 919 q 513 974 533 953 q 458 994 492 994 l 371 994 z "},"ΐ":{"ha":503,"x_min":11,"x_max":496,"o":"m 246 1174 l 125 1174 l 265 1356 l 386 1356 l 246 1174 m 75 1194 q 122 1213 103 1194 q 142 1258 142 1232 q 122 1306 142 1286 q 75 1325 103 1325 q 30 1306 49 1325 q 11 1258 11 1286 q 30 1213 11 1232 q 75 1194 49 1194 m 432 1194 q 477 1213 458 1194 q 496 1258 496 1232 q 477 1306 496 1286 q 432 1325 458 1325 q 385 1306 404 1325 q 367 1258 367 1286 q 385 1213 367 1232 q 432 1194 404 1194 m 318 0 l 193 0 l 193 1111 l 318 1111 l 318 0 z "},"ΰ":{"ha":635,"x_min":14,"x_max":621,"o":"m 336 449 q 333 438 335 444 q 322 431 331 431 l 318 431 q 312 434 314 431 q 307 440 310 438 q 304 449 304 444 l 142 1111 l 14 1111 l 199 353 q 219 320 201 335 q 258 306 236 306 l 258 0 l 382 0 l 382 306 q 421 321 404 306 q 442 353 438 336 l 621 1111 l 496 1111 l 336 449 m 307 1140 l 186 1140 l 326 1322 l 447 1322 l 307 1140 m 136 1161 q 183 1180 164 1161 q 203 1225 203 1199 q 183 1272 203 1253 q 136 1292 164 1292 q 91 1272 110 1292 q 72 1225 72 1253 q 91 1180 72 1199 q 136 1161 110 1161 m 493 1161 q 538 1180 519 1161 q 557 1225 557 1199 q 538 1272 557 1253 q 493 1292 519 1292 q 447 1272 465 1292 q 428 1225 428 1253 q 447 1180 428 1199 q 493 1161 465 1161 z "},"―":{"ha":1390,"x_min":0,"x_max":1389,"o":"m 0 426 l 0 550 l 1389 550 l 1389 426 l 0 426 z "},"¤":{"ha":678,"x_min":49,"x_max":608,"o":"m 481 406 l 608 406 l 608 186 q 593 108 608 144 q 551 45 578 72 q 487 2 524 18 q 408 -14 450 -14 l 325 -14 q 247 2 283 -14 q 184 45 211 18 q 141 108 157 72 q 125 186 125 144 l 125 431 l 49 431 l 49 528 l 125 528 l 125 578 l 49 578 l 49 675 l 125 675 l 125 878 q 141 956 125 919 q 184 1020 157 993 q 247 1063 211 1047 q 325 1078 283 1078 l 408 1078 q 487 1063 450 1078 q 551 1020 524 1047 q 593 956 578 993 q 608 878 608 919 l 608 703 l 483 703 l 483 878 q 463 932 483 911 q 408 953 442 953 l 325 953 q 271 932 292 953 q 250 878 250 911 l 250 675 l 432 675 l 432 578 l 250 578 l 250 528 l 432 528 l 432 431 l 250 431 l 250 186 q 271 132 250 153 q 325 111 292 111 l 408 111 q 451 117 436 111 q 472 132 465 122 q 479 156 478 142 q 481 186 481 169 l 481 406 z "},"":{"ha":328,"x_min":119,"x_max":231,"o":"m 119 -112 l 119 122 l 231 122 l 231 -112 l 119 -112 z "},"Ŗ":{"ha":636,"x_min":97,"x_max":581,"o":"m 383 -115 l 383 119 l 272 119 l 272 -115 l 383 -115 m 456 0 l 456 414 q 440 481 456 457 q 396 518 424 506 l 222 518 l 222 0 l 97 0 l 97 1111 l 404 1111 q 469 1098 439 1111 q 522 1062 499 1085 q 558 1009 544 1039 q 571 944 571 979 l 571 744 q 541 646 571 690 q 464 581 511 601 q 548 517 515 561 q 581 414 581 472 l 581 0 l 456 0 m 397 643 q 435 679 425 656 q 444 742 444 703 l 444 944 q 431 976 444 964 q 399 988 418 988 l 222 988 l 222 643 l 397 643 z "},"Ē":{"ha":525,"x_min":97,"x_max":497,"o":"m 497 986 l 497 1111 l 97 1111 l 97 0 l 497 0 l 497 125 l 222 125 l 222 550 l 460 550 l 460 675 l 222 675 l 222 986 l 497 986 m 143 1200 l 143 1296 l 449 1296 l 449 1200 l 143 1200 z "},"Ė":{"ha":525,"x_min":97,"x_max":497,"o":"m 222 986 l 222 675 l 460 675 l 460 550 l 222 550 l 222 125 l 497 125 l 497 0 l 97 0 l 97 1111 l 497 1111 l 497 986 l 222 986 m 297 1161 q 249 1181 269 1161 q 229 1229 229 1201 q 249 1278 229 1257 q 297 1299 269 1299 q 346 1278 325 1299 q 367 1229 367 1257 q 346 1181 367 1201 q 297 1161 325 1161 z "},"Į":{"ha":279,"x_min":36,"x_max":351,"o":"m 188 0 q 161 -15 174 -6 q 142 -35 150 -24 q 133 -67 133 -47 q 151 -112 133 -94 q 197 -129 169 -129 q 237 -121 218 -129 q 285 -89 256 -112 l 351 -150 q 274 -210 307 -194 q 200 -226 240 -226 q 137 -215 167 -226 q 85 -183 107 -204 q 49 -133 63 -162 q 36 -69 36 -104 q 63 15 36 -25 l 63 1111 l 188 1111 l 188 0 z "},"Ā":{"ha":633,"x_min":14,"x_max":619,"o":"m 619 0 l 436 1072 q 416 1105 433 1090 q 376 1119 399 1119 l 253 1119 q 213 1104 231 1119 q 193 1072 196 1089 l 14 0 l 139 0 l 188 269 l 444 269 l 494 0 l 619 0 m 426 394 l 206 394 l 299 976 q 302 988 300 981 q 313 994 304 994 l 317 994 q 328 986 322 994 q 331 976 331 982 l 426 394 m 160 1182 l 160 1278 l 465 1278 l 465 1182 l 160 1182 z "},"ŗ":{"ha":560,"x_min":83,"x_max":539,"o":"m 414 601 q 409 647 414 631 q 396 664 404 664 q 354 649 385 664 q 292 615 324 635 q 208 565 254 593 l 208 0 l 83 0 l 83 778 l 208 778 l 208 692 q 279 742 243 719 q 344 776 310 761 q 406 790 378 790 q 500 751 461 790 q 539 657 539 713 l 539 518 l 414 518 l 414 601 m 208 -281 l 208 -46 l 83 -46 l 83 -281 l 208 -281 z "},"Ģ":{"ha":610,"x_min":76,"x_max":554,"o":"m 354 111 q 397 121 382 111 q 419 143 411 131 q 428 168 426 156 q 429 186 429 181 l 429 447 l 288 447 l 288 572 l 554 572 l 554 186 q 539 108 554 144 q 497 45 524 72 q 433 2 469 18 q 354 -14 396 -14 l 276 -14 q 199 2 235 -14 q 135 45 163 18 q 92 108 108 72 q 76 186 76 144 l 76 919 q 92 998 76 961 q 135 1062 108 1035 q 199 1104 163 1089 q 276 1119 235 1119 l 354 1119 q 433 1104 396 1119 q 497 1062 469 1089 q 539 998 524 1035 q 554 919 554 961 l 554 744 l 429 744 l 429 919 q 408 974 429 953 q 354 994 388 994 l 276 994 q 222 974 243 994 q 201 919 201 953 l 201 186 q 222 132 201 153 q 276 111 243 111 l 354 111 m 260 -293 l 260 -58 l 371 -58 l 371 -293 l 260 -293 z "},"Ķ":{"ha":689,"x_min":97,"x_max":689,"o":"m 296 -135 l 296 100 l 407 100 l 407 -135 l 296 -135 m 221 0 l 97 0 l 97 1111 l 221 1111 l 221 675 l 297 675 l 558 1111 l 689 1111 l 401 619 l 401 607 l 689 0 l 558 0 l 297 551 l 221 551 l 221 0 z "},"Ī":{"ha":222,"x_min":-42,"x_max":264,"o":"m 171 0 l 46 0 l 46 1111 l 171 1111 l 171 0 m -42 1174 l -42 1269 l 264 1269 l 264 1174 l -42 1174 z "},"Ļ":{"ha":469,"x_min":71,"x_max":469,"o":"m 213 -281 l 213 -46 l 324 -46 l 324 -281 l 213 -281 m 194 125 l 469 125 l 469 0 l 71 0 l 71 1111 l 194 1111 l 194 125 z "},"Ņ":{"ha":743,"x_min":97,"x_max":646,"o":"m 365 -111 l 365 124 l 254 124 l 254 -111 l 365 -111 m 426 0 l 229 986 l 222 986 l 222 0 l 97 0 l 97 1111 l 319 1111 l 514 125 l 521 125 l 521 1111 l 646 1111 l 646 0 l 426 0 z "},"Ō":{"ha":636,"x_min":76,"x_max":560,"o":"m 435 919 q 414 974 435 953 q 360 994 393 994 l 276 994 q 222 974 243 994 q 201 919 201 953 l 201 186 q 222 132 201 153 q 276 111 243 111 l 360 111 q 414 132 393 111 q 435 186 435 153 l 435 919 m 560 186 q 544 108 560 144 q 502 45 529 72 q 438 2 475 18 q 360 -14 401 -14 l 276 -14 q 199 2 235 -14 q 135 45 163 18 q 92 108 108 72 q 76 186 76 144 l 76 919 q 92 998 76 961 q 135 1062 108 1035 q 199 1104 163 1089 q 276 1119 235 1119 l 360 1119 q 438 1104 401 1119 q 502 1062 475 1089 q 544 998 529 1035 q 560 919 560 961 l 560 186 m 165 1178 l 165 1274 l 471 1274 l 471 1178 l 165 1178 z "},"Ų":{"ha":650,"x_min":83,"x_max":567,"o":"m 442 1111 l 567 1111 l 567 186 q 551 108 567 144 q 509 45 536 72 q 447 2 482 18 q 369 -14 411 -14 q 356 -21 364 -17 q 339 -33 347 -25 q 325 -52 331 -40 q 319 -79 319 -64 q 338 -124 319 -107 q 383 -142 356 -142 q 423 -133 404 -142 q 471 -101 442 -125 l 538 -162 q 460 -223 493 -207 q 386 -239 426 -239 q 323 -228 353 -239 q 271 -196 293 -217 q 235 -146 249 -175 q 222 -82 222 -117 q 240 -10 222 -43 q 128 59 172 6 q 83 186 83 113 l 83 1111 l 208 1111 l 208 186 q 229 132 208 153 q 283 111 250 111 l 367 111 q 421 132 400 111 q 442 186 442 153 l 442 1111 z "},"Ū":{"ha":650,"x_min":83,"x_max":567,"o":"m 442 1111 l 567 1111 l 567 186 q 551 108 567 144 q 509 45 536 72 q 445 2 482 18 q 367 -14 408 -14 l 283 -14 q 206 2 242 -14 q 142 45 169 18 q 99 108 115 72 q 83 186 83 144 l 83 1111 l 208 1111 l 208 186 q 229 132 208 153 q 283 111 250 111 l 367 111 q 421 132 400 111 q 442 186 442 153 l 442 1111 m 179 1178 l 179 1274 l 485 1274 l 485 1178 l 179 1178 z "},"į":{"ha":382,"x_min":90,"x_max":522,"o":"m 358 -14 q 332 -29 344 -19 q 313 -49 321 -37 q 304 -81 304 -61 q 322 -126 304 -108 q 368 -143 340 -143 q 408 -135 389 -143 q 456 -103 426 -126 l 522 -164 q 444 -224 478 -208 q 371 -240 411 -240 q 308 -229 338 -240 q 256 -197 278 -218 q 220 -147 233 -176 q 207 -83 207 -118 q 228 -7 207 -40 q 129 57 168 8 q 90 171 90 106 l 90 778 l 217 778 l 217 171 q 233 127 217 143 q 278 111 250 111 l 361 111 l 361 -14 l 358 -14 z "},"ā":{"ha":574,"x_min":42,"x_max":497,"o":"m 42 243 q 52 329 42 296 q 81 385 63 363 q 124 420 99 407 q 179 444 150 433 l 372 503 l 372 607 q 365 641 372 629 q 345 658 357 653 q 317 665 333 664 q 285 667 301 667 q 224 656 251 667 q 197 607 197 646 l 197 579 l 72 579 l 72 607 q 91 689 72 654 q 140 747 110 724 q 208 781 171 769 q 285 792 246 792 q 362 781 324 792 q 430 747 400 769 q 478 689 460 724 q 497 607 497 654 l 497 0 l 372 0 l 372 86 q 301 36 338 58 q 237 1 271 17 q 175 -14 203 -14 q 81 25 119 -14 q 42 119 42 64 l 42 243 m 167 175 q 172 129 167 146 q 185 113 176 113 q 226 128 196 113 q 289 163 257 143 q 372 211 326 185 l 372 385 l 208 333 q 173 294 179 321 q 167 222 167 268 l 167 175 m 133 849 l 133 944 l 439 944 l 439 849 l 133 849 z "},"ē":{"ha":574,"x_min":69,"x_max":525,"o":"m 400 496 l 400 607 q 384 651 400 635 q 340 667 368 667 l 254 667 q 210 651 226 667 q 194 607 194 635 l 194 496 l 400 496 m 340 111 q 384 127 368 111 q 400 171 400 143 l 400 271 l 525 271 l 525 171 q 510 99 525 132 q 471 40 496 65 q 413 1 446 15 q 340 -14 379 -14 l 254 -14 q 182 1 215 -14 q 124 40 149 15 q 84 99 99 65 q 69 171 69 132 l 69 607 q 84 679 69 646 q 124 738 99 713 q 182 777 149 763 q 254 792 215 792 l 340 792 q 413 777 379 792 q 471 738 446 763 q 510 679 496 713 q 525 607 525 646 l 525 371 l 194 371 l 194 171 q 210 127 194 143 q 254 111 226 111 l 340 111 m 144 849 l 144 944 l 450 944 l 450 849 l 144 849 z "},"ė":{"ha":574,"x_min":69,"x_max":525,"o":"m 400 496 l 400 607 q 384 651 400 635 q 340 667 368 667 l 254 667 q 210 651 226 667 q 194 607 194 635 l 194 496 l 400 496 m 340 111 q 384 127 368 111 q 400 171 400 143 l 400 271 l 525 271 l 525 171 q 510 99 525 132 q 471 40 496 65 q 413 1 446 15 q 340 -14 379 -14 l 254 -14 q 182 1 215 -14 q 124 40 149 15 q 84 99 99 65 q 69 171 69 132 l 69 607 q 84 679 69 646 q 124 738 99 713 q 182 777 149 763 q 254 792 215 792 l 340 792 q 413 777 379 792 q 471 738 446 763 q 510 679 496 713 q 525 607 525 646 l 525 371 l 194 371 l 194 171 q 210 127 194 143 q 254 111 226 111 l 340 111 m 301 831 q 253 851 274 831 q 233 899 233 871 q 253 947 233 926 q 301 968 274 968 q 350 947 329 968 q 371 899 371 926 q 350 851 371 871 q 301 831 329 831 z "},"ģ":{"ha":594,"x_min":69,"x_max":525,"o":"m 236 869 l 236 1104 l 347 1104 l 347 869 l 236 869 m 194 196 q 203 188 194 188 q 265 206 231 188 q 329 246 299 224 q 400 303 365 271 l 400 608 q 384 652 400 636 q 340 668 368 668 l 254 668 q 210 652 226 668 q 194 608 194 636 l 194 196 m 401 168 q 329 115 365 139 q 265 79 299 96 q 203 63 231 63 q 108 101 147 63 q 69 196 69 140 l 69 608 q 84 680 69 646 q 124 739 99 714 q 182 778 149 764 q 254 793 215 793 l 340 793 q 413 778 379 793 q 471 739 446 764 q 510 680 496 714 q 525 608 525 646 l 525 -47 q 511 -119 525 -86 q 472 -177 497 -153 q 414 -215 447 -201 q 342 -229 381 -229 l 256 -229 q 183 -215 217 -229 q 125 -175 150 -200 q 85 -117 100 -150 q 71 -44 71 -83 l 71 -14 l 196 -14 l 196 -44 q 212 -88 196 -72 q 256 -104 228 -104 l 342 -104 q 385 -88 369 -104 q 401 -44 401 -72 l 401 168 z "},"ķ":{"ha":586,"x_min":83,"x_max":621,"o":"m 251 -167 l 251 68 l 363 68 l 363 -167 l 251 -167 m 207 0 l 83 0 l 83 1063 l 207 1063 l 207 481 l 242 481 l 419 778 l 558 778 l 353 425 l 353 413 l 621 0 l 475 0 l 242 357 l 207 357 l 207 0 z "},"ī":{"ha":297,"x_min":-31,"x_max":328,"o":"m 328 -14 l 242 -14 q 169 1 203 -14 q 111 40 136 15 q 72 99 86 65 q 57 171 57 133 l 57 778 l 183 778 l 183 171 q 200 127 183 143 q 244 111 217 111 l 328 111 l 328 -14 m -31 899 l -31 994 l 275 994 l 275 899 l -31 899 z "},"ļ":{"ha":382,"x_min":90,"x_max":361,"o":"m 217 -293 l 217 -58 l 90 -58 l 90 -293 l 217 -293 m 361 -14 l 275 -14 q 203 1 236 -14 q 144 40 169 15 q 105 99 119 65 q 90 171 90 133 l 90 1061 l 217 1061 l 217 171 q 233 127 217 143 q 278 111 250 111 l 361 111 l 361 -14 z "},"ņ":{"ha":615,"x_min":83,"x_max":539,"o":"m 365 -112 l 365 122 l 254 122 l 254 -112 l 365 -112 m 414 601 q 409 647 414 631 q 396 664 404 664 q 354 649 385 664 q 292 615 324 635 q 208 565 254 593 l 208 0 l 83 0 l 83 778 l 208 778 l 208 692 q 279 742 243 719 q 344 776 310 761 q 406 790 378 790 q 500 751 461 790 q 539 657 539 713 l 539 0 l 414 0 l 414 601 z "},"ō":{"ha":594,"x_min":69,"x_max":525,"o":"m 400 171 l 400 607 q 384 651 400 635 q 340 667 368 667 l 254 667 q 210 651 226 667 q 194 607 194 635 l 194 171 q 210 127 194 143 q 254 111 226 111 l 340 111 q 384 121 368 111 q 400 171 400 131 m 525 171 q 510 99 525 133 q 471 40 496 65 q 413 1 446 15 q 340 -14 379 -14 l 254 -14 q 182 1 215 -14 q 124 40 149 15 q 84 99 99 65 q 69 171 69 133 l 69 607 q 84 679 69 646 q 124 738 99 713 q 182 777 149 763 q 254 792 215 792 l 340 792 q 413 777 379 792 q 471 738 446 763 q 510 679 496 713 q 525 607 525 646 l 525 171 m 150 849 l 150 944 l 456 944 l 456 849 l 150 849 z "},"ų":{"ha":603,"x_min":76,"x_max":696,"o":"m 532 778 l 532 0 q 522 -4 531 0 q 503 -16 513 -8 q 485 -36 493 -24 q 478 -67 478 -49 q 496 -112 478 -94 q 542 -129 514 -129 q 581 -121 563 -129 q 629 -89 600 -112 l 696 -150 q 618 -210 651 -194 q 544 -226 585 -226 q 481 -215 511 -226 q 429 -183 451 -204 q 394 -133 407 -162 q 381 -69 381 -104 q 407 15 381 -25 l 407 86 q 336 36 372 58 q 272 1 306 17 q 210 -14 238 -14 q 115 25 154 -14 q 76 119 76 64 l 76 778 l 201 778 l 201 175 q 206 129 201 146 q 219 113 211 113 q 261 128 231 113 q 324 163 292 143 q 407 211 361 185 l 407 778 l 532 778 z "},"ū":{"ha":615,"x_min":76,"x_max":532,"o":"m 532 778 l 532 0 l 407 0 l 407 86 q 336 36 372 58 q 272 1 306 17 q 210 -14 238 -14 q 115 25 154 -14 q 76 119 76 64 l 76 778 l 201 778 l 201 175 q 206 129 201 146 q 219 113 211 113 q 261 128 231 113 q 324 163 292 143 q 407 211 361 185 l 407 778 l 532 778 m 149 846 l 149 942 l 454 942 l 454 846 l 149 846 z "},"ś":{"ha":567,"x_min":56,"x_max":511,"o":"m 181 579 q 205 545 181 568 q 258 499 229 522 q 335 442 293 472 q 424 371 385 408 q 484 299 457 339 q 511 218 511 258 l 511 171 q 497 99 511 133 q 457 40 482 65 q 399 1 432 15 q 326 -14 365 -14 l 240 -14 q 168 1 201 -14 q 110 40 135 15 q 70 99 85 65 q 56 171 56 133 l 56 294 l 181 294 l 181 171 q 197 127 181 143 q 240 111 213 111 l 326 111 q 370 127 354 111 q 386 171 386 143 l 386 218 q 363 267 386 242 q 313 314 340 293 q 239 361 279 339 q 147 429 188 393 q 84 499 113 460 q 56 579 56 538 l 56 607 q 70 679 56 646 q 110 738 85 713 q 168 777 135 763 q 240 792 201 792 l 326 792 q 399 777 365 792 q 457 738 432 763 q 497 679 482 713 q 511 607 511 646 l 511 579 l 386 579 l 386 607 q 370 651 386 635 q 326 667 354 667 l 240 667 q 197 651 213 667 q 181 607 181 635 l 181 579 m 349 881 l 228 881 l 368 1063 l 489 1063 l 349 881 z "},"ź":{"ha":519,"x_min":35,"x_max":485,"o":"m 485 124 l 158 124 l 481 658 l 481 783 l 38 783 l 38 658 l 356 658 l 35 125 l 35 0 l 485 0 l 485 124 m 307 867 l 186 867 l 326 1049 l 447 1049 l 307 867 z "},"Ą":{"ha":622,"x_min":14,"x_max":783,"o":"m 618 0 q 608 -4 617 0 q 590 -16 600 -8 q 573 -36 581 -24 q 565 -67 565 -49 q 583 -112 565 -94 q 629 -129 601 -129 q 669 -121 650 -129 q 717 -89 688 -112 l 783 -150 q 706 -210 739 -194 q 632 -226 672 -226 q 569 -215 599 -226 q 517 -183 539 -204 q 481 -133 494 -162 q 468 -69 468 -104 q 474 -26 468 -46 q 492 11 481 -6 l 444 269 l 188 269 l 139 0 l 14 0 l 193 1072 q 213 1104 196 1089 q 253 1119 231 1119 l 376 1119 q 416 1105 399 1119 q 436 1072 433 1090 l 619 0 l 618 0 m 331 976 q 328 986 331 982 q 317 994 322 994 l 313 994 q 302 988 304 994 q 299 976 300 981 l 206 394 l 426 394 l 331 976 z "},"Ś":{"ha":603,"x_min":63,"x_max":540,"o":"m 540 293 q 526 415 540 361 q 488 510 513 468 q 431 585 464 553 q 357 640 397 617 q 290 682 321 663 q 235 724 258 701 q 200 776 213 747 q 188 843 188 804 l 188 919 q 208 974 188 953 q 263 994 229 994 l 340 994 q 394 974 374 994 q 415 919 415 953 l 540 919 q 525 998 540 961 q 483 1062 510 1035 q 419 1104 456 1089 q 340 1119 382 1119 l 263 1119 q 185 1104 221 1119 q 122 1062 149 1089 q 78 998 94 1035 q 63 919 63 961 l 63 843 q 104 688 63 754 q 219 576 146 621 q 297 528 261 551 q 359 473 333 504 q 400 399 385 442 q 415 293 415 356 l 415 186 q 394 132 415 153 q 340 111 374 111 l 263 111 q 208 132 229 111 q 188 186 188 153 l 188 392 l 63 392 l 63 186 q 78 108 63 144 q 122 45 94 72 q 185 2 149 18 q 263 -14 221 -14 l 340 -14 q 419 2 382 -14 q 483 45 456 18 q 525 108 510 72 q 540 186 540 144 l 540 293 m 354 1206 l 233 1206 l 374 1388 l 494 1388 l 354 1206 z "},"Ť":{"ha":514,"x_min":0,"x_max":514,"o":"m 514 986 l 514 1111 l 0 1111 l 0 986 l 194 986 l 194 0 l 319 0 l 319 986 l 514 986 m 256 1264 l 260 1264 l 353 1372 l 464 1372 l 292 1167 l 224 1167 l 51 1372 l 163 1372 l 256 1264 z "},"Ź":{"ha":556,"x_min":21,"x_max":535,"o":"m 21 0 l 369 986 l 21 986 l 21 1111 l 535 1111 l 188 125 l 535 125 l 535 0 l 21 0 m 349 1188 l 228 1188 l 368 1369 l 489 1369 l 349 1188 z "},"Ż":{"ha":556,"x_min":21,"x_max":535,"o":"m 21 0 l 369 986 l 21 986 l 21 1111 l 535 1111 l 188 125 l 535 125 l 535 0 l 21 0 m 275 1176 q 227 1197 247 1176 q 207 1244 207 1217 q 227 1293 207 1272 q 275 1314 247 1314 q 324 1293 303 1314 q 344 1244 344 1272 q 324 1197 344 1217 q 275 1176 303 1176 z "},"ą":{"ha":564,"x_min":42,"x_max":661,"o":"m 497 0 q 471 -15 483 -6 q 451 -35 460 -24 q 443 -67 443 -47 q 461 -112 443 -94 q 507 -129 479 -129 q 547 -121 528 -129 q 594 -89 565 -112 l 661 -150 q 583 -210 617 -194 q 510 -226 550 -226 q 447 -215 476 -226 q 394 -183 417 -204 q 359 -133 372 -162 q 346 -69 346 -104 q 372 15 346 -25 l 372 86 q 301 36 338 58 q 237 1 271 17 q 175 -14 203 -14 q 81 25 119 -14 q 42 119 42 64 l 42 243 q 52 329 42 296 q 81 385 63 363 q 124 420 99 407 q 179 444 150 433 l 372 503 l 372 607 q 365 641 372 629 q 345 658 357 653 q 317 665 333 664 q 285 667 301 667 q 224 656 251 667 q 197 607 197 646 l 197 579 l 72 579 l 72 607 q 91 689 72 654 q 140 747 110 724 q 208 781 171 769 q 285 792 246 792 q 362 781 324 792 q 430 747 400 769 q 478 689 460 724 q 497 607 497 654 l 497 0 m 167 175 q 172 129 167 146 q 185 113 176 113 q 226 128 196 113 q 289 163 257 143 q 372 211 326 185 l 372 385 l 208 333 q 173 294 179 321 q 167 222 167 268 l 167 175 z "},"ż":{"ha":519,"x_min":35,"x_max":485,"o":"m 485 0 l 35 0 l 35 125 l 356 658 l 38 658 l 38 783 l 481 783 l 481 658 l 158 124 l 485 124 l 485 0 m 260 831 q 212 851 232 831 q 192 899 192 871 q 212 947 192 926 q 260 968 232 968 q 308 947 288 968 q 329 899 329 926 q 308 851 329 871 q 260 831 288 831 z "},"Ŕ":{"ha":636,"x_min":97,"x_max":581,"o":"m 456 0 l 456 414 q 440 481 456 457 q 396 518 424 506 l 222 518 l 222 0 l 97 0 l 97 1111 l 404 1111 q 469 1098 439 1111 q 522 1062 499 1085 q 558 1009 544 1039 q 571 944 571 979 l 571 744 q 541 646 571 690 q 464 581 511 601 q 548 517 515 561 q 581 414 581 472 l 581 0 l 456 0 m 397 643 q 435 679 425 656 q 444 742 444 703 l 444 944 q 431 976 444 964 q 399 988 418 988 l 222 988 l 222 643 l 397 643 m 363 1193 l 242 1193 l 382 1375 l 503 1375 l 363 1193 z "},"Ă":{"ha":633,"x_min":14,"x_max":619,"o":"m 619 0 l 436 1072 q 416 1105 433 1090 q 376 1119 399 1119 l 253 1119 q 213 1104 231 1119 q 193 1072 196 1089 l 14 0 l 139 0 l 188 269 l 444 269 l 494 0 l 619 0 m 426 394 l 206 394 l 299 976 q 302 988 300 981 q 313 994 304 994 l 317 994 q 328 986 322 994 q 331 976 331 982 l 426 394 m 447 1317 q 408 1222 447 1261 q 314 1183 369 1183 q 219 1222 258 1183 q 181 1317 181 1261 l 278 1317 q 314 1281 278 1281 q 350 1317 350 1281 l 447 1317 z "},"Ĺ":{"ha":454,"x_min":56,"x_max":454,"o":"m 179 1111 l 56 1111 l 56 0 l 454 0 l 454 125 l 179 125 l 179 1111 m 179 1193 l 58 1193 l 199 1375 l 319 1375 l 179 1193 z "},"Ć":{"ha":629,"x_min":76,"x_max":560,"o":"m 435 406 l 560 406 l 560 186 q 544 108 560 144 q 502 45 529 72 q 438 2 475 18 q 360 -14 401 -14 l 276 -14 q 199 2 235 -14 q 135 45 163 18 q 92 108 108 72 q 76 186 76 144 l 76 919 q 92 998 76 961 q 135 1062 108 1035 q 199 1104 163 1089 q 276 1119 235 1119 l 360 1119 q 438 1104 401 1119 q 502 1062 475 1089 q 544 998 529 1035 q 560 919 560 961 l 560 744 l 435 744 l 435 919 q 414 974 435 953 q 360 994 393 994 l 276 994 q 222 974 243 994 q 201 919 201 953 l 201 186 q 222 132 201 153 q 276 111 243 111 l 360 111 q 402 117 388 111 q 423 132 417 122 q 431 156 429 142 q 432 186 432 169 l 432 406 l 435 406 m 367 1199 l 246 1199 l 386 1381 l 507 1381 l 367 1199 z "},"Č":{"ha":629,"x_min":76,"x_max":560,"o":"m 435 406 l 560 406 l 560 186 q 544 108 560 144 q 502 45 529 72 q 438 2 475 18 q 360 -14 401 -14 l 276 -14 q 199 2 235 -14 q 135 45 163 18 q 92 108 108 72 q 76 186 76 144 l 76 919 q 92 998 76 961 q 135 1062 108 1035 q 199 1104 163 1089 q 276 1119 235 1119 l 360 1119 q 438 1104 401 1119 q 502 1062 475 1089 q 544 998 529 1035 q 560 919 560 961 l 560 744 l 435 744 l 435 919 q 414 974 435 953 q 360 994 393 994 l 276 994 q 222 974 243 994 q 201 919 201 953 l 201 186 q 222 132 201 153 q 276 111 243 111 l 360 111 q 402 117 388 111 q 423 132 417 122 q 431 156 429 142 q 432 186 432 169 l 432 406 l 435 406 m 317 1261 l 321 1261 l 414 1369 l 525 1369 l 353 1164 l 285 1164 l 113 1369 l 224 1369 l 317 1261 z "},"Ę":{"ha":528,"x_min":97,"x_max":661,"o":"m 222 986 l 222 675 l 460 675 l 460 550 l 222 550 l 222 125 l 497 125 l 497 0 q 471 -15 483 -6 q 451 -35 460 -24 q 443 -67 443 -47 q 461 -112 443 -94 q 507 -129 479 -129 q 547 -121 528 -129 q 594 -89 565 -112 l 661 -150 q 583 -210 617 -194 q 510 -226 550 -226 q 447 -215 476 -226 q 394 -183 417 -204 q 359 -133 372 -162 q 346 -69 346 -104 q 363 0 346 -32 l 97 0 l 97 1111 l 497 1111 l 497 986 l 222 986 z "},"Ě":{"ha":539,"x_min":97,"x_max":511,"o":"m 511 986 l 511 1111 l 111 1111 l 111 0 l 511 0 l 511 125 l 236 125 l 236 550 l 474 550 l 474 675 l 236 675 l 236 986 l 511 986 m 301 1258 l 306 1258 l 399 1367 l 510 1367 l 338 1161 l 269 1161 l 97 1367 l 208 1367 l 301 1258 z "},"Ď":{"ha":663,"x_min":97,"x_max":586,"o":"m 228 986 l 228 125 l 386 125 q 440 146 419 125 q 461 200 461 167 l 461 919 q 440 969 461 951 q 386 986 419 986 l 228 986 m 103 1111 l 386 1111 q 465 1097 428 1111 q 528 1057 501 1082 q 571 997 556 1032 q 586 919 586 961 l 586 200 q 571 122 586 158 q 528 59 556 86 q 465 16 501 32 q 386 0 428 0 l 103 0 l 103 1111 m 301 1265 l 306 1265 l 399 1374 l 510 1374 l 338 1168 l 269 1168 l 97 1374 l 208 1374 l 301 1265 z "},"Ń":{"ha":743,"x_min":97,"x_max":646,"o":"m 426 0 l 229 986 l 222 986 l 222 0 l 97 0 l 97 1111 l 319 1111 l 514 125 l 521 125 l 521 1111 l 646 1111 l 646 0 l 426 0 m 429 1167 l 308 1167 l 449 1349 l 569 1349 l 429 1167 z "},"Ň":{"ha":743,"x_min":97,"x_max":646,"o":"m 426 0 l 229 986 l 222 986 l 222 0 l 97 0 l 97 1111 l 319 1111 l 514 125 l 521 125 l 521 1111 l 646 1111 l 646 0 l 426 0 m 369 1249 l 374 1249 l 467 1357 l 578 1357 l 406 1151 l 338 1151 l 165 1357 l 276 1357 l 369 1249 z "},"Ő":{"ha":675,"x_min":76,"x_max":599,"o":"m 435 919 q 414 974 435 953 q 360 994 393 994 l 276 994 q 222 974 243 994 q 201 919 201 953 l 201 186 q 222 132 201 153 q 276 111 243 111 l 360 111 q 414 132 393 111 q 435 186 435 153 l 435 919 m 560 186 q 544 108 560 144 q 502 45 529 72 q 438 2 475 18 q 360 -14 401 -14 l 276 -14 q 199 2 235 -14 q 135 45 163 18 q 92 108 108 72 q 76 186 76 144 l 76 919 q 92 998 76 961 q 135 1062 108 1035 q 199 1104 163 1089 q 276 1119 235 1119 l 360 1119 q 438 1104 401 1119 q 502 1062 475 1089 q 544 998 529 1035 q 560 919 560 961 l 560 186 m 279 1188 l 144 1188 l 285 1369 l 419 1369 l 279 1188 m 458 1188 l 324 1188 l 464 1369 l 599 1369 l 458 1188 z "},"Ř":{"ha":636,"x_min":97,"x_max":581,"o":"m 456 0 l 456 414 q 440 481 456 457 q 396 518 424 506 l 222 518 l 222 0 l 97 0 l 97 1111 l 404 1111 q 469 1098 439 1111 q 522 1062 499 1085 q 558 1009 544 1039 q 571 944 571 979 l 571 744 q 541 646 571 690 q 464 581 511 601 q 548 517 515 561 q 581 414 581 472 l 581 0 l 456 0 m 397 643 q 435 679 425 656 q 444 742 444 703 l 444 944 q 431 976 444 964 q 399 988 418 988 l 222 988 l 222 643 l 397 643 m 313 1265 l 317 1265 l 410 1374 l 521 1374 l 349 1168 l 281 1168 l 108 1374 l 219 1374 l 313 1265 z "},"Ů":{"ha":650,"x_min":83,"x_max":567,"o":"m 442 1111 l 567 1111 l 567 186 q 551 108 567 144 q 509 45 536 72 q 445 2 482 18 q 367 -14 408 -14 l 283 -14 q 206 2 242 -14 q 142 45 169 18 q 99 108 115 72 q 83 186 83 144 l 83 1111 l 208 1111 l 208 186 q 229 132 208 153 q 283 111 250 111 l 367 111 q 421 132 400 111 q 442 186 442 153 l 442 1111 m 390 1304 q 372 1349 390 1331 q 326 1368 353 1368 q 281 1349 300 1368 q 263 1304 263 1331 q 281 1259 263 1278 q 326 1240 300 1240 q 372 1259 353 1240 q 390 1304 390 1278 m 486 1304 q 474 1242 486 1271 q 440 1191 461 1213 q 389 1157 418 1169 q 326 1144 360 1144 q 264 1157 293 1144 q 213 1191 235 1169 q 179 1242 192 1213 q 167 1304 167 1271 q 179 1367 167 1338 q 213 1417 192 1396 q 264 1451 235 1439 q 326 1464 293 1464 q 389 1451 360 1464 q 440 1417 418 1439 q 474 1367 461 1396 q 486 1304 486 1338 z "},"Ű":{"ha":665,"x_min":83,"x_max":582,"o":"m 442 1111 l 567 1111 l 567 186 q 551 108 567 144 q 509 45 536 72 q 445 2 482 18 q 367 -14 408 -14 l 283 -14 q 206 2 242 -14 q 142 45 169 18 q 99 108 115 72 q 83 186 83 144 l 83 1111 l 208 1111 l 208 186 q 229 132 208 153 q 283 111 250 111 l 367 111 q 421 132 400 111 q 442 186 442 153 l 442 1111 m 443 1185 l 335 1185 l 475 1367 l 582 1367 l 443 1185 m 276 1185 l 168 1185 l 308 1367 l 415 1367 l 276 1185 z "},"Ţ":{"ha":514,"x_min":0,"x_max":514,"o":"m 194 -276 l 194 -42 l 319 -42 l 319 -276 l 194 -276 m 319 986 l 319 0 l 194 0 l 194 986 l 0 986 l 0 1111 l 514 1111 l 514 986 l 319 986 z "},"ŕ":{"ha":560,"x_min":83,"x_max":539,"o":"m 347 861 l 226 861 l 367 1043 l 488 1043 l 347 861 m 414 601 q 409 647 414 631 q 396 664 404 664 q 354 649 385 664 q 292 615 324 635 q 208 565 254 593 l 208 0 l 83 0 l 83 778 l 208 778 l 208 692 q 279 742 243 719 q 344 776 310 761 q 406 790 378 790 q 500 751 461 790 q 539 657 539 713 l 539 518 l 414 518 l 414 601 z "},"ă":{"ha":574,"x_min":42,"x_max":497,"o":"m 42 243 q 52 329 42 296 q 81 385 63 363 q 124 420 99 407 q 179 444 150 433 l 372 503 l 372 607 q 365 641 372 629 q 345 658 357 653 q 317 665 333 664 q 285 667 301 667 q 224 656 251 667 q 197 607 197 646 l 197 579 l 72 579 l 72 607 q 91 689 72 654 q 140 747 110 724 q 208 781 171 769 q 285 792 246 792 q 362 781 324 792 q 430 747 400 769 q 478 689 460 724 q 497 607 497 654 l 497 0 l 372 0 l 372 86 q 301 36 338 58 q 237 1 271 17 q 175 -14 203 -14 q 81 25 119 -14 q 42 119 42 64 l 42 243 m 167 175 q 172 129 167 146 q 185 113 176 113 q 226 128 196 113 q 289 163 257 143 q 372 211 326 185 l 372 385 l 208 333 q 173 294 179 321 q 167 222 167 268 l 167 175 m 424 997 q 385 903 424 942 q 290 864 346 864 q 196 903 235 864 q 157 997 157 942 l 254 997 q 290 961 254 961 q 326 997 326 961 l 424 997 z "},"ĺ":{"ha":343,"x_min":51,"x_max":322,"o":"m 176 1086 l 56 1086 l 196 1268 l 317 1268 l 176 1086 m 322 -14 l 236 -14 q 164 1 197 -14 q 106 40 131 15 q 66 99 81 65 q 51 171 51 133 l 51 1061 l 178 1061 l 178 171 q 194 127 178 143 q 239 111 211 111 l 322 111 l 322 -14 z "},"ć":{"ha":560,"x_min":69,"x_max":525,"o":"m 347 861 l 226 861 l 367 1043 l 488 1043 l 347 861 m 400 271 l 525 271 l 525 171 q 510 99 525 133 q 471 40 496 65 q 413 1 446 15 q 340 -14 379 -14 l 254 -14 q 182 1 215 -14 q 124 40 149 15 q 84 99 99 65 q 69 171 69 133 l 69 607 q 84 679 69 646 q 124 738 99 713 q 182 777 149 763 q 254 792 215 792 l 340 792 q 413 777 379 792 q 471 738 446 763 q 510 679 496 713 q 525 607 525 646 l 525 503 l 400 503 l 400 607 q 384 651 400 635 q 340 667 368 667 l 254 667 q 210 651 226 667 q 194 607 194 635 l 194 171 q 210 127 194 143 q 254 111 226 111 l 340 111 q 384 127 368 111 q 400 171 400 143 l 400 271 z "},"č":{"ha":560,"x_min":69,"x_max":525,"o":"m 400 271 l 525 271 l 525 171 q 510 99 525 133 q 471 40 496 65 q 413 1 446 15 q 340 -14 379 -14 l 254 -14 q 182 1 215 -14 q 124 40 149 15 q 84 99 99 65 q 69 171 69 133 l 69 607 q 84 679 69 646 q 124 738 99 713 q 182 777 149 763 q 254 792 215 792 l 340 792 q 413 777 379 792 q 471 738 446 763 q 510 679 496 713 q 525 607 525 646 l 525 503 l 400 503 l 400 607 q 384 651 400 635 q 340 667 368 667 l 254 667 q 210 651 226 667 q 194 607 194 635 l 194 171 q 210 127 194 143 q 254 111 226 111 l 340 111 q 384 127 368 111 q 400 171 400 143 l 400 271 m 296 922 l 300 922 l 393 1031 l 504 1031 l 332 825 l 264 825 l 92 1031 l 203 1031 l 296 922 z "},"ę":{"ha":574,"x_min":69,"x_max":525,"o":"m 340 111 q 384 127 368 111 q 400 171 400 143 l 400 271 l 525 271 l 525 171 q 510 99 525 132 q 471 40 496 65 q 413 1 446 15 q 340 -14 379 -14 l 335 -14 q 321 -21 329 -17 q 304 -33 313 -25 q 290 -52 296 -40 q 285 -79 285 -64 q 303 -124 285 -107 q 349 -142 321 -142 q 388 -133 369 -142 q 436 -101 407 -125 l 503 -162 q 425 -223 458 -207 q 351 -239 392 -239 q 288 -228 318 -239 q 236 -196 258 -217 q 201 -146 214 -175 q 188 -82 188 -117 q 207 -8 188 -43 q 108 56 147 7 q 69 171 69 106 l 69 607 q 84 679 69 646 q 124 738 99 713 q 182 777 149 763 q 254 792 215 792 l 340 792 q 413 777 379 792 q 471 738 446 763 q 510 679 496 713 q 525 607 525 646 l 525 371 l 194 371 l 194 171 q 210 127 194 143 q 254 111 226 111 l 340 111 m 400 496 l 400 607 q 384 651 400 635 q 340 667 368 667 l 254 667 q 210 651 226 667 q 194 607 194 635 l 194 496 l 400 496 z "},"ě":{"ha":574,"x_min":69,"x_max":525,"o":"m 400 496 l 400 607 q 384 651 400 635 q 340 667 368 667 l 254 667 q 210 651 226 667 q 194 607 194 635 l 194 496 l 400 496 m 340 111 q 384 127 368 111 q 400 171 400 143 l 400 271 l 525 271 l 525 171 q 510 99 525 132 q 471 40 496 65 q 413 1 446 15 q 340 -14 379 -14 l 254 -14 q 182 1 215 -14 q 124 40 149 15 q 84 99 99 65 q 69 171 69 132 l 69 607 q 84 679 69 646 q 124 738 99 713 q 182 777 149 763 q 254 792 215 792 l 340 792 q 413 777 379 792 q 471 738 446 763 q 510 679 496 713 q 525 607 525 646 l 525 371 l 194 371 l 194 171 q 210 127 194 143 q 254 111 226 111 l 340 111 m 304 944 l 308 944 l 401 1053 l 513 1053 l 340 847 l 272 847 l 100 1053 l 211 1053 l 304 944 z "},"ń":{"ha":615,"x_min":83,"x_max":539,"o":"m 347 861 l 226 861 l 367 1043 l 488 1043 l 347 861 m 414 601 q 409 647 414 631 q 396 664 404 664 q 354 649 385 664 q 292 615 324 635 q 208 565 254 593 l 208 0 l 83 0 l 83 778 l 208 778 l 208 692 q 279 742 243 719 q 344 776 310 761 q 406 790 378 790 q 500 751 461 790 q 539 657 539 713 l 539 0 l 414 0 l 414 601 z "},"ň":{"ha":615,"x_min":83,"x_max":539,"o":"m 414 601 q 409 647 414 631 q 396 664 404 664 q 354 649 385 664 q 292 615 324 635 q 208 565 254 593 l 208 0 l 83 0 l 83 778 l 208 778 l 208 692 q 279 742 243 719 q 344 776 310 761 q 406 790 378 790 q 500 751 461 790 q 539 657 539 713 l 539 0 l 414 0 l 414 601 m 318 967 l 322 967 l 415 1075 l 526 1075 l 354 869 l 286 869 l 114 1075 l 225 1075 l 318 967 z "},"ő":{"ha":608,"x_min":69,"x_max":539,"o":"m 400 171 l 400 607 q 384 651 400 635 q 340 667 368 667 l 254 667 q 210 651 226 667 q 194 607 194 635 l 194 171 q 210 127 194 143 q 254 111 226 111 l 340 111 q 384 121 368 111 q 400 171 400 131 m 525 171 q 510 99 525 133 q 471 40 496 65 q 413 1 446 15 q 340 -14 379 -14 l 254 -14 q 182 1 215 -14 q 124 40 149 15 q 84 99 99 65 q 69 171 69 133 l 69 607 q 84 679 69 646 q 124 738 99 713 q 182 777 149 763 q 254 792 215 792 l 340 792 q 413 777 379 792 q 471 738 446 763 q 510 679 496 713 q 525 607 525 646 l 525 171 m 400 858 l 292 858 l 432 1040 l 539 1040 l 400 858 m 233 858 l 125 858 l 265 1040 l 372 1040 l 233 858 z "},"ř":{"ha":567,"x_min":83,"x_max":546,"o":"m 421 601 q 416 647 421 631 q 403 664 411 664 q 361 649 392 664 q 299 615 331 635 q 215 565 261 593 l 215 0 l 90 0 l 90 778 l 215 778 l 215 692 q 286 742 250 719 q 351 776 317 761 q 413 790 385 790 q 507 751 468 790 q 546 657 546 713 l 546 518 l 421 518 l 421 601 m 288 931 l 292 931 l 385 1039 l 496 1039 l 324 833 l 256 833 l 83 1039 l 194 1039 l 288 931 z "},"ů":{"ha":615,"x_min":76,"x_max":532,"o":"m 532 778 l 532 0 l 407 0 l 407 86 q 336 36 372 58 q 272 1 306 17 q 210 -14 238 -14 q 115 25 154 -14 q 76 119 76 64 l 76 778 l 201 778 l 201 175 q 206 129 201 146 q 219 113 211 113 q 261 128 231 113 q 324 163 292 143 q 407 211 361 185 l 407 778 l 532 778 m 364 978 q 345 1023 364 1004 q 300 1042 326 1042 q 255 1023 274 1042 q 236 978 236 1004 q 255 933 236 951 q 300 914 274 914 q 345 933 326 914 q 364 978 364 951 m 460 978 q 447 915 460 944 q 413 865 435 886 q 363 831 392 843 q 300 818 333 818 q 238 831 267 818 q 187 865 208 843 q 153 915 165 886 q 140 978 140 944 q 153 1040 140 1011 q 187 1091 165 1069 q 238 1125 208 1113 q 300 1138 267 1138 q 363 1125 333 1138 q 413 1091 392 1113 q 447 1040 435 1069 q 460 978 460 1011 z "}}}
